Fraunces72ptSoft-BlackItalic.ufo
<glyph name="exclam" format="2">
  <advance width="737.6"/>
  <unicode hex="0021"/>
  <outline>
    <contour>
      <point x="606.8" y="1494.2666666666667" type="curve" smooth="yes"/>
      <point x="444.7" y="1494.2666666666667"/>
      <point x="350.7" y="1422.6"/>
      <point x="316.53333333333336" y="1286.1333333333332" type="curve" smooth="yes"/>
      <point x="307.3" y="1248.5333333333333"/>
      <point x="302.2666666666667" y="1198.6"/>
      <point x="300.46666666666664" y="1141.1" type="curve" smooth="yes"/>
      <point x="288.0" y="550.4333333333334" type="line" smooth="yes"/>
      <point x="286.9666666666667" y="497.0666666666667"/>
      <point x="306.76666666666665" y="474.0"/>
      <point x="349.8333333333333" y="474.0" type="curve" smooth="yes"/>
      <point x="393.16666666666663" y="474.0"/>
      <point x="423.6" y="495.2"/>
      <point x="450.1333333333333" y="548.0666666666666" type="curve" smooth="yes"/>
      <point x="749.4" y="1139.3" type="line" smooth="yes"/>
      <point x="782.2231612637964" y="1204.305517397183"/>
      <point x="805.9" y="1268.9555555555555"/>
      <point x="810.1666666666666" y="1311.2333333333333" type="curve" smooth="yes"/>
      <point x="827.5" y="1422.5031319910513"/>
      <point x="764.7" y="1494.2666666666667"/>
    </contour>
    <component base="period" xOffset="15.999999999999998"/>
  </outline>
</glyph>
<glyph name="numbersign" format="2">
  <advance width="1334.2"/>
  <unicode hex="0023"/>
  <outline>
    <contour>
      <point x="586.7666666666667" y="686.4" type="curve" smooth="yes"/>
      <point x="669.1999999999999" y="843.3666666666667"/>
      <point x="853.1333333333333" y="1166.1333333333334"/>
      <point x="933.1999999999999" y="1316.4666666666667" type="curve" smooth="yes"/>
      <point x="957.8333333333334" y="1362.7666666666667"/>
      <point x="952.0" y="1395.6333333333334"/>
      <point x="909.6333333333333" y="1407.5333333333333" type="curve" smooth="yes"/>
      <point x="868.5666666666666" y="1419.3999999999999"/>
      <point x="832.3333333333334" y="1398.4333333333334"/>
      <point x="807.4666666666667" y="1352.9" type="curve" smooth="yes"/>
      <point x="732.7333333333333" y="1211.2666666666667"/>
      <point x="580.7666666666667" y="873.3666666666667"/>
      <point x="495.3666666666667" y="712.4666666666667" type="curve" smooth="yes"/>
      <point x="409.66666666666663" y="549.8"/>
      <point x="208.9" y="227.13333333333333"/>
      <point x="132.13333333333335" y="83.19999999999999" type="curve" smooth="yes"/>
      <point x="107.3" y="36.666666666666664"/>
      <point x="114.36666666666666" y="5.3"/>
      <point x="155.73333333333335" y="-7.866666666666666" type="curve" smooth="yes"/>
      <point x="197.56666666666666" y="-19.233333333333334"/>
      <point x="232.03333333333336" y="1.0"/>
      <point x="258.1333333333333" y="47.3" type="curve" smooth="yes"/>
      <point x="338.2333333333333" y="199.2"/>
      <point x="503.8" y="528.6333333333333"/>
    </contour>
    <contour>
      <point x="826.3333333333333" y="889.5" type="curve" smooth="yes"/>
      <point x="960.9666666666667" y="889.5"/>
      <point x="1222.2" y="874.1666666666666"/>
      <point x="1348.2" y="872.9" type="curve" smooth="yes"/>
      <point x="1396.9" y="874.1666666666666"/>
      <point x="1431.1" y="898.2"/>
      <point x="1445.3" y="944.5" type="curve" smooth="yes"/>
      <point x="1455.9333333333332" y="989.5333333333333"/>
      <point x="1433.8999999999999" y="1012.8000000000001"/>
      <point x="1387.0" y="1012.8000000000001" type="curve" smooth="yes"/>
      <point x="1265.9666666666667" y="1010.7666666666668"/>
      <point x="992.1" y="990.3333333333334"/>
      <point x="854.0333333333333" y="990.3333333333334" type="curve" smooth="yes"/>
      <point x="711.4" y="988.8000000000001"/>
      <point x="444.8" y="1018.9000000000001"/>
      <point x="321.2333333333333" y="1018.1333333333334" type="curve" smooth="yes"/>
      <point x="273.56666666666666" y="1017.3666666666668"/>
      <point x="238.6" y="994.8666666666667"/>
      <point x="225.16666666666666" y="947.8" type="curve" smooth="yes"/>
      <point x="213.76666666666668" y="902.7666666666667"/>
      <point x="234.53333333333333" y="878.0"/>
      <point x="284.46666666666664" y="879.0" type="curve" smooth="yes"/>
      <point x="413.26666666666665" y="878.0"/>
      <point x="689.9" y="887.9666666666667"/>
    </contour>
    <contour>
      <point x="981.2" y="686.4" type="curve" smooth="yes"/>
      <point x="1062.9" y="842.8666666666667"/>
      <point x="1247.8" y="1166.3666666666668"/>
      <point x="1326.9" y="1315.9666666666667" type="curve" smooth="yes"/>
      <point x="1352.5" y="1362.2666666666667"/>
      <point x="1346.6666666666665" y="1395.6333333333334"/>
      <point x="1304.3000000000002" y="1407.5333333333333" type="curve" smooth="yes"/>
      <point x="1263.0" y="1419.3999999999999"/>
      <point x="1227.7666666666667" y="1398.2"/>
      <point x="1202.1666666666665" y="1352.4" type="curve" smooth="yes"/>
      <point x="1127.9333333333334" y="1211.5"/>
      <point x="975.9333333333334" y="873.8666666666667"/>
      <point x="890.5333333333333" y="712.4666666666667" type="curve" smooth="yes"/>
      <point x="804.8666666666667" y="549.5666666666666"/>
      <point x="602.8333333333334" y="226.9"/>
      <point x="526.8" y="83.19999999999999" type="curve" smooth="yes"/>
      <point x="501.9666666666667" y="36.9"/>
      <point x="508.8" y="5.3"/>
      <point x="550.4" y="-7.866666666666666" type="curve" smooth="yes"/>
      <point x="592.0" y="-19.233333333333334"/>
      <point x="626.7" y="1.2333333333333334"/>
      <point x="653.0666666666667" y="47.3" type="curve" smooth="yes"/>
      <point x="732.6666666666666" y="198.96666666666667"/>
      <point x="898.5" y="528.6333333333333"/>
    </contour>
    <contour>
      <point x="641.8000000000001" y="440.6" type="curve" smooth="yes"/>
      <point x="776.4333333333333" y="440.6"/>
      <point x="1037.3999999999999" y="425.3"/>
      <point x="1163.8999999999999" y="423.76666666666665" type="curve" smooth="yes"/>
      <point x="1212.3333333333333" y="425.3"/>
      <point x="1247.3000000000002" y="449.3"/>
      <point x="1261.5" y="495.6" type="curve" smooth="yes"/>
      <point x="1272.1333333333334" y="540.6333333333334"/>
      <point x="1249.1000000000001" y="563.9"/>
      <point x="1202.4333333333334" y="563.9" type="curve" smooth="yes"/>
      <point x="1082.1666666666667" y="561.8666666666667"/>
      <point x="808.0333333333333" y="541.4333333333334"/>
      <point x="670.0" y="541.4333333333334" type="curve" smooth="yes"/>
      <point x="527.6" y="540.1666666666667"/>
      <point x="260.76666666666665" y="570.0"/>
      <point x="137.66666666666669" y="569.2333333333333" type="curve" smooth="yes"/>
      <point x="89.0" y="568.7333333333333"/>
      <point x="54.03333333333333" y="546.2333333333333"/>
      <point x="41.36666666666667" y="499.1666666666667" type="curve" smooth="yes"/>
      <point x="30.199999999999996" y="453.9"/>
      <point x="50.96666666666667" y="429.3666666666667"/>
      <point x="99.9" y="429.8666666666667" type="curve" smooth="yes"/>
      <point x="228.73333333333332" y="429.3666666666667"/>
      <point x="504.6" y="439.3333333333333"/>
    </contour>
  </outline>
</glyph>
<glyph name="dollar" format="2">
  <advance width="1195.0"/>
  <unicode hex="0024"/>
  <outline>
    <contour>
      <point x="481.23333333333335" y="3.0666666666666664" type="curve" smooth="yes"/>
      <point x="817.8333333333334" y="3.0666666666666664"/>
      <point x="1081.8666666666666" y="155.26666666666668"/>
      <point x="1112.4666666666667" y="406.43333333333334" type="curve" smooth="yes"/>
      <point x="1137.3999999999999" y="557.7666666666667"/>
      <point x="1076.5" y="705.6333333333333"/>
      <point x="806.0666666666666" y="860.0" type="curve" smooth="yes"/>
      <point x="618.6333333333333" y="968.7333333333333"/>
      <point x="563.2" y="1038.3000000000002"/>
      <point x="579.1333333333333" y="1144.9" type="curve" smooth="yes"/>
      <point x="594.1333333333333" y="1257.4"/>
      <point x="695.9" y="1312.6333333333332"/>
      <point x="808.0666666666666" y="1312.6333333333332" type="curve" smooth="yes"/>
      <point x="920.4333333333334" y="1312.6333333333332"/>
      <point x="960.3" y="1252.6333333333334"/>
      <point x="948.4333333333333" y="1149.5" type="curve" smooth="yes"/>
      <point x="935.4666666666666" y="1066.2333333333333" type="line" smooth="yes"/>
      <point x="920.9333333333334" y="954.4333333333333"/>
      <point x="983.7666666666667" y="897.1333333333333"/>
      <point x="1077.3" y="896.6333333333333" type="curve" smooth="yes"/>
      <point x="1189.6999999999998" y="896.4"/>
      <point x="1265.7" y="983.3333333333334"/>
      <point x="1265.7" y="1097.3666666666668" type="curve" smooth="yes"/>
      <point x="1265.7" y="1253.2"/>
      <point x="1129.0333333333333" y="1395.3999999999999"/>
      <point x="814.5" y="1395.3999999999999" type="curve" smooth="yes"/>
      <point x="464.70000000000005" y="1395.3999999999999"/>
      <point x="241.46666666666667" y="1208.8666666666668"/>
      <point x="211.53333333333336" y="986.4333333333334" type="curve" smooth="yes"/>
      <point x="180.4333333333333" y="800.9333333333333"/>
      <point x="247.5" y="658.8333333333334"/>
      <point x="492.53333333333336" y="524.7" type="curve" smooth="yes"/>
      <point x="682.9" y="419.8666666666667"/>
      <point x="739.7666666666667" y="345.9666666666667"/>
      <point x="726.2" y="249.36666666666665" type="curve" smooth="yes"/>
      <point x="712.8666666666667" y="146.36666666666667"/>
      <point x="623.9666666666667" y="88.80000000000001"/>
      <point x="496.06666666666666" y="88.80000000000001" type="curve" smooth="yes"/>
      <point x="365.3" y="88.80000000000001"/>
      <point x="322.3666666666667" y="153.43333333333334"/>
      <point x="333.2666666666667" y="249.43333333333334" type="curve" smooth="yes"/>
      <point x="341.76666666666665" y="329.33333333333337" type="line" smooth="yes"/>
      <point x="355.8666666666667" y="431.73333333333335"/>
      <point x="301.9666666666667" y="496.0"/>
      <point x="207.3" y="496.0" type="curve" smooth="yes"/>
      <point x="98.16666666666667" y="496.0"/>
      <point x="14.866666666666667" y="409.8333333333333"/>
      <point x="14.133333333333335" y="283.5" type="curve" smooth="yes"/>
      <point x="13.400000000000002" y="120.9"/>
      <point x="149.8" y="3.0666666666666664"/>
    </contour>
    <contour>
      <point x="717.2666666666667" y="768.8666666666667" type="line"/>
      <point x="820.8666666666667" y="1157.4333333333334"/>
      <point x="914.9666666666666" y="1369.6666666666667"/>
      <point x="954.8333333333334" y="1522.2666666666667" type="curve" smooth="yes"/>
      <point x="971.3" y="1583.7333333333333"/>
      <point x="945.0333333333334" y="1614.0666666666668"/>
      <point x="902.2666666666667" y="1614.0666666666668" type="curve" smooth="yes"/>
      <point x="855.9333333333333" y="1614.0666666666668"/>
      <point x="818.3333333333333" y="1581.9666666666665"/>
      <point x="803.1333333333333" y="1524.8" type="curve" smooth="yes"/>
      <point x="759.8666666666667" y="1358.5"/>
      <point x="747.6" y="1152.6"/>
      <point x="644.1666666666666" y="768.8666666666667" type="curve"/>
    </contour>
    <contour>
      <point x="591.2333333333332" y="655.6666666666666" type="line"/>
      <point x="488.6" y="271.7"/>
      <point x="395.93333333333334" y="66.26666666666667"/>
      <point x="352.7" y="-97.73333333333333" type="curve" smooth="yes"/>
      <point x="336.7" y="-159.2"/>
      <point x="362.9666666666667" y="-189.53333333333333"/>
      <point x="405.73333333333335" y="-189.53333333333333" type="curve" smooth="yes"/>
      <point x="452.06666666666666" y="-189.53333333333333"/>
      <point x="489.4333333333333" y="-157.43333333333334"/>
      <point x="504.40000000000003" y="-100.26666666666667" type="curve" smooth="yes"/>
      <point x="545.5" y="54.6"/>
      <point x="559.6666666666666" y="268.1333333333333"/>
      <point x="664.3333333333334" y="655.6666666666666" type="curve"/>
    </contour>
  </outline>
</glyph>
<glyph name="ampersand" format="2">
  <advance width="1483.3666666666668"/>
  <unicode hex="0026"/>
  <outline>
    <contour>
      <point x="228.2" y="209.26666666666665" type="line" smooth="yes"/>
      <point x="-10.0" y="31.33333333333333"/>
      <point x="-91.36666666666667" y="-122.03333333333333"/>
      <point x="-90.66666666666667" y="-248.8" type="curve" smooth="yes"/>
      <point x="-89.7" y="-376.3666666666667"/>
      <point x="-12.933333333333334" y="-445.4666666666667"/>
      <point x="92.26666666666667" y="-444.5" type="curve" smooth="yes"/>
      <point x="189.79999999999998" y="-443.53333333333336"/>
      <point x="259.7" y="-374.43333333333334"/>
      <point x="258.96666666666664" y="-292.93333333333334" type="curve" smooth="yes"/>
      <point x="257.76666666666665" y="-204.4393939393939"/>
      <point x="189.3" y="-160.37373737373736"/>
      <point x="188.83333333333334" y="-65.56666666666666" type="curve" smooth="yes"/>
      <point x="187.86666666666667" y="9.9"/>
      <point x="217.56666666666666" y="82.43333333333334"/>
      <point x="342.4" y="173.1" type="curve" smooth="yes"/>
      <point x="1354.6666666666667" y="948.8000000000001" type="line" smooth="yes"/>
      <point x="1577.8" y="1116.3333333333333"/>
      <point x="1668.9" y="1242.7333333333333"/>
      <point x="1668.2" y="1381.0" type="curve" smooth="yes"/>
      <point x="1667.2333333333333" y="1496.9"/>
      <point x="1599.8999999999999" y="1569.8"/>
      <point x="1489.3333333333333" y="1568.5666666666666" type="curve" smooth="yes"/>
      <point x="1378.5333333333333" y="1567.6000000000001"/>
      <point x="1308.3999999999999" y="1490.6"/>
      <point x="1309.1333333333332" y="1408.6" type="curve" smooth="yes"/>
      <point x="1310.3333333333333" y="1329.6489675516225"/>
      <point x="1373.4333333333334" y="1282.5778761061945"/>
      <point x="1373.9" y="1184.5333333333333" type="curve" smooth="yes"/>
      <point x="1375.1" y="1118.1000000000001"/>
      <point x="1345.0" y="1064.6666666666667"/>
      <point x="1260.6000000000001" y="1002.3" type="curve" smooth="yes"/>
    </contour>
    <contour>
      <point x="1011.0666666666667" y="260.40000000000003" type="curve" smooth="yes"/>
      <point x="1005.3000000000001" y="155.1"/>
      <point x="920.4333333333334" y="113.26666666666665"/>
      <point x="818.8" y="113.26666666666665" type="curve" smooth="yes"/>
      <point x="642.5" y="113.26666666666665"/>
      <point x="532.1666666666667" y="277.7333333333333"/>
      <point x="596.0666666666667" y="633.3" type="curve" smooth="yes"/>
      <point x="647.5333333333333" y="920.7333333333332"/>
      <point x="742.4333333333334" y="1042.9333333333332"/>
      <point x="834.9" y="1042.9333333333332" type="curve" smooth="yes"/>
      <point x="893.8000000000001" y="1042.9333333333332"/>
      <point x="924.9" y="984.9333333333333"/>
      <point x="912.8666666666667" y="838.7333333333333" type="curve" smooth="yes"/>
      <point x="902.2666666666667" y="722.5666666666667"/>
      <point x="885.1666666666666" y="651.2666666666668"/>
      <point x="869.8" y="586.6999999999999" type="curve"/>
      <point x="1036.3" y="713.5333333333333"/>
      <point x="1148.2666666666667" y="764.8"/>
      <point x="1247.7333333333333" y="772.9666666666666" type="curve" smooth="yes"/>
      <point x="1314.9" y="781.8000000000001"/>
      <point x="1337.6666666666667" y="825.1666666666666"/>
      <point x="1343.1000000000001" y="895.8666666666667" type="curve" smooth="yes"/>
      <point x="1355.7" y="1040.7666666666667"/>
      <point x="1167.1333333333332" y="1164.8666666666666"/>
      <point x="914.0" y="1164.8666666666666" type="curve"/>
      <point x="525.6999999999999" y="1164.8666666666666"/>
      <point x="205.56666666666666" y="939.0333333333333"/>
      <point x="134.23333333333335" y="591.1999999999999" type="curve" smooth="yes"/>
      <point x="61.20000000000001" y="230.93333333333334"/>
      <point x="257.1" y="-24.266666666666666"/>
      <point x="700.4666666666667" y="-24.266666666666666" type="curve" smooth="yes"/>
      <point x="1118.5333333333333" y="-24.266666666666666"/>
      <point x="1369.8666666666666" y="202.46666666666667"/>
      <point x="1380.9333333333332" y="441.3" type="curve" smooth="yes"/>
      <point x="1385.0333333333333" y="576.3666666666667"/>
      <point x="1301.7666666666667" y="642.1333333333333"/>
      <point x="1186.5" y="642.1333333333333" type="curve" smooth="yes"/>
      <point x="1057.6333333333332" y="642.1333333333333"/>
      <point x="978.9000000000001" y="554.1"/>
      <point x="976.2333333333333" y="468.0" type="curve" smooth="yes"/>
      <point x="971.9000000000001" y="378.5"/>
      <point x="1015.1666666666667" y="340.3666666666667"/>
    </contour>
  </outline>
</glyph>
<glyph name="quotesingle" format="2">
  <advance width="430.90000000000003"/>
  <unicode hex="0027"/>
  <outline>
    <contour>
      <point x="290.9666666666667" y="787.0" type="curve" smooth="yes"/>
      <point x="334.3333333333333" y="787.0"/>
      <point x="369.5333333333333" y="810.1999999999999"/>
      <point x="395.4666666666667" y="864.1666666666666" type="curve" smooth="yes"/>
      <point x="615.5333333333334" y="1310.6666666666665" type="line" smooth="yes"/>
      <point x="699.0333333333333" y="1482.2"/>
      <point x="671.8000000000001" y="1589.3333333333333"/>
      <point x="518.7666666666667" y="1589.3333333333333" type="curve" smooth="yes"/>
      <point x="367.0" y="1589.3333333333333"/>
      <point x="278.8666666666667" y="1488.9666666666667"/>
      <point x="265.6333333333333" y="1309.6666666666665" type="curve" smooth="yes"/>
      <point x="235.9" y="865.6999999999999" type="line" smooth="yes"/>
      <point x="232.3" y="815.3"/>
      <point x="254.76666666666665" y="787.0"/>
    </contour>
  </outline>
</glyph>
<glyph name="parenleft" format="2">
  <advance width="718.6"/>
  <unicode hex="0028"/>
  <outline>
    <contour>
      <point x="179.93333333333334" y="628.7" type="curve" smooth="yes"/>
      <point x="66.1" y="201.53333333333333"/>
      <point x="197.66666666666666" y="-123.1"/>
      <point x="423.0" y="-230.83333333333334" type="curve" smooth="yes"/>
      <point x="474.9" y="-251.86666666666665"/>
      <point x="512.3666666666666" y="-250.03333333333333"/>
      <point x="532.5" y="-222.70000000000002" type="curve" smooth="yes"/>
      <point x="547.8333333333333" y="-202.1"/>
      <point x="538.7" y="-176.60000000000002"/>
      <point x="517.6666666666666" y="-136.16666666666666" type="curve" smooth="yes"/>
      <point x="433.6" y="31.766666666666666"/>
      <point x="416.43333333333334" y="300.7"/>
      <point x="498.73333333333335" y="611.6666666666666" type="curve" smooth="yes"/>
      <point x="581.5333333333333" y="923.5333333333334"/>
      <point x="743.5666666666666" y="1195.5"/>
      <point x="921.5333333333333" y="1365.3" type="curve" smooth="yes"/>
      <point x="964.0666666666666" y="1405.3"/>
      <point x="982.6" y="1431.4666666666667"/>
      <point x="975.4666666666667" y="1451.8333333333335" type="curve" smooth="yes"/>
      <point x="967.3000000000001" y="1479.4"/>
      <point x="928.6666666666666" y="1479.9"/>
      <point x="864.9333333333333" y="1458.3333333333335" type="curve" smooth="yes"/>
      <point x="582.3666666666667" y="1352.0"/>
      <point x="293.5" y="1056.1000000000001"/>
    </contour>
  </outline>
</glyph>
<glyph name="asterisk" format="2">
  <advance width="1165.5333333333333"/>
  <unicode hex="002A"/>
  <outline>
    <contour>
      <point x="726.3333333333334" y="987.1" type="line"/>
      <point x="776.2333333333333" y="1177.1666666666667"/>
      <point x="967.8333333333334" y="1270.8"/>
      <point x="1003.7666666666667" y="1405.5666666666666" type="curve" smooth="yes"/>
      <point x="1027.8" y="1496.8666666666668"/>
      <point x="970.6666666666666" y="1545.9333333333332"/>
      <point x="855.5333333333333" y="1545.9333333333332" type="curve" smooth="yes"/>
      <point x="732.8" y="1545.9333333333332"/>
      <point x="658.8333333333333" y="1496.4"/>
      <point x="634.5333333333334" y="1405.1" type="curve" smooth="yes"/>
      <point x="598.8666666666667" y="1270.8333333333335"/>
      <point x="740.5999999999999" y="1177.1666666666667"/>
      <point x="690.4333333333333" y="987.1" type="curve"/>
    </contour>
    <contour>
      <point x="706.9666666666667" y="1004.1" type="curve"/>
      <point x="709.0666666666666" y="969.8333333333334" type="line"/>
      <point x="902.6" y="1029.2"/>
      <point x="1007.8333333333334" y="898.4"/>
      <point x="1145.2666666666667" y="939.5333333333333" type="curve" smooth="yes"/>
      <point x="1238.4" y="968.3"/>
      <point x="1284.5333333333333" y="1048.0"/>
      <point x="1278.2" y="1158.4666666666667" type="curve" smooth="yes"/>
      <point x="1271.4333333333334" y="1275.7666666666667"/>
      <point x="1216.3999999999999" y="1321.8999999999999"/>
      <point x="1121.4333333333334" y="1292.6999999999998" type="curve" smooth="yes"/>
      <point x="986.5666666666667" y="1251.5"/>
      <point x="900.8" y="1062.9333333333334"/>
    </contour>
    <contour>
      <point x="718.2" y="1004.1" type="line"/>
      <point x="554.9666666666667" y="1062.4666666666667"/>
      <point x="568.9333333333334" y="1251.0333333333333"/>
      <point x="455.4666666666667" y="1292.2333333333333" type="curve" smooth="yes"/>
      <point x="375.46666666666664" y="1321.2"/>
      <point x="294.3666666666667" y="1271.3333333333335"/>
      <point x="229.5" y="1160.6000000000001" type="curve" smooth="yes"/>
      <point x="160.60000000000002" y="1043.3333333333335"/>
      <point x="168.86666666666665" y="967.3666666666667"/>
      <point x="246.46666666666667" y="938.6" type="curve" smooth="yes"/>
      <point x="362.6" y="897.9333333333334"/>
      <point x="535.6333333333333" y="1028.7333333333333"/>
      <point x="697.8333333333334" y="969.8333333333334" type="curve"/>
    </contour>
    <contour>
      <point x="696.8" y="997.5" type="line"/>
      <point x="545.3666666666667" y="843.7333333333333"/>
      <point x="363.2" y="866.5999999999999"/>
      <point x="255.36666666666667" y="757.4333333333334" type="curve" smooth="yes"/>
      <point x="183.06666666666666" y="683.1666666666666"/>
      <point x="189.26666666666668" y="602.9333333333334"/>
      <point x="264.2" y="534.6" type="curve" smooth="yes"/>
      <point x="343.90000000000003" y="462.03333333333336"/>
      <point x="424.2" y="464.90000000000003"/>
      <point x="496.0333333333333" y="538.9333333333334" type="curve" smooth="yes"/>
      <point x="603.1333333333333" y="648.1"/>
      <point x="568.8" y="822.1666666666666"/>
      <point x="719.4666666666667" y="976.1666666666666" type="curve"/>
    </contour>
    <contour>
      <point x="691.1999999999999" y="976.1666666666666" type="line"/>
      <point x="760.1666666666666" y="822.1666666666666"/>
      <point x="633.6" y="648.6"/>
      <point x="682.6" y="538.9333333333334" type="curve" smooth="yes"/>
      <point x="716.1333333333333" y="464.90000000000003"/>
      <point x="802.3000000000001" y="466.03333333333336"/>
      <point x="913.4333333333333" y="534.8333333333333" type="curve" smooth="yes"/>
      <point x="1031.8666666666668" y="607.6666666666667"/>
      <point x="1073.0333333333333" y="684.1"/>
      <point x="1039.7333333333331" y="757.9" type="curve" smooth="yes"/>
      <point x="990.2333333333333" y="866.8333333333334"/>
      <point x="795.5333333333334" y="843.7333333333333"/>
      <point x="725.3333333333334" y="997.5" type="curve"/>
    </contour>
  </outline>
</glyph>
<glyph name="plus" format="2">
  <advance width="1101.3666666666666"/>
  <unicode hex="002B"/>
  <outline>
    <contour>
      <point x="481.6333333333333" y="224.56666666666666" type="curve" smooth="yes"/>
      <point x="533.2666666666667" y="223.83333333333334"/>
      <point x="571.1666666666666" y="254.29999999999998"/>
      <point x="581.3333333333333" y="290.26666666666665" type="curve" smooth="yes"/>
      <point x="788.9999999999999" y="1076.5333333333333" type="line" smooth="yes"/>
      <point x="798.6666666666667" y="1112.3000000000002"/>
      <point x="778.5666666666666" y="1143.2"/>
      <point x="726.6666666666666" y="1143.9333333333334" type="curve" smooth="yes"/>
      <point x="674.7666666666668" y="1144.1666666666667"/>
      <point x="634.3333333333333" y="1114.5"/>
      <point x="624.6666666666666" y="1078.2333333333333" type="curve" smooth="yes"/>
      <point x="417.23333333333335" y="293.23333333333335" type="line" smooth="yes"/>
      <point x="407.06666666666666" y="256.2333333333333"/>
      <point x="429.73333333333335" y="224.8"/>
    </contour>
    <component base="minus" xOffset="-14.533333333333331" yOffset="3.4"/>
  </outline>
</glyph>
<glyph name="comma" format="2">
  <advance width="625.7666666666667"/>
  <unicode hex="002C"/>
  <outline>
    <contour>
      <point x="158.26666666666668" y="7.199999999999999" type="curve" smooth="yes"/>
      <point x="229.26666666666665" y="-4.333333333333333" type="line" smooth="yes"/>
      <point x="277.7911238493283" y="-12.992190922484468"/>
      <point x="294.0" y="-22.266666666666666"/>
      <point x="294.0" y="-50.96666666666667" type="curve" smooth="yes"/>
      <point x="294.0" y="-101.4"/>
      <point x="209.73333333333335" y="-205.13333333333333"/>
      <point x="21.1" y="-280.0333333333333" type="curve" smooth="yes"/>
      <point x="-37.03333333333333" y="-304.40000000000003"/>
      <point x="-56.53333333333334" y="-333.6"/>
      <point x="-41.99999999999999" y="-366.8" type="curve" smooth="yes"/>
      <point x="-27.53333333333333" y="-399.40000000000003"/>
      <point x="15.6" y="-407.23333333333335"/>
      <point x="86.53333333333333" y="-378.9666666666667" type="curve" smooth="yes"/>
      <point x="344.2" y="-281.2666666666667"/>
      <point x="507.63333333333327" y="-65.46666666666667"/>
      <point x="507.63333333333327" y="167.46666666666667" type="curve"/>
      <point x="507.63333333333327" y="293.06666666666666"/>
      <point x="438.23333333333335" y="377.56666666666666"/>
      <point x="302.9" y="377.56666666666666" type="curve" smooth="yes"/>
      <point x="146.36666666666667" y="377.56666666666666"/>
      <point x="36.166666666666664" y="261.7"/>
      <point x="36.166666666666664" y="148.56666666666666" type="curve" smooth="yes"/>
      <point x="36.166666666666664" y="73.83333333333333"/>
      <point x="74.26666666666667" y="22.466666666666665"/>
    </contour>
  </outline>
</glyph>
<glyph name="hyphen" format="2">
  <advance width="695.4333333333334"/>
  <unicode hex="002D"/>
  <outline>
    <contour>
      <point x="626.5333333333334" y="651.0666666666666" type="curve" smooth="yes"/>
      <point x="179.2" y="651.0666666666666" type="line" smooth="yes"/>
      <point x="143.0666666666667" y="651.0666666666666"/>
      <point x="122.6" y="638.3333333333334"/>
      <point x="103.93333333333334" y="593.1333333333333" type="curve" smooth="yes"/>
      <point x="62.43333333333334" y="483.0333333333333" type="line" smooth="yes"/>
      <point x="42.4" y="435.53333333333336"/>
      <point x="55.9" y="412.1333333333333"/>
      <point x="99.73333333333333" y="412.1333333333333" type="curve" smooth="yes"/>
      <point x="546.5333333333334" y="412.1333333333333" type="line" smooth="yes"/>
      <point x="582.9333333333333" y="412.1333333333333"/>
      <point x="603.3666666666667" y="424.6"/>
      <point x="622.0666666666667" y="469.8" type="curve" smooth="yes"/>
      <point x="663.8333333333334" y="579.9000000000001" type="line" smooth="yes"/>
      <point x="683.8333333333333" y="627.4"/>
      <point x="670.3666666666667" y="651.0666666666666"/>
    </contour>
  </outline>
</glyph>
<glyph name="period" format="2">
  <advance width="607.7333333333332"/>
  <unicode hex="002E"/>
  <outline>
    <contour>
      <point x="215.89999999999998" y="-21.533333333333335" type="curve" smooth="yes"/>
      <point x="390.4" y="-21.533333333333335"/>
      <point x="499.96666666666664" y="83.8"/>
      <point x="499.96666666666664" y="202.96666666666664" type="curve" smooth="yes"/>
      <point x="499.96666666666664" y="298.56666666666666"/>
      <point x="437.59999999999997" y="370.53333333333336"/>
      <point x="305.53333333333336" y="370.53333333333336" type="curve" smooth="yes"/>
      <point x="128.36666666666667" y="370.53333333333336"/>
      <point x="15.466666666666669" y="261.7"/>
      <point x="15.466666666666669" y="139.93333333333334" type="curve" smooth="yes"/>
      <point x="15.466666666666669" y="47.333333333333336"/>
      <point x="85.23333333333332" y="-21.533333333333335"/>
    </contour>
  </outline>
</glyph>
<glyph name="slash" format="2">
  <advance width="890.1999999999999"/>
  <unicode hex="002F"/>
  <outline>
    <contour>
      <point x="543.2333333333333" y="597.9" type="curve" smooth="yes"/>
      <point x="660.7460297222167" y="806.6264676186237"/>
      <point x="901.4258988153476" y="1207.6833898671987"/>
      <point x="1012.1333333333333" y="1407.7333333333333" type="curve" smooth="yes"/>
      <point x="1047.8999999999999" y="1471.1"/>
      <point x="1042.3" y="1518.4"/>
      <point x="991.4000000000001" y="1538.3" type="curve" smooth="yes"/>
      <point x="938.0333333333334" y="1558.9"/>
      <point x="890.0333333333334" y="1531.9333333333334"/>
      <point x="856.3333333333334" y="1474.9666666666665" type="curve" smooth="yes"/>
      <point x="753.8666666666667" y="1288.4"/>
      <point x="538.3799628192186" y="858.1219790655333"/>
      <point x="418.53333333333336" y="643.4333333333334" type="curve" smooth="yes"/>
      <point x="298.95577722617696" y="428.07690089002983"/>
      <point x="37.5" y="14.600000000000001"/>
      <point x="-66.8" y="-175.46666666666667" type="curve" smooth="yes"/>
      <point x="-104.1" y="-238.6"/>
      <point x="-96.16666666666667" y="-285.8666666666667"/>
      <point x="-45.0" y="-306.03333333333336" type="curve" smooth="yes"/>
      <point x="6.5" y="-327.1666666666667"/>
      <point x="54.76666666666667" y="-300.96666666666664"/>
      <point x="88.43333333333334" y="-242.50000000000003" type="curve" smooth="yes"/>
      <point x="200.63333333333333" y="-37.733333333333334"/>
      <point x="425.27713043957823" y="385.8561470284697"/>
    </contour>
  </outline>
</glyph>
<glyph name="zero" format="2">
  <advance width="1383.6"/>
  <unicode hex="0030"/>
  <outline>
    <contour>
      <point x="938.0260700617596" y="1425.7333333333333" type="curve" smooth="yes"/>
      <point x="540.4927367284263" y="1425.7333333333333"/>
      <point x="229.38040311277035" y="1152.1014710224138"/>
      <point x="122.21929357580231" y="718.0333333333333" type="curve" smooth="yes"/>
      <point x="15.349183514569944" y="285.3666666666667"/>
      <point x="157.64059660490702" y="-23.799999999999997"/>
      <point x="572.5072632715737" y="-23.799999999999997" type="curve" smooth="yes"/>
      <point x="935.9405966049071" y="-23.799999999999997"/>
      <point x="1260.936854665946" y="223.86666666666667"/>
      <point x="1377.1603421817815" y="689.3333333333334" type="curve" smooth="yes"/>
      <point x="1482.7212679465888" y="1115.7308204066092"/>
      <point x="1334.759403395093" y="1425.7333333333333"/>
    </contour>
    <contour>
      <point x="924.467417212134" y="698.3666666666667" type="curve" smooth="yes"/>
      <point x="823.9127405155181" y="292.99126300095884"/>
      <point x="703.2184605948768" y="111.93333333333332"/>
      <point x="597.242848241309" y="111.93333333333332" type="curve" smooth="yes"/>
      <point x="469.86637765307376" y="111.93333333333332"/>
      <point x="464.5443902272077" y="262.88087878518814"/>
      <point x="579.2322626667194" y="726.2" type="curve" smooth="yes"/>
      <point x="669.6463743069328" y="1091.027642006777"/>
      <point x="788.5614252629646" y="1289.7333333333333"/>
      <point x="902.257151758691" y="1289.7333333333333" type="curve" smooth="yes"/>
      <point x="1029.4857231872625" y="1289.7333333333333"/>
      <point x="1030.9875060178406" y="1132.818728265212"/>
    </contour>
  </outline>
</glyph>
<glyph name="one" format="2">
  <advance width="910.1666666666667"/>
  <unicode hex="0031"/>
  <outline>
    <contour>
      <point x="329.66666666666663" y="1165.5333333333333" type="line" smooth="yes"/>
      <point x="277.4" y="1165.5333333333333"/>
      <point x="257.06666666666666" y="1195.6666666666665"/>
      <point x="265.8666666666667" y="1240.3333333333333" type="curve" smooth="yes"/>
      <point x="274.4" y="1287.7"/>
      <point x="308.20000000000005" y="1327.1333333333334"/>
      <point x="376.9666666666667" y="1327.1333333333334" type="curve" smooth="yes"/>
      <point x="470.4" y="1327.1333333333334" type="line" smooth="yes"/>
      <point x="617.2526806526806" y="1327.1333333333334"/>
      <point x="688.6480969764638" y="1353.2531771378312"/>
      <point x="782.0666666666667" y="1399.2" type="curve" smooth="yes"/>
      <point x="820.515293693642" y="1416.2589353925132"/>
      <point x="845.5333333333334" y="1425.9333333333334"/>
      <point x="869.9" y="1425.9333333333334" type="curve" smooth="yes"/>
      <point x="920.2333333333332" y="1425.9333333333334"/>
      <point x="944.4333333333334" y="1398.8333333333335"/>
      <point x="929.6666666666667" y="1345.1" type="curve" smooth="yes"/>
      <point x="636.6333333333333" y="232.86666666666667" type="line" smooth="yes"/>
      <point x="624.3635674994667" y="188.34112813226415"/>
      <point x="625.3666666666667" y="164.26666666666668"/>
      <point x="665.3666666666667" y="155.16666666666669" type="curve" smooth="yes"/>
      <point x="743.7666666666667" y="139.5" type="line" smooth="yes"/>
      <point x="777.2149200005787" y="130.6781333331606"/>
      <point x="790.4333333333333" y="109.0"/>
      <point x="790.4333333333333" y="78.96666666666667" type="curve" smooth="yes"/>
      <point x="790.4333333333333" y="28.62418300653595"/>
      <point x="754.8333333333334" y="0.0"/>
      <point x="702.2666666666667" y="0.0" type="curve" smooth="yes"/>
      <point x="55.03333333333333" y="0.0" type="line" smooth="yes"/>
      <point x="1.3666666666666654" y="0.0"/>
      <point x="-19.466666666666665" y="24.866666666666664"/>
      <point x="-19.466666666666665" y="67.53333333333335" type="curve" smooth="yes"/>
      <point x="-19.466666666666665" y="106.1"/>
      <point x="5.199999999999999" y="133.76666666666665"/>
      <point x="45.833333333333336" y="143.16666666666669" type="curve" smooth="yes"/>
      <point x="140.0" y="160.23333333333335" type="line" smooth="yes"/>
      <point x="171.70000000000002" y="167.06666666666666"/>
      <point x="191.4457887520131" y="189.4177388003669"/>
      <point x="204.96666666666667" y="237.23333333333332" type="curve" smooth="yes"/>
      <point x="429.6333333333333" y="1077.0666666666668" type="line" smooth="yes"/>
      <point x="448.85166915029436" y="1145.8297537582341"/>
      <point x="437.02978723404254" y="1165.5333333333333"/>
      <point x="392.6" y="1165.5333333333333" type="curve" smooth="yes"/>
    </contour>
  </outline>
</glyph>
<glyph name="two" format="2">
  <advance width="1259.6333333333332"/>
  <unicode hex="0032"/>
  <outline>
    <contour>
      <point x="234.23333333333332" y="333.8" type="line"/>
      <point x="617.4333333333333" y="471.96666666666664" type="line" smooth="yes"/>
      <point x="1053.5225978895153" y="628.4348960021495"/>
      <point x="1266.4184969283212" y="795.9503093969881"/>
      <point x="1321.1333333333334" y="1004.6" type="curve" smooth="yes"/>
      <point x="1388.1720571911926" y="1258.5850558197203"/>
      <point x="1261.8666666666666" y="1430.0"/>
      <point x="907.9666666666666" y="1430.0" type="curve" smooth="yes"/>
      <point x="524.1999999999999" y="1430.0"/>
      <point x="303.25051851955567" y="1239.734019208231"/>
      <point x="249.8" y="1038.0" type="curve" smooth="yes"/>
      <point x="214.4" y="905.4000000000001"/>
      <point x="272.4" y="827.0333333333333"/>
      <point x="396.06666666666666" y="827.0333333333333" type="curve"/>
      <point x="514.7666666666667" y="827.0333333333333"/>
      <point x="612.7666666666668" y="906.0666666666666"/>
      <point x="646.0333333333333" y="1031.7666666666667" type="curve" smooth="yes"/>
      <point x="678.0" y="1151.3666666666668" type="line" smooth="yes"/>
      <point x="706.0364948939242" y="1257.0551622891403"/>
      <point x="752.3333333333333" y="1316.3666666666666"/>
      <point x="828.0" y="1316.3666666666666" type="curve" smooth="yes"/>
      <point x="898.8" y="1316.3666666666666"/>
      <point x="919.2333333333333" y="1235.0"/>
      <point x="859.7666666666667" y="1009.5333333333333" type="curve" smooth="yes"/>
      <point x="791.2" y="747.1999999999999"/>
      <point x="633.8" y="576.3666666666667"/>
      <point x="380.59999999999997" y="474.3" type="curve" smooth="yes"/>
      <point x="210.2" y="402.5" type="line"/>
    </contour>
    <contour>
      <point x="-6.266666666666666" y="174.5" type="curve" smooth="yes"/>
      <point x="-38.03333333333333" y="50.46666666666667"/>
      <point x="13.133333333333331" y="-28.799999999999997"/>
      <point x="119.86666666666666" y="-28.799999999999997" type="curve" smooth="yes"/>
      <point x="236.7" y="-28.799999999999997"/>
      <point x="320.1333333333333" y="30.266666666666666"/>
      <point x="388.16666666666663" y="214.60000000000002" type="curve" smooth="yes"/>
      <point x="414.14552325554587" y="283.1625316529335"/>
      <point x="438.1666666666667" y="308.6333333333333"/>
      <point x="462.76666666666665" y="308.6333333333333" type="curve" smooth="yes"/>
      <point x="489.26666666666665" y="308.6333333333333"/>
      <point x="495.38958041009647" y="291.3406644636979"/>
      <point x="498.7" y="243.86666666666667" type="curve" smooth="yes"/>
      <point x="511.79999999999995" y="36.26666666666667"/>
      <point x="586.4666666666667" y="-28.799999999999997"/>
      <point x="758.9333333333333" y="-28.799999999999997" type="curve" smooth="yes"/>
      <point x="949.6333333333333" y="-28.799999999999997"/>
      <point x="1104.2333333333333" y="98.0"/>
      <point x="1214.7666666666667" y="428.8" type="curve" smooth="yes"/>
      <point x="1240.7333333333333" y="501.83333333333337"/>
      <point x="1223.8" y="531.9333333333333"/>
      <point x="1182.0" y="534.3000000000001" type="curve" smooth="yes"/>
      <point x="1155.5666666666668" y="535.8666666666667"/>
      <point x="1127.7666666666667" y="520.9333333333333"/>
      <point x="1097.9666666666667" y="480.03333333333336" type="curve" smooth="yes"/>
      <point x="1044.2666666666667" y="397.3"/>
      <point x="988.3333333333334" y="368.8666666666666"/>
      <point x="909.8333333333333" y="368.8666666666666" type="curve" smooth="yes"/>
      <point x="762.5666666666666" y="368.8666666666666"/>
      <point x="605.1999999999999" y="440.8666666666667"/>
      <point x="414.79999999999995" y="440.8666666666667" type="curve" smooth="yes"/>
      <point x="186.76666666666665" y="440.8666666666667"/>
      <point x="35.5" y="336.6666666666667"/>
    </contour>
  </outline>
</glyph>
<glyph name="three" format="2">
  <advance width="1170.2333333333333"/>
  <unicode hex="0033"/>
  <outline>
    <contour>
      <point x="631.192" y="728.7333333333333" type="line"/>
      <point x="1245.752" y="1204.7333333333333" type="line" smooth="yes"/>
      <point x="1320.372" y="1259.1999999999998"/>
      <point x="1353.3726666666666" y="1292.6000000000001"/>
      <point x="1360.3059999999998" y="1330.0666666666666" type="curve" smooth="yes"/>
      <point x="1369.3726666666669" y="1370.9333333333334"/>
      <point x="1344.9626666666668" y="1400.0"/>
      <point x="1290.7900000000002" y="1400.0" type="curve" smooth="yes"/>
      <point x="501.9533333333333" y="1400.0" type="line" smooth="yes"/>
      <point x="436.29466666666667" y="1400.0"/>
      <point x="387.3506666666667" y="1364.8333333333333"/>
      <point x="366.05466666666666" y="1307.9666666666667" type="curve" smooth="yes"/>
      <point x="236.58666666666667" y="952.5333333333333" type="line" smooth="yes"/>
      <point x="215.70533333333336" y="896.9666666666666"/>
      <point x="240.76733333333337" y="870.1666666666667"/>
      <point x="286.006" y="869.6666666666667" type="curve" smooth="yes"/>
      <point x="332.44466666666665" y="869.4333333333334"/>
      <point x="362.9926666666667" y="896.0666666666667"/>
      <point x="383.80266666666665" y="936.3666666666667" type="curve" smooth="yes"/>
      <point x="416.6366666666667" y="1000.4333333333333" type="line" smooth="yes"/>
      <point x="437.704" y="1042.4333333333332"/>
      <point x="467.74800000000005" y="1058.9"/>
      <point x="522.4126666666666" y="1058.9" type="curve" smooth="yes"/>
      <point x="1019.6886666666667" y="1058.9" type="line"/>
      <point x="1043.7713333333334" y="1190.9666666666667" type="line"/>
      <point x="528.4526666666667" y="803.4666666666667" type="line" smooth="yes"/>
      <point x="483.38933333333335" y="770.3333333333334"/>
      <point x="457.19800000000004" y="739.3333333333333"/>
      <point x="450.798" y="702.2" type="curve" smooth="yes"/>
      <point x="441.19800000000004" y="656.9000000000001"/>
      <point x="465.71733333333333" y="635.0666666666666"/>
      <point x="515.4086666666667" y="635.0666666666666" type="curve" smooth="yes"/>
      <point x="571.4213333333332" y="635.0666666666666" type="line" smooth="yes"/>
      <point x="678.5286666666667" y="635.0666666666666"/>
      <point x="725.1726666666667" y="553.3333333333333"/>
      <point x="671.604" y="353.7" type="curve" smooth="yes"/>
      <point x="621.0593333333335" y="165.03333333333333"/>
      <point x="544.4693333333333" y="88.03333333333335"/>
      <point x="460.56600000000003" y="88.03333333333335" type="curve" smooth="yes"/>
      <point x="382.9333333333333" y="88.03333333333335"/>
      <point x="351.9526666666667" y="136.1"/>
      <point x="374.5466666666667" y="221.23333333333332" type="curve" smooth="yes"/>
      <point x="395.8486666666667" y="296.4666666666667" type="line" smooth="yes"/>
      <point x="427.29466666666667" y="410.9666666666667"/>
      <point x="375.1553333333334" y="496.70000000000005"/>
      <point x="247.69133333333335" y="496.70000000000005" type="curve" smooth="yes"/>
      <point x="126.99200000000002" y="496.70000000000005"/>
      <point x="24.960666666666683" y="406.1333333333333"/>
      <point x="8.16066666666668" y="275.6666666666667" type="curve" smooth="yes"/>
      <point x="-16.639333333333322" y="106.96666666666667"/>
      <point x="114.21066666666668" y="-28.799999999999997"/>
      <point x="431.80533333333335" y="-28.799999999999997" type="curve" smooth="yes"/>
      <point x="780.0373333333334" y="-28.799999999999997"/>
      <point x="1038.6806666666666" y="131.6"/>
      <point x="1109.7920000000001" y="393.5" type="curve" smooth="yes"/>
      <point x="1175.4759999999999" y="632.7666666666667"/>
      <point x="1031.2813333333334" y="791.4"/>
      <point x="748.026" y="783.6666666666666" type="curve" smooth="yes"/>
      <point x="691.424" y="783.1666666666666"/>
      <point x="644.2446666666667" y="776.0"/>
      <point x="603.4766666666667" y="763.0333333333333" type="curve"/>
    </contour>
  </outline>
</glyph>
<glyph name="four" format="2">
  <advance width="1224.1"/>
  <unicode hex="0034"/>
  <outline>
    <contour>
      <point x="617.6666666666666" y="592.6666666666666" type="curve" smooth="yes"/>
      <point x="520.4666666666666" y="237.23333333333332" type="line" smooth="yes"/>
      <point x="508.13333333333327" y="191.60000000000002"/>
      <point x="487.93333333333334" y="169.8"/>
      <point x="455.4666666666667" y="162.4" type="curve" smooth="yes"/>
      <point x="368.1333333333333" y="143.39999999999998" type="line" smooth="yes"/>
      <point x="326.16666666666663" y="133.36666666666667"/>
      <point x="298.03333333333336" y="106.86666666666666"/>
      <point x="291.1" y="69.36666666666667" type="curve" smooth="yes"/>
      <point x="282.8333333333333" y="25.66666666666667"/>
      <point x="302.33333333333337" y="0.23333333333333334"/>
      <point x="357.06666666666666" y="0.23333333333333334" type="curve" smooth="yes"/>
      <point x="975.9333333333334" y="0.23333333333333334" type="line" smooth="yes"/>
      <point x="1031.4333333333332" y="0.23333333333333334"/>
      <point x="1065.4333333333332" y="27.599999999999998"/>
      <point x="1073.7" y="73.6" type="curve" smooth="yes"/>
      <point x="1080.6333333333334" y="107.76666666666667"/>
      <point x="1064.7333333333333" y="128.26666666666665"/>
      <point x="1028.1" y="142.66666666666669" type="curve" smooth="yes"/>
      <point x="968.9" y="161.26666666666665" type="line" smooth="yes"/>
      <point x="938.7185654623956" y="171.13520519881823"/>
      <point x="929.3921368652589" y="191.30983886787894"/>
      <point x="940.9333333333333" y="233.1" type="curve" smooth="yes"/>
      <point x="1121.5" y="913.6333333333333" type="line" smooth="yes"/>
      <point x="1132.8950922317915" y="954.6763401435007"/>
      <point x="1119.0" y="971.9"/>
      <point x="1091.3333333333335" y="971.9" type="curve" smooth="yes"/>
      <point x="1068.7666666666667" y="971.9"/>
      <point x="1048.6666666666667" y="964.7666666666667"/>
      <point x="1004.3666666666667" y="932.6666666666667" type="curve" smooth="yes"/>
      <point x="677.2666666666667" y="679.4666666666667" type="line" smooth="yes"/>
      <point x="647.1333333333333" y="657.6999999999999"/>
      <point x="628.5666666666666" y="631.3"/>
    </contour>
    <contour>
      <point x="444.1666666666667" y="802.2" type="curve" smooth="yes"/>
      <point x="69.80000000000001" y="514.3" type="line" smooth="yes"/>
      <point x="10.733333333333333" y="473.3333333333333"/>
      <point x="-11.333333333333332" y="440.6333333333333"/>
      <point x="-16.4" y="407.8666666666667" type="curve" smooth="yes"/>
      <point x="-25.733333333333334" y="363.43333333333334"/>
      <point x="-4.733333333333334" y="332.09999999999997"/>
      <point x="45.56666666666668" y="332.09999999999997" type="curve" smooth="yes"/>
      <point x="1097.3333333333335" y="332.09999999999997" type="line" smooth="yes"/>
      <point x="1153.5666666666666" y="332.09999999999997"/>
      <point x="1186.1999999999998" y="362.2549019607843"/>
      <point x="1195.5333333333333" y="410.8666666666667" type="curve" smooth="yes"/>
      <point x="1203.477665894404" y="453.6042862253135"/>
      <point x="1177.3333333333333" y="473.79999999999995"/>
      <point x="1133.4666666666667" y="473.79999999999995" type="curve" smooth="yes"/>
      <point x="115.36666666666666" y="473.79999999999995" type="line"/>
      <point x="126.43333333333334" y="406.03333333333336" type="line"/>
      <point x="803.3666666666667" y="924.2" type="line" smooth="yes"/>
      <point x="1017.2666666666665" y="1083.7333333333331"/>
      <point x="1078.3000000000002" y="1181.0"/>
      <point x="1088.9666666666667" y="1275.4666666666667" type="curve" smooth="yes"/>
      <point x="1106.8333333333333" y="1388.2333333333333"/>
      <point x="1032.2333333333333" y="1453.5666666666666"/>
      <point x="895.9" y="1453.5666666666666" type="curve" smooth="yes"/>
      <point x="727.0333333333333" y="1453.5666666666666"/>
      <point x="615.0666666666667" y="1367.7"/>
      <point x="580.2" y="1239.2" type="curve" smooth="yes"/>
      <point x="548.8" y="1120.9333333333334"/>
      <point x="614.3333333333334" y="1051.4333333333334"/>
      <point x="590.7333333333333" y="967.3666666666667" type="curve" smooth="yes"/>
      <point x="576.9666666666667" y="915.4333333333333"/>
      <point x="531.1333333333333" y="865.6333333333333"/>
    </contour>
  </outline>
</glyph>
<glyph name="five" format="2">
  <advance width="1177.6666666666667"/>
  <unicode hex="0035"/>
  <outline>
    <contour>
      <point x="15.388023333333336" y="267.8333333333333" type="curve" smooth="yes"/>
      <point x="-8.878643333333326" y="105.8"/>
      <point x="117.89968999999999" y="-28.799999999999997"/>
      <point x="425.11646333333334" y="-28.799999999999997" type="curve" smooth="yes"/>
      <point x="765.9174366666667" y="-28.799999999999997"/>
      <point x="1029.5371433333332" y="130.5333333333333"/>
      <point x="1107.2385299999999" y="406.8" type="curve" smooth="yes"/>
      <point x="1182.595906562124" y="676.2638529151617"/>
      <point x="1025.1552766666666" y="849.3666666666667"/>
      <point x="730.49757" y="849.3666666666667" type="curve" smooth="yes"/>
      <point x="557.6491966666666" y="849.3666666666667"/>
      <point x="449.91214333333335" y="810.9666666666667"/>
      <point x="296.82318333333336" y="702.2666666666667" type="curve"/>
      <point x="350.6287966666667" y="679.4333333333334" type="line"/>
      <point x="496.6332099999999" y="1211.1999999999998" type="line"/>
      <point x="359.63087666666667" y="1078.3333333333333" type="line"/>
      <point x="453.19750422233795" y="1025.3705581683084"/>
      <point x="613.1328924824943" y="977.9666666666667"/>
      <point x="777.91431" y="977.9666666666667" type="curve" smooth="yes"/>
      <point x="1050.9309766666668" y="977.9666666666667"/>
      <point x="1230.5229766666666" y="1081.7333333333333"/>
      <point x="1330.9903100000001" y="1351.8999999999999" type="curve" smooth="yes"/>
      <point x="1352.2429766666667" y="1404.8000000000002"/>
      <point x="1340.71431" y="1425.3666666666666"/>
      <point x="1321.1329766666665" y="1431.4333333333334" type="curve" smooth="yes"/>
      <point x="1300.4849766666666" y="1439.1000000000001"/>
      <point x="1277.2749766666668" y="1427.9333333333332"/>
      <point x="1248.3409766666666" y="1411.8333333333335" type="curve" smooth="yes"/>
      <point x="1180.7196433333334" y="1362.2666666666667"/>
      <point x="1083.81231" y="1339.6999999999998"/>
      <point x="944.0616433333333" y="1339.6999999999998" type="curve" smooth="yes"/>
      <point x="829.819379069209" y="1339.6999999999998"/>
      <point x="707.7558198722165" y="1372.5714501608516"/>
      <point x="600.5392633333333" y="1407.0333333333333" type="curve" smooth="yes"/>
      <point x="569.84453" y="1416.0333333333333"/>
      <point x="539.4313166666667" y="1422.2666666666667"/>
      <point x="510.19401" y="1422.2666666666667" type="curve" smooth="yes"/>
      <point x="436.35670333333337" y="1422.2666666666667"/>
      <point x="394.64547666666664" y="1381.6666666666667"/>
      <point x="375.34910333333335" y="1315.2666666666667" type="curve" smooth="yes"/>
      <point x="193.7597966666667" y="642.3333333333334" type="line" smooth="yes"/>
      <point x="180.55418333333333" y="594.3666666666667"/>
      <point x="205.05979666666667" y="572.2333333333333"/>
      <point x="243.16739666666666" y="572.2333333333333" type="curve" smooth="yes"/>
      <point x="274.22318333333334" y="572.2333333333333"/>
      <point x="296.6400233333334" y="583.9"/>
      <point x="345.8090233333333" y="607.4333333333334" type="curve" smooth="yes"/>
      <point x="430.21741000000003" y="663.7333333333333"/>
      <point x="494.4307166666667" y="687.8666666666666"/>
      <point x="552.2321033333333" y="687.8666666666666" type="curve" smooth="yes"/>
      <point x="672.1542833333333" y="687.8666666666666"/>
      <point x="730.6069191349832" y="589.9263524053245"/>
      <point x="668.25629" y="360.53333333333336" type="curve" smooth="yes"/>
      <point x="613.44005" y="156.06666666666666"/>
      <point x="541.9086100000001" y="88.03333333333335"/>
      <point x="463.9699166666667" y="88.03333333333335" type="curve" smooth="yes"/>
      <point x="389.86257000000006" y="88.03333333333335"/>
      <point x="358.9301833333334" y="137.73333333333332"/>
      <point x="381.58830333333333" y="220.46666666666667" type="curve" smooth="yes"/>
      <point x="403.4942633333333" y="297.09999999999997" type="line" smooth="yes"/>
      <point x="436.87647666666663" y="414.96666666666664"/>
      <point x="385.83813" y="496.9333333333334"/>
      <point x="260.46540999999996" y="496.9333333333334" type="curve" smooth="yes"/>
      <point x="140.32473" y="496.9333333333334"/>
      <point x="32.98802333333334" y="403.9"/>
    </contour>
  </outline>
</glyph>
<glyph name="six" format="2">
  <advance width="1280.9666666666667"/>
  <unicode hex="0036"/>
  <outline>
    <contour>
      <point x="973.9333333333333" y="1430.0" type="curve" smooth="yes"/>
      <point x="584.7455089820359" y="1430.0"/>
      <point x="256.3666666666667" y="1172.8333333333335"/>
      <point x="132.16666666666666" y="725.1666666666666" type="curve" smooth="yes"/>
      <point x="8.333333333333334" y="278.09999999999997"/>
      <point x="160.13333333333333" y="-28.799999999999997"/>
      <point x="553.5666666666666" y="-28.799999999999997" type="curve" smooth="yes"/>
      <point x="890.2333333333332" y="-28.799999999999997"/>
      <point x="1138.3666666666668" y="129.03333333333333"/>
      <point x="1210.0333333333333" y="392.43333333333334" type="curve" smooth="yes"/>
      <point x="1289.0333333333333" y="680.9333333333334"/>
      <point x="1152.8666666666668" y="856.2666666666668"/>
      <point x="896.7666666666667" y="856.2666666666668" type="curve" smooth="yes"/>
      <point x="676.0999999999999" y="856.2666666666668"/>
      <point x="487.73333333333335" y="736.6"/>
      <point x="424.9666666666667" y="573.6333333333333" type="curve"/>
      <point x="479.76666666666665" y="528.2666666666667" type="line"/>
      <point x="527.4" y="629.5"/>
      <point x="623.2333333333332" y="692.0999999999999"/>
      <point x="703.8666666666666" y="692.0999999999999" type="curve" smooth="yes"/>
      <point x="798.2666666666667" y="692.0999999999999"/>
      <point x="841.3333333333333" y="601.7333333333333"/>
      <point x="787.9666666666667" y="393.09999999999997" type="curve" smooth="yes"/>
      <point x="736.9666666666667" y="197.53333333333333"/>
      <point x="664.4333333333333" y="103.43333333333334"/>
      <point x="572.4" y="103.43333333333334" type="curve" smooth="yes"/>
      <point x="471.09999999999997" y="103.43333333333334"/>
      <point x="435.0" y="213.03333333333333"/>
      <point x="554.0333333333333" y="649.6999999999999" type="curve" smooth="yes"/>
      <point x="684.6333333333333" y="1132.9333333333334"/>
      <point x="801.4666666666666" y="1297.7666666666667"/>
      <point x="908.6" y="1297.7666666666667" type="curve" smooth="yes"/>
      <point x="976.5666666666666" y="1297.7666666666667"/>
      <point x="999.5333333333332" y="1257.6333333333334"/>
      <point x="978.1333333333333" y="1180.4333333333332" type="curve" smooth="yes"/>
      <point x="961.9666666666666" y="1123.1333333333334" type="line" smooth="yes"/>
      <point x="927.4" y="1001.9"/>
      <point x="980.8333333333333" y="925.6333333333333"/>
      <point x="1122.9333333333334" y="925.6333333333333" type="curve" smooth="yes"/>
      <point x="1242.6333333333332" y="925.6333333333333"/>
      <point x="1343.7" y="998.6666666666666"/>
      <point x="1368.3333333333333" y="1125.5" type="curve" smooth="yes"/>
      <point x="1398.7333333333333" y="1282.5666666666666"/>
      <point x="1264.4666666666667" y="1430.0"/>
    </contour>
  </outline>
</glyph>
<glyph name="seven" format="2">
  <advance width="1101.4333333333334"/>
  <unicode hex="0037"/>
  <outline>
    <contour>
      <point x="953.7333333333333" y="1055.8" type="line"/>
      <point x="686.0333333333333" y="816.6666666666667" type="line" smooth="yes"/>
      <point x="414.2" y="593.4666666666666"/>
      <point x="221.8658268832016" y="419.5704600456247"/>
      <point x="174.4333333333333" y="248.83333333333334" type="curve" smooth="yes"/>
      <point x="125.33333333333333" y="71.26666666666665"/>
      <point x="202.9" y="-31.93333333333333"/>
      <point x="376.9333333333333" y="-31.93333333333333" type="curve" smooth="yes"/>
      <point x="545.2666666666667" y="-31.93333333333333"/>
      <point x="666.9000000000001" y="73.16666666666667"/>
      <point x="701.0666666666666" y="197.23333333333332" type="curve" smooth="yes"/>
      <point x="744.3" y="355.3"/>
      <point x="658.9408124086834" y="437.4018514491474"/>
      <point x="699.4333333333334" y="579.7666666666667" type="curve" smooth="yes"/>
      <point x="727.9626230600923" y="681.2071861611448"/>
      <point x="771.5" y="739.5333333333333"/>
      <point x="943.5" y="877.0333333333333" type="curve" smooth="yes"/>
      <point x="1228.1666666666667" y="1164.2666666666667" type="line" smooth="yes"/>
      <point x="1307.8666666666668" y="1227.3333333333335"/>
      <point x="1333.5" y="1268.2"/>
      <point x="1342.1666666666665" y="1306.1" type="curve" smooth="yes"/>
      <point x="1357.1" y="1361.9333333333334"/>
      <point x="1329.2666666666667" y="1400.0"/>
      <point x="1255.5666666666666" y="1400.0" type="curve" smooth="yes"/>
      <point x="449.06666666666666" y="1400.0" type="line" smooth="yes"/>
      <point x="390.46666666666664" y="1400.0"/>
      <point x="346.79999999999995" y="1362.3"/>
      <point x="325.8" y="1305.4333333333334" type="curve" smooth="yes"/>
      <point x="172.66666666666666" y="904.7" type="line" smooth="yes"/>
      <point x="153.13333333333333" y="850.9666666666667"/>
      <point x="171.70000000000002" y="822.3333333333333"/>
      <point x="222.06666666666666" y="822.0999999999999" type="curve" smooth="yes"/>
      <point x="266.8333333333333" y="821.5999999999999"/>
      <point x="299.3666666666667" y="846.9666666666667"/>
      <point x="320.93333333333334" y="887.7666666666667" type="curve" smooth="yes"/>
      <point x="370.09999999999997" y="973.9666666666667" type="line" smooth="yes"/>
      <point x="392.6333333333333" y="1015.7333333333333"/>
      <point x="413.1666666666667" y="1031.1333333333334"/>
      <point x="470.23333333333335" y="1031.1333333333334" type="curve" smooth="yes"/>
      <point x="1005.7" y="1031.1333333333334" type="line"/>
    </contour>
  </outline>
</glyph>
<glyph name="eight" format="2">
  <advance width="1228.5333333333333"/>
  <unicode hex="0038"/>
  <outline>
    <contour>
      <point x="454.59999999999997" y="-28.266666666666666" type="curve" smooth="yes"/>
      <point x="828.9" y="-28.266666666666666"/>
      <point x="1080.3333333333333" y="126.10000000000001"/>
      <point x="1139.5666666666666" y="346.1" type="curve" smooth="yes"/>
      <point x="1190.0666666666666" y="529.7666666666667"/>
      <point x="1100.0" y="659.3333333333334"/>
      <point x="858.1666666666666" y="773.9666666666667" type="curve" smooth="yes"/>
      <point x="667.4" y="862.9"/>
      <point x="591.1666666666667" y="965.1333333333333"/>
      <point x="638.1666666666666" y="1128.6" type="curve" smooth="yes"/>
      <point x="668.6666666666666" y="1233.6"/>
      <point x="745.0666666666666" y="1307.9"/>
      <point x="845.6" y="1307.9" type="curve" smooth="yes"/>
      <point x="967.8666666666667" y="1307.9"/>
      <point x="1000.2333333333332" y="1205.1333333333332"/>
      <point x="943.7666666666667" y="1026.7" type="curve" smooth="yes"/>
      <point x="909.3000000000001" y="913.3000000000001"/>
      <point x="828.8333333333334" y="800.9333333333334"/>
      <point x="744.3000000000001" y="734.2666666666667" type="curve"/>
      <point x="762.6" y="697.9" type="line"/>
      <point x="1054.2002969934715" y="705.9333286066468"/>
      <point x="1274.3305702004627" y="845.000940410015"/>
      <point x="1326.9" y="1026.1333333333332" type="curve" smooth="yes"/>
      <point x="1396.4" y="1265.5666666666666"/>
      <point x="1231.5" y="1429.7666666666667"/>
      <point x="914.4666666666667" y="1429.7666666666667" type="curve" smooth="yes"/>
      <point x="519.7" y="1429.7666666666667"/>
      <point x="264.53333333333336" y="1224.7333333333333"/>
      <point x="210.46666666666667" y="1013.7666666666667" type="curve" smooth="yes"/>
      <point x="152.66666666666666" y="791.9333333333333"/>
      <point x="245.56666666666666" y="661.4666666666666"/>
      <point x="517.2666666666668" y="539.5" type="curve" smooth="yes"/>
      <point x="692.1" y="472.2"/>
      <point x="732.2333333333333" y="382.33333333333337"/>
      <point x="695.4333333333334" y="255.4666666666667" type="curve" smooth="yes"/>
      <point x="667.3000000000001" y="158.83333333333334"/>
      <point x="605.6333333333333" y="88.8"/>
      <point x="515.4333333333334" y="88.8" type="curve" smooth="yes"/>
      <point x="407.09999999999997" y="88.8"/>
      <point x="372.76666666666665" y="180.7"/>
      <point x="421.3333333333333" y="339.26666666666665" type="curve" smooth="yes"/>
      <point x="450.3333333333333" y="438.9"/>
      <point x="504.9666666666667" y="532.2"/>
      <point x="566.7333333333333" y="586.3" type="curve"/>
      <point x="575.6666666666666" y="617.4333333333333" type="line"/>
      <point x="275.06666666666666" y="612.9"/>
      <point x="76.7" y="492.7333333333333"/>
      <point x="31.83333333333333" y="332.06666666666666" type="curve" smooth="yes"/>
      <point x="-23.366666666666667" y="134.13333333333333"/>
      <point x="91.13333333333334" y="-28.266666666666666"/>
    </contour>
  </outline>
</glyph>
<glyph name="nine" format="2">
  <advance width="1270.7666666666667"/>
  <unicode hex="0039"/>
  <outline>
    <contour>
      <point x="432.8666666666667" y="-28.799999999999997" type="curve" smooth="yes"/>
      <point x="825.1333333333333" y="-28.799999999999997"/>
      <point x="1149.1333333333334" y="222.76666666666668"/>
      <point x="1272.5" y="670.4333333333333" type="curve" smooth="yes"/>
      <point x="1399.0333333333333" y="1128.4333333333334"/>
      <point x="1242.6666666666667" y="1430.0"/>
      <point x="852.9666666666667" y="1430.0" type="curve" smooth="yes"/>
      <point x="524.0333333333334" y="1430.0"/>
      <point x="263.1" y="1257.7666666666667"/>
      <point x="188.76666666666668" y="984.5" type="curve" smooth="yes"/>
      <point x="115.99122368992965" y="716.2079041700734"/>
      <point x="253.24602683178531" y="541.3333333333333"/>
      <point x="508.8666666666666" y="541.3333333333333" type="curve" smooth="yes"/>
      <point x="729.5333333333333" y="541.3333333333333"/>
      <point x="917.3666666666667" y="661.0"/>
      <point x="980.4" y="823.7" type="curve"/>
      <point x="925.3333333333334" y="869.3333333333334" type="line"/>
      <point x="877.4333333333334" y="768.0999999999999"/>
      <point x="782.1333333333333" y="705.5"/>
      <point x="701.7666666666667" y="705.5" type="curve" smooth="yes"/>
      <point x="612.842" y="705.5"/>
      <point x="563.7571840334804" y="795.8631024069063"/>
      <point x="617.7666666666667" y="1004.9" type="curve" smooth="yes"/>
      <point x="669.5666666666667" y="1203.3999999999999"/>
      <point x="742.6333333333333" y="1297.7666666666667"/>
      <point x="834.1333333333333" y="1297.7666666666667" type="curve" smooth="yes"/>
      <point x="935.7" y="1297.7666666666667"/>
      <point x="967.5333333333333" y="1172.9666666666667"/>
      <point x="851.9666666666666" y="749.6333333333333" type="curve" smooth="yes"/>
      <point x="721.9" y="267.4666666666667"/>
      <point x="608.8" y="103.43333333333334"/>
      <point x="497.93333333333334" y="103.43333333333334" type="curve" smooth="yes"/>
      <point x="428.88823529411764" y="103.43333333333334"/>
      <point x="405.6909880221255" y="143.40989852925898"/>
      <point x="427.26666666666665" y="221.03333333333333" type="curve" smooth="yes"/>
      <point x="443.43333333333334" y="278.3333333333333" type="line" smooth="yes"/>
      <point x="477.9666666666667" y="401.2"/>
      <point x="424.3" y="478.6333333333333"/>
      <point x="283.16666666666663" y="478.6333333333333" type="curve" smooth="yes"/>
      <point x="162.96666666666667" y="478.6333333333333"/>
      <point x="62.16666666666667" y="404.43333333333334"/>
      <point x="37.06666666666667" y="275.96666666666664" type="curve" smooth="yes"/>
      <point x="6.659442934392894" y="118.60245187786295"/>
      <point x="140.9916049382716" y="-28.799999999999997"/>
    </contour>
  </outline>
</glyph>
<glyph name="less" format="2">
  <advance width="1019.3666666666666"/>
  <unicode hex="003C"/>
  <outline>
    <contour>
      <point x="348.3" y="684.0333333333333" type="line"/>
      <point x="829.1" y="340.3666666666667" type="line" smooth="yes"/>
      <point x="871.3087919848828" y="311.68592404006176"/>
      <point x="883.7456251640643" y="280.71583398959086"/>
      <point x="875.4" y="249.73333333333335" type="curve" smooth="yes"/>
      <point x="864.2" y="208.06666666666666"/>
      <point x="836.2" y="187.0"/>
      <point x="784.2666666666667" y="187.0" type="curve" smooth="yes"/>
      <point x="741.2666666666667" y="187.0"/>
      <point x="705.0999999999999" y="208.83333333333334"/>
      <point x="651.1333333333333" y="242.63333333333333" type="curve" smooth="yes"/>
      <point x="189.83333333333334" y="556.4" type="line" smooth="yes"/>
      <point x="142.83333333333334" y="586.3000000000001"/>
      <point x="127.83333333333334" y="629.9666666666667"/>
      <point x="141.83333333333334" y="683.7666666666667" type="curve" smooth="yes"/>
      <point x="156.56666666666666" y="737.5333333333334"/>
      <point x="196.0" y="781.2"/>
      <point x="259.26666666666665" y="811.0999999999999" type="curve" smooth="yes"/>
      <point x="880.0333333333333" y="1123.8999999999999" type="line" smooth="yes"/>
      <point x="953.0666666666666" y="1158.4333333333334"/>
      <point x="997.0999999999999" y="1180.0666666666666"/>
      <point x="1039.3999999999999" y="1180.0666666666666" type="curve" smooth="yes"/>
      <point x="1087.2" y="1180.0666666666666"/>
      <point x="1108.1" y="1133.0333333333333"/>
      <point x="1092.5666666666666" y="1081.4666666666667" type="curve" smooth="yes"/>
      <point x="1082.833664670992" y="1046.9346586839672"/>
      <point x="1052.8111188071282" y="1014.4605896204633"/>
      <point x="993.5999999999999" y="985.8000000000001" type="curve" smooth="yes"/>
      <point x="339.1333333333333" y="651.5" type="line"/>
    </contour>
  </outline>
</glyph>
<glyph name="question" format="2">
  <advance width="1132.3666666666666"/>
  <unicode hex="003F"/>
  <outline>
    <contour>
      <point x="422.3333333333333" y="643.1666666666666" type="line" smooth="yes"/>
      <point x="427.23333333333335" y="706.1666666666666"/>
      <point x="459.3666666666667" y="749.9"/>
      <point x="538.6999999999999" y="788.9000000000001" type="curve" smooth="yes"/>
      <point x="599.7666666666667" y="819.7333333333333" type="line" smooth="yes"/>
      <point x="693.6856345785562" y="866.995325864664"/>
      <point x="752.8933725335053" y="954.3988798505695"/>
      <point x="798.6666666666667" y="1118.7666666666667" type="curve" smooth="yes"/>
      <point x="839.0" y="1265.0"/>
      <point x="811.8333333333333" y="1339.7333333333331"/>
      <point x="741.0" y="1339.7333333333331" type="curve" smooth="yes"/>
      <point x="676.6666666666666" y="1339.7333333333331"/>
      <point x="635.2333333333333" y="1301.2"/>
      <point x="613.2" y="1222.1333333333332" type="curve" smooth="yes"/>
      <point x="587.9666666666667" y="1128.3666666666666" type="line" smooth="yes"/>
      <point x="546.8000000000001" y="980.6"/>
      <point x="457.0333333333333" y="904.9"/>
      <point x="325.0333333333333" y="904.9" type="curve" smooth="yes"/>
      <point x="207.96666666666667" y="904.9"/>
      <point x="147.1" y="993.2666666666667"/>
      <point x="181.23333333333335" y="1120.4666666666667" type="curve" smooth="yes"/>
      <point x="229.36666666666667" y="1300.5666666666668"/>
      <point x="464.83333333333337" y="1465.6000000000001"/>
      <point x="790.1" y="1465.6000000000001" type="curve" smooth="yes"/>
      <point x="1148.2333333333333" y="1465.6000000000001"/>
      <point x="1299.8999999999999" y="1310.4333333333332"/>
      <point x="1237.9333333333334" y="1069.0333333333335" type="curve" smooth="yes"/>
      <point x="1186.6651692708333" y="869.6570979452641"/>
      <point x="1024.4251949618035" y="748.2017405422708"/>
      <point x="767.4333333333334" y="703.2666666666667" type="curve" smooth="yes"/>
      <point x="712.6" y="693.5333333333334" type="line" smooth="yes"/>
      <point x="663.6666666666667" y="685.4333333333333"/>
      <point x="647.9333333333334" y="665.7333333333333"/>
      <point x="631.1666666666666" y="629.5333333333334" type="curve" smooth="yes"/>
      <point x="605.6666666666667" y="566.8" type="line" smooth="yes"/>
      <point x="563.9000000000001" y="493.06666666666666"/>
      <point x="533.4" y="470.56666666666666"/>
      <point x="484.50000000000006" y="470.56666666666666" type="curve" smooth="yes"/>
      <point x="427.73333333333335" y="470.56666666666666"/>
      <point x="407.3666666666667" y="505.0"/>
      <point x="410.8333333333333" y="566.9333333333333" type="curve" smooth="yes"/>
    </contour>
    <component base="period" xOffset="138.0" yOffset="0.23333333333333334"/>
  </outline>
</glyph>
<glyph name="at" format="2">
  <advance width="1850.0333333333333"/>
  <unicode hex="0040"/>
  <outline>
    <contour>
      <point x="818.9333333333333" y="435.0" type="curve" smooth="yes"/>
      <point x="834.6666666666666" y="623.9242434526219"/>
      <point x="947.7666666666667" y="890.8666666666667"/>
      <point x="1048.3333333333333" y="890.8666666666667" type="curve" smooth="yes"/>
      <point x="1089.6333333333332" y="890.8666666666667"/>
      <point x="1102.7" y="844.3"/>
      <point x="1089.4" y="769.1" type="curve" smooth="yes"/>
      <point x="1039.8724199910941" y="507.53173446178727"/>
      <point x="935.8" y="325.6"/>
      <point x="859.4666666666667" y="325.6" type="curve" smooth="yes"/>
      <point x="831.4666666666667" y="325.6"/>
      <point x="810.4" y="353.23333333333335"/>
    </contour>
    <contour>
      <point x="1189.0666666666666" y="121.6" type="curve" smooth="yes"/>
      <point x="1482.1666666666667" y="121.6"/>
      <point x="1744.1333333333332" y="330.4"/>
      <point x="1821.9666666666667" y="626.7666666666667" type="curve" smooth="yes"/>
      <point x="1950.5666666666666" y="1114.1000000000001"/>
      <point x="1666.0" y="1404.6333333333334"/>
      <point x="1191.0" y="1404.6333333333334" type="curve" smooth="yes"/>
      <point x="686.3333333333334" y="1404.6333333333334"/>
      <point x="221.16666666666666" y="1055.9333333333334"/>
      <point x="102.93333333333332" y="605.2666666666668" type="curve" smooth="yes"/>
      <point x="-42.36666666666667" y="56.9"/>
      <point x="254.26666666666662" y="-292.56666666666666"/>
      <point x="771.5" y="-292.56666666666666" type="curve" smooth="yes"/>
      <point x="1099.9333333333334" y="-292.56666666666666"/>
      <point x="1401.6" y="-174.29999999999998"/>
      <point x="1563.3333333333333" y="-26.900000000000002" type="curve" smooth="yes"/>
      <point x="1611.6333333333332" y="12.466666666666665"/>
      <point x="1632.9" y="57.733333333333334"/>
      <point x="1610.3666666666666" y="84.2" type="curve" smooth="yes"/>
      <point x="1586.9666666666667" y="111.5"/>
      <point x="1539.4333333333334" y="96.96666666666665"/>
      <point x="1497.7" y="70.86666666666667" type="curve" smooth="yes"/>
      <point x="1278.4666666666667" y="-89.4"/>
      <point x="1036.1333333333334" y="-169.29999999999998"/>
      <point x="801.3666666666667" y="-169.29999999999998" type="curve" smooth="yes"/>
      <point x="359.46666666666664" y="-169.29999999999998"/>
      <point x="128.39999999999998" y="139.6"/>
      <point x="250.16666666666669" y="600.1333333333333" type="curve" smooth="yes"/>
      <point x="357.3666666666667" y="1007.9666666666667"/>
      <point x="739.5" y="1289.6333333333332"/>
      <point x="1157.6666666666667" y="1289.6333333333332" type="curve" smooth="yes"/>
      <point x="1556.8333333333333" y="1289.6333333333332"/>
      <point x="1780.4859785964609" y="1038.910581052511"/>
      <point x="1672.0666666666668" y="629.6666666666667" type="curve" smooth="yes"/>
      <point x="1617.1333333333332" y="420.40000000000003"/>
      <point x="1477.2666666666667" y="312.23333333333335"/>
      <point x="1389.2666666666667" y="312.23333333333335" type="curve" smooth="yes"/>
      <point x="1323.7254901960785" y="312.23333333333335"/>
      <point x="1314.7207632668765" y="359.7841852065802"/>
      <point x="1348.1" y="482.59999999999997" type="curve" smooth="yes"/>
      <point x="1427.4333333333332" y="779.0" type="line" smooth="yes"/>
      <point x="1443.6333333333334" y="836.8"/>
      <point x="1507.3333333333335" y="836.7666666666667"/>
      <point x="1514.7333333333333" y="901.8333333333334" type="curve" smooth="yes"/>
      <point x="1523.6666666666667" y="976.8666666666667"/>
      <point x="1403.6333333333332" y="1035.3333333333335"/>
      <point x="1124.6" y="1035.3333333333335" type="curve" smooth="yes"/>
      <point x="703.9666666666667" y="1035.3333333333335"/>
      <point x="457.56666666666666" y="714.2586624539231"/>
      <point x="440.5" y="420.1333333333333" type="curve" smooth="yes"/>
      <point x="426.1" y="222.23333333333332"/>
      <point x="519.6666666666666" y="121.06666666666666"/>
      <point x="675.2666666666667" y="121.06666666666666" type="curve" smooth="yes"/>
      <point x="850.1333333333333" y="121.06666666666666"/>
      <point x="957.7" y="207.06666666666666"/>
      <point x="1046.6" y="395.26666666666665" type="curve"/>
      <point x="1033.7666666666667" y="472.06666666666666" type="line"/>
      <point x="1020.0024701479196" y="409.7249138072436"/>
      <point x="1005.7666666666667" y="339.3"/>
      <point x="1006.0" y="277.93333333333334" type="curve" smooth="yes"/>
      <point x="1006.4666666666668" y="183.3"/>
      <point x="1067.4145488029467" y="121.6"/>
    </contour>
  </outline>
</glyph>
<glyph name="A" format="2">
  <advance width="1366.1000000000001"/>
  <unicode hex="0041"/>
  <anchor x="1094.8333333333333" y="1537.6000000000001" name="center"/>
  <outline>
    <contour>
      <point x="333.03333333333336" y="363.9" type="curve" smooth="yes"/>
      <point x="667.3000000000001" y="918.0333333333334" type="line" smooth="yes"/>
      <point x="762.8666666666667" y="1075.6333333333332"/>
      <point x="812.7666666666667" y="1118.1"/>
      <point x="860.9333333333334" y="1144.0" type="curve"/>
      <point x="772.8333333333333" y="1168.7" type="line"/>
      <point x="771.9333333333334" y="947.2851190476191"/>
      <point x="757.1532772807344" y="469.46539494355386"/>
      <point x="753.9333333333333" y="304.0" type="curve" smooth="yes"/>
      <point x="752.9333333333333" y="229.70000000000002"/>
      <point x="736.3666666666667" y="176.73333333333335"/>
      <point x="693.3333333333334" y="159.0" type="curve" smooth="yes"/>
      <point x="660.8666666666667" y="151.3" type="line" smooth="yes"/>
      <point x="616.6666666666667" y="130.96666666666664"/>
      <point x="594.5666666666666" y="107.63333333333333"/>
      <point x="594.5666666666666" y="67.53333333333335" type="curve" smooth="yes"/>
      <point x="594.5666666666666" y="30.733333333333338"/>
      <point x="610.8" y="0.0"/>
      <point x="665.7333333333333" y="0.0" type="curve" smooth="yes"/>
      <point x="1179.7333333333333" y="0.0" type="line" smooth="yes"/>
      <point x="1235.1333333333334" y="0.0"/>
      <point x="1267.6666666666667" y="31.500000000000004"/>
      <point x="1267.6666666666667" y="75.9" type="curve" smooth="yes"/>
      <point x="1267.6666666666667" y="104.56666666666666"/>
      <point x="1257.5666666666666" y="124.83333333333331"/>
      <point x="1233.8333333333335" y="144.66666666666669" type="curve" smooth="yes"/>
      <point x="1169.4333333333334" y="188.23333333333332"/>
      <point x="1171.6333333333332" y="220.53333333333333"/>
      <point x="1169.8333333333333" y="312.5333333333333" type="curve" smooth="yes"/>
      <point x="1168.2835067253454" y="416.9105979462483"/>
      <point x="1177.4666666666667" y="938.3397003745317"/>
      <point x="1179.1666666666665" y="1102.1666666666665" type="curve" smooth="yes"/>
      <point x="1180.1333333333332" y="1201.6000000000001"/>
      <point x="1216.4333333333334" y="1243.6666666666667"/>
      <point x="1277.0333333333333" y="1273.9666666666667" type="curve" smooth="yes"/>
      <point x="1305.8333333333335" y="1295.2666666666667"/>
      <point x="1316.4333333333334" y="1317.3666666666666"/>
      <point x="1316.4333333333334" y="1346.9666666666667" type="curve" smooth="yes"/>
      <point x="1316.4333333333334" y="1391.9"/>
      <point x="1282.8666666666666" y="1425.9666666666667"/>
      <point x="1185.2666666666667" y="1425.9666666666667" type="curve" smooth="yes"/>
      <point x="941.8" y="1425.9666666666667"/>
      <point x="721.2333333333332" y="1287.7"/>
      <point x="543.6666666666667" y="995.7333333333332" type="curve" smooth="yes"/>
      <point x="179.36666666666667" y="393.9333333333333" type="line" smooth="yes"/>
      <point x="117.26666666666665" y="290.8"/>
      <point x="54.89999999999999" y="199.86666666666665"/>
      <point x="5.766666666666666" y="170.46666666666667" type="curve" smooth="yes"/>
      <point x="-56.83333333333334" y="131.2"/>
      <point x="-69.93333333333334" y="104.03333333333333"/>
      <point x="-69.93333333333334" y="65.76666666666667" type="curve" smooth="yes"/>
      <point x="-69.93333333333334" y="25.133333333333333"/>
      <point x="-44.49999999999999" y="0.0"/>
      <point x="4.799999999999997" y="0.0" type="curve" smooth="yes"/>
      <point x="335.83333333333337" y="0.0" type="line" smooth="yes"/>
      <point x="387.16666666666663" y="0.0"/>
      <point x="421.23333333333335" y="29.46666666666667"/>
      <point x="421.23333333333335" y="78.2" type="curve" smooth="yes"/>
      <point x="421.23333333333335" y="99.96666666666665"/>
      <point x="411.1333333333333" y="121.29999999999998"/>
      <point x="381.46666666666664" y="139.83333333333331" type="curve" smooth="yes"/>
      <point x="351.2" y="155.46666666666667" type="line" smooth="yes"/>
      <point x="283.5" y="184.43333333333334"/>
      <point x="266.43333333333334" y="253.89999999999998"/>
    </contour>
    <contour>
      <point x="289.3" y="432.43333333333334" type="line"/>
      <point x="859.4333333333333" y="432.43333333333334" type="line"/>
      <point x="869.6666666666666" y="562.5666666666666" type="line"/>
      <point x="309.93333333333334" y="562.5666666666666" type="line"/>
    </contour>
  </outline>
</glyph>
<glyph name="B" format="2">
  <advance width="1450.2"/>
  <unicode hex="0042"/>
  <outline>
    <contour>
      <point x="807.7333333333333" y="1115.9666666666667" type="curve" smooth="yes"/>
      <point x="837.2333333333333" y="1225.1666666666667"/>
      <point x="875.8" y="1263.8000000000002"/>
      <point x="955.6666666666667" y="1263.8000000000002" type="curve" smooth="yes"/>
      <point x="1037.8333333333335" y="1263.8000000000002"/>
      <point x="1090.188425304076" y="1198.8147487826625"/>
      <point x="1076.9" y="1067.1333333333334" type="curve" smooth="yes"/>
      <point x="1057.4653935634958" y="860.7222518433081"/>
      <point x="956.4333333333333" y="708.6333333333333"/>
      <point x="785.6999999999999" y="708.6333333333333" type="curve" smooth="yes"/>
      <point x="565.6333333333333" y="708.6333333333333" type="line"/>
      <point x="533.0666666666666" y="584.4333333333333" type="line"/>
      <point x="784.4" y="584.4333333333333" type="line" smooth="yes"/>
      <point x="910.6333333333333" y="584.4333333333333"/>
      <point x="975.7350079178702" y="511.4712742274511"/>
      <point x="948.9" y="363.6666666666667" type="curve" smooth="yes"/>
      <point x="921.4267442158925" y="210.2268117616007"/>
      <point x="836.6666666666666" y="136.73333333333335"/>
      <point x="705.8000000000001" y="136.73333333333335" type="curve" smooth="yes"/>
      <point x="615.5666666666666" y="136.73333333333335"/>
      <point x="563.7333333333333" y="183.23333333333332"/>
      <point x="587.1666666666666" y="274.0" type="curve" smooth="yes"/>
      <point x="626.3666666666667" y="423.29999999999995"/>
      <point x="754.4333333333334" y="914.3000000000001"/>
    </contour>
    <contour>
      <point x="376.73333333333335" y="1400.0" type="line" smooth="yes"/>
      <point x="320.03333333333336" y="1400.0"/>
      <point x="289.8" y="1367.4666666666667"/>
      <point x="289.8" y="1320.7666666666667" type="curve" smooth="yes"/>
      <point x="289.8" y="1291.8666666666666"/>
      <point x="303.26666666666665" y="1274.1"/>
      <point x="332.4" y="1259.1333333333334" type="curve" smooth="yes"/>
      <point x="373.29999999999995" y="1245.3666666666666" type="line" smooth="yes"/>
      <point x="413.56666666666666" y="1226.5666666666666"/>
      <point x="405.5" y="1201.0666666666666"/>
      <point x="390.03333333333336" y="1134.6000000000001" type="curve" smooth="yes"/>
      <point x="363.46666666666664" y="1024.6"/>
      <point x="188.56666666666666" y="370.8"/>
      <point x="148.93333333333334" y="233.1" type="curve" smooth="yes"/>
      <point x="136.56666666666666" y="189.8"/>
      <point x="127.03333333333335" y="172.20000000000002"/>
      <point x="96.56666666666668" y="159.5" type="curve" smooth="yes"/>
      <point x="50.599999999999994" y="145.20000000000002" type="line" smooth="yes"/>
      <point x="19.0" y="130.63333333333333"/>
      <point x="-3.466666666666667" y="103.2"/>
      <point x="-3.466666666666667" y="67.03333333333335" type="curve" smooth="yes"/>
      <point x="-3.466666666666667" y="28.46666666666667"/>
      <point x="12.000000000000002" y="0.0"/>
      <point x="71.26666666666668" y="0.0" type="curve" smooth="yes"/>
      <point x="736.4666666666667" y="0.0" type="line" smooth="yes"/>
      <point x="1138.3" y="0.0"/>
      <point x="1352.0666666666668" y="128.76666666666668"/>
      <point x="1380.7333333333333" y="352.4666666666667" type="curve" smooth="yes"/>
      <point x="1404.8" y="545.1"/>
      <point x="1273.6333333333334" y="668.1333333333333"/>
      <point x="916.3666666666667" y="668.1333333333333" type="curve"/>
      <point x="925.2333333333333" y="652.8" type="line"/>
      <point x="1263.4666666666667" y="652.8"/>
      <point x="1462.0333333333333" y="828.5333333333333"/>
      <point x="1482.1000000000001" y="1043.6666666666667" type="curve" smooth="yes"/>
      <point x="1502.5" y="1268.8999999999999"/>
      <point x="1364.8333333333333" y="1400.0"/>
      <point x="1023.1666666666666" y="1400.0" type="curve" smooth="yes"/>
    </contour>
  </outline>
</glyph>
<glyph name="C" format="2">
  <advance width="1320.7666666666667"/>
  <unicode hex="0043"/>
  <anchor x="946.8" y="1510.0" name="center"/>
  <outline>
    <contour>
      <point x="1222.0333333333333" y="483.6333333333333" type="curve" smooth="yes"/>
      <point x="1185.4666666666665" y="498.09999999999997"/>
      <point x="1153.9" y="479.2666666666667"/>
      <point x="1104.5666666666666" y="425.40000000000003" type="curve" smooth="yes"/>
      <point x="1006.9333333333333" y="275.6333333333333"/>
      <point x="898.8333333333333" y="210.8"/>
      <point x="794.6333333333333" y="210.8" type="curve" smooth="yes"/>
      <point x="639.9666666666667" y="210.8"/>
      <point x="534.6333333333333" y="332.383912037037"/>
      <point x="599.8666666666667" y="694.8" type="curve" smooth="yes"/>
      <point x="654.0333333333334" y="1048.339534883721"/>
      <point x="814.3666666666667" y="1266.1000000000001"/>
      <point x="985.9333333333334" y="1266.1000000000001" type="curve" smooth="yes"/>
      <point x="1099.4666666666667" y="1266.1000000000001"/>
      <point x="1176.0666666666666" y="1198.7333333333333"/>
      <point x="1226.3" y="1019.8666666666667" type="curve" smooth="yes"/>
      <point x="1243.1333333333334" y="961.2333333333333" type="line" smooth="yes"/>
      <point x="1257.4" y="913.1333333333333"/>
      <point x="1283.8" y="890.5666666666667"/>
      <point x="1323.9666666666667" y="890.5666666666667" type="curve" smooth="yes"/>
      <point x="1365.1333333333332" y="890.5666666666667"/>
      <point x="1396.2" y="912.5666666666667"/>
      <point x="1397.9666666666667" y="963.7333333333333" type="curve" smooth="yes"/>
      <point x="1417.3666666666668" y="1352.4" type="line" smooth="yes"/>
      <point x="1418.6000000000001" y="1397.4666666666667"/>
      <point x="1390.1" y="1423.8"/>
      <point x="1350.4666666666667" y="1423.8" type="curve" smooth="yes"/>
      <point x="1298.4333333333334" y="1423.8"/>
      <point x="1237.7" y="1341.2"/>
      <point x="1188.4333333333332" y="1341.2" type="curve" smooth="yes"/>
      <point x="1140.1666666666665" y="1341.2"/>
      <point x="1083.4666666666667" y="1425.7333333333333"/>
      <point x="906.5" y="1425.7333333333333" type="curve" smooth="yes"/>
      <point x="526.1333333333333" y="1425.7333333333333"/>
      <point x="175.86666666666667" y="1104.9041988950275"/>
      <point x="108.7" y="645.4333333333334" type="curve" smooth="yes"/>
      <point x="38.46666666666667" y="209.0601851851852"/>
      <point x="277.7333333333333" y="-24.266666666666666"/>
      <point x="627.3333333333334" y="-24.266666666666666" type="curve" smooth="yes"/>
      <point x="896.9" y="-24.266666666666666"/>
      <point x="1120.6516082556293" y="116.50321651125861"/>
      <point x="1228.1666666666667" y="345.70000000000005" type="curve" smooth="yes"/>
      <point x="1273.6666666666665" y="429.8666666666667"/>
      <point x="1252.5" y="471.4666666666667"/>
    </contour>
  </outline>
</glyph>
<glyph name="D" format="2">
  <advance width="1550.1"/>
  <unicode hex="0044"/>
  <anchor x="1030.3333333333335" y="1485.2333333333333" name="center"/>
  <outline>
    <contour>
      <point x="-3.1999999999999993" y="66.76666666666667" type="curve" smooth="yes"/>
      <point x="-2.966666666666667" y="28.46666666666667"/>
      <point x="12.5" y="0.0"/>
      <point x="71.30000000000001" y="0.0" type="curve" smooth="yes"/>
      <point x="695.4" y="0.0" type="line" smooth="yes"/>
      <point x="1128.2666666666667" y="0.0"/>
      <point x="1476.7666666666667" y="264.26666666666665"/>
      <point x="1546.1666666666667" y="713.6666666666666" type="curve" smooth="yes"/>
      <point x="1617.3" y="1141.5"/>
      <point x="1365.8333333333333" y="1400.0"/>
      <point x="960.2666666666668" y="1400.0" type="curve" smooth="yes"/>
      <point x="377.53333333333336" y="1400.0" type="line" smooth="yes"/>
      <point x="321.06666666666666" y="1400.0"/>
      <point x="290.29999999999995" y="1368.0"/>
      <point x="290.06666666666666" y="1320.7666666666667" type="curve" smooth="yes"/>
      <point x="290.29999999999995" y="1290.5333333333333"/>
      <point x="305.6333333333333" y="1273.3000000000002"/>
      <point x="332.6666666666667" y="1259.1333333333334" type="curve" smooth="yes"/>
      <point x="375.1666666666667" y="1244.3" type="line" smooth="yes"/>
      <point x="402.06666666666666" y="1233.2333333333333"/>
      <point x="410.26666666666665" y="1214.9333333333332"/>
      <point x="401.5" y="1178.0666666666666" type="curve" smooth="yes"/>
      <point x="376.66666666666663" y="1071.0333333333335"/>
      <point x="215.8" y="468.26666666666665"/>
      <point x="161.73333333333332" y="272.3" type="curve" smooth="yes"/>
      <point x="138.89999999999998" y="190.33333333333331"/>
      <point x="127.49999999999999" y="171.66666666666669"/>
      <point x="96.83333333333334" y="159.5" type="curve" smooth="yes"/>
      <point x="50.86666666666666" y="145.20000000000002" type="line" smooth="yes"/>
      <point x="20.03333333333333" y="131.16666666666666"/>
      <point x="-2.966666666666667" y="102.66666666666667"/>
    </contour>
    <contour>
      <point x="715.2" y="146.86666666666665" type="curve" smooth="yes"/>
      <point x="689.3666666666667" y="146.86666666666665" type="line" smooth="yes"/>
      <point x="613.5701754385965" y="146.86666666666665"/>
      <point x="582.2019177680784" y="196.73353337888705"/>
      <point x="604.5" y="307.73333333333335" type="curve" smooth="yes"/>
      <point x="635.1" y="465.96666666666664"/>
      <point x="785.5333333333333" y="1011.9"/>
      <point x="815.4333333333334" y="1111.6333333333332" type="curve" smooth="yes"/>
      <point x="846.7922840334589" y="1215.4244043073606"/>
      <point x="889.0333333333333" y="1254.2"/>
      <point x="949.1666666666666" y="1254.2" type="curve" smooth="yes"/>
      <point x="962.3333333333333" y="1254.2" type="line" smooth="yes"/>
      <point x="1077.8281690140846" y="1254.2"/>
      <point x="1156.9349392764063" y="1103.3677699624104"/>
      <point x="1083.7" y="743.6333333333333" type="curve" smooth="yes"/>
      <point x="1011.4333333333334" y="340.83972602739726"/>
      <point x="861.9" y="146.86666666666665"/>
    </contour>
  </outline>
</glyph>
<glyph name="E" format="2">
  <advance width="1323.5"/>
  <unicode hex="0045"/>
  <anchor x="894.3333333333334" y="1468.0" name="center"/>
  <outline>
    <contour>
      <point x="536.2666666666667" y="793.0" type="line"/>
      <point x="501.3" y="659.4666666666667" type="line"/>
      <point x="827.2666666666667" y="659.4666666666667" type="line" smooth="yes"/>
      <point x="928.7" y="659.4666666666667"/>
      <point x="976.4" y="629.4666666666666"/>
      <point x="1013.8666666666668" y="542.7666666666667" type="curve" smooth="yes"/>
      <point x="1028.5333333333333" y="515.3000000000001"/>
      <point x="1048.3333333333333" y="495.5"/>
      <point x="1080.3666666666666" y="495.73333333333335" type="curve" smooth="yes"/>
      <point x="1122.8333333333333" y="496.23333333333335"/>
      <point x="1151.3999999999999" y="523.8333333333334"/>
      <point x="1143.7333333333333" y="585.3000000000001" type="curve" smooth="yes"/>
      <point x="1113.9666666666667" y="889.7666666666668" type="line" smooth="yes"/>
      <point x="1109.1333333333334" y="930.3"/>
      <point x="1087.5333333333333" y="955.3666666666667"/>
      <point x="1047.8666666666666" y="955.3666666666667" type="curve" smooth="yes"/>
      <point x="1021.9666666666667" y="955.3666666666667"/>
      <point x="1001.6333333333334" y="943.5"/>
      <point x="984.3333333333333" y="911.6333333333333" type="curve" smooth="yes"/>
      <point x="949.5666666666667" y="818.9666666666667"/>
      <point x="897.6333333333333" y="793.0"/>
      <point x="835.0333333333333" y="793.0" type="curve" smooth="yes"/>
    </contour>
    <contour>
      <point x="763.5666666666666" y="0.0" type="line" smooth="yes"/>
      <point x="839.6333333333333" y="0.0"/>
      <point x="891.7333333333333" y="-30.666666666666668"/>
      <point x="955.9333333333334" y="-30.666666666666668" type="curve" smooth="yes"/>
      <point x="1128.4666666666667" y="-30.666666666666668"/>
      <point x="1227.6" y="116.36666666666666"/>
      <point x="1238.4333333333334" y="364.9" type="curve" smooth="yes"/>
      <point x="1238.9333333333334" y="421.96666666666664"/>
      <point x="1215.7666666666667" y="454.40000000000003"/>
      <point x="1175.0666666666666" y="454.40000000000003" type="curve" smooth="yes"/>
      <point x="1141.7666666666667" y="454.40000000000003"/>
      <point x="1113.4666666666667" y="428.5"/>
      <point x="1084.8666666666666" y="377.6" type="curve" smooth="yes"/>
      <point x="973.2333333333333" y="186.96666666666667"/>
      <point x="895.2666666666667" y="133.53333333333333"/>
      <point x="753.6" y="133.53333333333333" type="curve" smooth="yes"/>
      <point x="663.8" y="133.53333333333333" type="line" smooth="yes"/>
      <point x="586.3000000000001" y="133.53333333333333"/>
      <point x="566.7666666666667" y="164.86666666666667"/>
      <point x="579.6999999999999" y="228.6" type="curve" smooth="yes"/>
      <point x="601.7724278845108" y="335.6199830122639"/>
      <point x="818.9877369963459" y="1143.0224132186975"/>
      <point x="855.3333333333333" y="1266.4666666666667" type="curve"/>
      <point x="1003.4666666666667" y="1266.4666666666667" type="line" smooth="yes"/>
      <point x="1127.6666666666667" y="1266.4666666666667"/>
      <point x="1188.6937231062034" y="1212.2273235342873"/>
      <point x="1239.7333333333333" y="1035.0666666666666" type="curve" smooth="yes"/>
      <point x="1265.9333333333334" y="961.3"/>
      <point x="1298.2333333333333" y="942.0666666666666"/>
      <point x="1344.2666666666667" y="949.1999999999999" type="curve" smooth="yes"/>
      <point x="1384.6666666666667" y="955.3"/>
      <point x="1405.8" y="986.2"/>
      <point x="1398.6333333333334" y="1037.8333333333333" type="curve" smooth="yes"/>
      <point x="1380.7333333333333" y="1354.0" type="line" smooth="yes"/>
      <point x="1372.8" y="1408.4666666666667"/>
      <point x="1343.5333333333333" y="1434.0666666666666"/>
      <point x="1299.8333333333333" y="1434.0666666666666" type="curve" smooth="yes"/>
      <point x="1250.3666666666668" y="1434.0666666666666"/>
      <point x="1203.1333333333332" y="1400.0"/>
      <point x="1113.3" y="1400.0" type="curve" smooth="yes"/>
      <point x="376.20000000000005" y="1400.0" type="line" smooth="yes"/>
      <point x="318.43333333333334" y="1400.0"/>
      <point x="288.73333333333335" y="1367.1999999999998"/>
      <point x="288.73333333333335" y="1320.7666666666667" type="curve" smooth="yes"/>
      <point x="288.73333333333335" y="1287.3333333333333"/>
      <point x="308.03333333333336" y="1271.1666666666667"/>
      <point x="331.3333333333333" y="1259.1333333333334" type="curve" smooth="yes"/>
      <point x="373.8333333333333" y="1244.3" type="line" smooth="yes"/>
      <point x="400.7" y="1233.2333333333333"/>
      <point x="408.96666666666664" y="1215.4666666666665"/>
      <point x="396.43333333333334" y="1162.3333333333333" type="curve" smooth="yes"/>
      <point x="363.1666666666667" y="1027.6666666666665"/>
      <point x="178.36666666666667" y="338.8"/>
      <point x="149.46666666666664" y="238.16666666666663" type="curve" smooth="yes"/>
      <point x="134.43333333333334" y="189.26666666666665"/>
      <point x="123.3" y="170.33333333333331"/>
      <point x="95.5" y="159.5" type="curve" smooth="yes"/>
      <point x="49.53333333333333" y="145.20000000000002" type="line" smooth="yes"/>
      <point x="19.266666666666666" y="131.43333333333334"/>
      <point x="-4.533333333333333" y="104.0"/>
      <point x="-4.533333333333333" y="67.03333333333335" type="curve" smooth="yes"/>
      <point x="-4.533333333333333" y="28.46666666666667"/>
      <point x="10.933333333333335" y="0.0"/>
      <point x="70.2" y="0.0" type="curve" smooth="yes"/>
    </contour>
  </outline>
</glyph>
<glyph name="F" format="2">
  <advance width="1253.6"/>
  <unicode hex="0046"/>
  <outline>
    <contour>
      <point x="288.73333333333335" y="1320.7666666666667" type="curve" smooth="yes"/>
      <point x="288.73333333333335" y="1290.5333333333333"/>
      <point x="304.03333333333336" y="1273.8333333333335"/>
      <point x="331.3333333333333" y="1259.1333333333334" type="curve" smooth="yes"/>
      <point x="373.8333333333333" y="1244.3" type="line" smooth="yes"/>
      <point x="403.1333333333333" y="1231.6333333333334"/>
      <point x="408.4" y="1212.7666666666669"/>
      <point x="396.43333333333334" y="1162.3333333333333" type="curve" smooth="yes"/>
      <point x="366.16666666666663" y="1038.6000000000001"/>
      <point x="193.83333333333334" y="392.1333333333333"/>
      <point x="149.46666666666664" y="237.9" type="curve" smooth="yes"/>
      <point x="135.76666666666665" y="190.60000000000002"/>
      <point x="122.76666666666667" y="170.33333333333331"/>
      <point x="95.5" y="159.5" type="curve" smooth="yes"/>
      <point x="49.53333333333333" y="145.20000000000002" type="line" smooth="yes"/>
      <point x="19.266666666666666" y="131.43333333333334"/>
      <point x="-4.533333333333333" y="103.73333333333333"/>
      <point x="-4.533333333333333" y="67.03333333333335" type="curve" smooth="yes"/>
      <point x="-4.533333333333333" y="28.46666666666667"/>
      <point x="10.933333333333335" y="0.0"/>
      <point x="70.2" y="0.0" type="curve" smooth="yes"/>
      <point x="645.2" y="0.0" type="line" smooth="yes"/>
      <point x="702.3666666666667" y="0.0"/>
      <point x="733.1333333333333" y="32.5"/>
      <point x="733.1333333333333" y="79.43333333333334" type="curve" smooth="yes"/>
      <point x="733.1333333333333" y="109.73939393939392"/>
      <point x="720.2665315162476" y="133.81973068278484"/>
      <point x="689.1" y="141.13333333333335" type="curve" smooth="yes"/>
      <point x="616.7" y="152.79999999999998" type="line" smooth="yes"/>
      <point x="569.5363476342179" y="163.77906676588148"/>
      <point x="569.6017948252938" y="187.00538447588147"/>
      <point x="583.5666666666667" y="241.53333333333336" type="curve" smooth="yes"/>
      <point x="612.1" y="360.9"/>
      <point x="807.3333333333334" y="1103.6666666666667"/>
      <point x="854.4666666666667" y="1266.2333333333331" type="curve"/>
      <point x="972.6666666666666" y="1266.2333333333331" type="line" smooth="yes"/>
      <point x="1092.6666666666667" y="1266.2333333333331"/>
      <point x="1150.9535909994681" y="1213.8058936682617"/>
      <point x="1194.5" y="1071.6" type="curve" smooth="yes"/>
      <point x="1211.0" y="1021.6666666666666" type="line" smooth="yes"/>
      <point x="1234.9666666666667" y="958.3666666666667"/>
      <point x="1266.1666666666667" y="935.5333333333333"/>
      <point x="1312.2" y="942.6666666666666" type="curve" smooth="yes"/>
      <point x="1353.1" y="948.7666666666667"/>
      <point x="1374.5" y="978.6666666666666"/>
      <point x="1367.3333333333333" y="1030.5333333333333" type="curve" smooth="yes"/>
      <point x="1349.1666666666667" y="1354.0" type="line" smooth="yes"/>
      <point x="1341.5" y="1408.4666666666667"/>
      <point x="1312.2333333333333" y="1434.0666666666666"/>
      <point x="1268.5333333333333" y="1434.0666666666666" type="curve" smooth="yes"/>
      <point x="1219.0666666666666" y="1434.0666666666666"/>
      <point x="1171.0666666666668" y="1399.7666666666667"/>
      <point x="1082.2333333333331" y="1399.7666666666667" type="curve" smooth="yes"/>
      <point x="376.20000000000005" y="1400.0" type="line" smooth="yes"/>
      <point x="318.43333333333334" y="1400.0"/>
      <point x="288.73333333333335" y="1367.4666666666667"/>
    </contour>
    <contour>
      <point x="528.1333333333333" y="752.9000000000001" type="line"/>
      <point x="492.9333333333334" y="619.3666666666667" type="line"/>
      <point x="818.9" y="619.3666666666667" type="line" smooth="yes"/>
      <point x="929.2333333333332" y="619.3666666666667"/>
      <point x="974.3" y="583.0666666666667"/>
      <point x="1011.9999999999999" y="497.1" type="curve" smooth="yes"/>
      <point x="1026.9333333333332" y="469.1333333333333"/>
      <point x="1046.4666666666667" y="449.3333333333333"/>
      <point x="1078.5" y="449.56666666666666" type="curve" smooth="yes"/>
      <point x="1120.9666666666667" y="450.06666666666666"/>
      <point x="1149.5333333333333" y="477.43333333333334"/>
      <point x="1141.6333333333332" y="539.1333333333333" type="curve" smooth="yes"/>
      <point x="1105.6000000000001" y="855.7333333333333" type="line" smooth="yes"/>
      <point x="1100.7666666666667" y="896.5"/>
      <point x="1079.4333333333332" y="921.8333333333333"/>
      <point x="1039.7666666666667" y="921.8333333333333" type="curve" smooth="yes"/>
      <point x="1013.5999999999999" y="921.8333333333333"/>
      <point x="993.5333333333333" y="909.7333333333332"/>
      <point x="975.7333333333333" y="877.8666666666667" type="curve" smooth="yes"/>
      <point x="941.1999999999999" y="785.4333333333334"/>
      <point x="897.9333333333333" y="752.9000000000001"/>
      <point x="826.6666666666666" y="752.9000000000001" type="curve" smooth="yes"/>
    </contour>
  </outline>
</glyph>
<glyph name="G" format="2">
  <advance width="1490.5333333333335"/>
  <unicode hex="0047"/>
  <anchor x="983.2666666666668" y="1566.0" name="center"/>
  <outline>
    <contour>
      <point x="897.0333333333333" y="1424.9333333333334" type="curve" smooth="yes"/>
      <point x="502.6333333333333" y="1424.9333333333334"/>
      <point x="162.39999999999998" y="1093.7666666666667"/>
      <point x="103.93333333333334" y="624.8000000000001" type="curve" smooth="yes"/>
      <point x="49.099999999999994" y="218.4"/>
      <point x="251.76666666666665" y="-24.266666666666666"/>
      <point x="601.0" y="-24.266666666666666" type="curve" smooth="yes"/>
      <point x="773.6999999999999" y="-24.266666666666666"/>
      <point x="862.7333333333333" y="54.53333333333333"/>
      <point x="912.8333333333333" y="54.53333333333333" type="curve" smooth="yes"/>
      <point x="969.6666666666666" y="54.53333333333333"/>
      <point x="1089.8999999999999" y="-26.6"/>
      <point x="1153.5666666666666" y="-26.6" type="curve" smooth="yes"/>
      <point x="1204.6" y="-26.6"/>
      <point x="1230.7333333333333" y="2.0666666666666664"/>
      <point x="1253.1" y="81.0" type="curve" smooth="yes"/>
      <point x="1363.5333333333333" y="488.6333333333333" type="line" smooth="yes"/>
      <point x="1374.4" y="526.1"/>
      <point x="1386.0666666666668" y="544.6333333333333"/>
      <point x="1412.9666666666667" y="557.0" type="curve" smooth="yes"/>
      <point x="1452.6666666666665" y="572.3000000000001" type="line" smooth="yes"/>
      <point x="1480.5666666666668" y="586.2333333333333"/>
      <point x="1506.7333333333333" y="611.3666666666667"/>
      <point x="1506.7333333333333" y="649.4666666666667" type="curve" smooth="yes"/>
      <point x="1506.7333333333333" y="687.3000000000001"/>
      <point x="1492.2666666666667" y="716.5"/>
      <point x="1432.0" y="716.5" type="curve" smooth="yes"/>
      <point x="906.9" y="716.5" type="line" smooth="yes"/>
      <point x="849.9333333333333" y="716.5"/>
      <point x="819.4333333333333" y="684.7333333333333"/>
      <point x="819.4333333333333" y="637.9666666666667" type="curve" smooth="yes"/>
      <point x="819.4333333333333" y="607.6"/>
      <point x="831.2666666666667" y="582.9"/>
      <point x="865.5333333333333" y="574.7" type="curve" smooth="yes"/>
      <point x="944.7666666666667" y="560.3666666666667" type="line" smooth="yes"/>
      <point x="975.9" y="553.7"/>
      <point x="981.2" y="529.6333333333333"/>
      <point x="972.0" y="491.4666666666667" type="curve" smooth="yes"/>
      <point x="926.8333333333334" y="308.0333333333333" type="line" smooth="yes"/>
      <point x="898.8665376496181" y="193.63431507530922"/>
      <point x="818.7666666666667" y="142.1"/>
      <point x="728.9" y="142.1" type="curve" smooth="yes"/>
      <point x="600.7333333333333" y="142.1"/>
      <point x="527.759637369776" y="261.34335692837476"/>
      <point x="581.2" y="613.3666666666667" type="curve" smooth="yes"/>
      <point x="637.740300067456" y="1032.512509206116"/>
      <point x="808.7666666666667" y="1268.7666666666667"/>
      <point x="1016.1666666666666" y="1268.7666666666667" type="curve" smooth="yes"/>
      <point x="1139.1666666666665" y="1268.7666666666667"/>
      <point x="1226.991849987632" y="1203.3015486471845"/>
      <point x="1282.8666666666666" y="1044.0333333333333" type="curve" smooth="yes"/>
      <point x="1316.3666666666668" y="951.9666666666666" type="line" smooth="yes"/>
      <point x="1332.3666666666668" y="908.9333333333334"/>
      <point x="1362.8999999999999" y="890.2"/>
      <point x="1403.8333333333335" y="894.2666666666667" type="curve" smooth="yes"/>
      <point x="1439.8999999999999" y="897.8333333333334"/>
      <point x="1468.6666666666667" y="922.1999999999999"/>
      <point x="1466.1000000000001" y="976.1" type="curve" smooth="yes"/>
      <point x="1470.9666666666665" y="1334.3000000000002" type="line" smooth="yes"/>
      <point x="1467.6333333333332" y="1396.4"/>
      <point x="1438.3333333333333" y="1428.3333333333333"/>
      <point x="1393.8666666666666" y="1428.3333333333333" type="curve" smooth="yes"/>
      <point x="1335.4214936247722" y="1428.3333333333333"/>
      <point x="1275.8" y="1334.5"/>
      <point x="1218.6333333333332" y="1334.5" type="curve" smooth="yes"/>
      <point x="1172.7333333333331" y="1334.5"/>
      <point x="1102.6311490978158" y="1424.9333333333334"/>
    </contour>
  </outline>
</glyph>
<glyph name="H" format="2">
  <advance width="1652.4333333333334"/>
  <unicode hex="0048"/>
  <anchor x="1081.2333333333333" y="1498.4666666666667" name="center"/>
  <outline>
    <contour>
      <point x="576.8333333333334" y="216.5666666666667" type="curve" smooth="yes"/>
      <point x="597.1333333333333" y="302.16666666666663"/>
      <point x="781.8333333333333" y="1019.9333333333333"/>
      <point x="828.5333333333333" y="1170.9" type="curve" smooth="yes"/>
      <point x="843.4" y="1217.6666666666665"/>
      <point x="851.9333333333333" y="1229.1333333333332"/>
      <point x="879.3333333333333" y="1240.5" type="curve" smooth="yes"/>
      <point x="925.3000000000001" y="1254.8" type="line" smooth="yes"/>
      <point x="953.9333333333334" y="1267.5"/>
      <point x="979.3666666666667" y="1294.3666666666666"/>
      <point x="979.3666666666667" y="1332.9666666666665" type="curve" smooth="yes"/>
      <point x="979.3666666666667" y="1371.3"/>
      <point x="964.1333333333333" y="1400.0"/>
      <point x="904.6333333333333" y="1400.0" type="curve" smooth="yes"/>
      <point x="376.20000000000005" y="1400.0" type="line" smooth="yes"/>
      <point x="319.5" y="1400.0"/>
      <point x="288.73333333333335" y="1368.0"/>
      <point x="288.73333333333335" y="1320.7666666666667" type="curve" smooth="yes"/>
      <point x="288.73333333333335" y="1291.8666666666666"/>
      <point x="302.46666666666664" y="1274.1"/>
      <point x="331.3333333333333" y="1259.1333333333334" type="curve" smooth="yes"/>
      <point x="373.8333333333333" y="1244.3" type="line" smooth="yes"/>
      <point x="401.56666666666666" y="1232.4333333333334"/>
      <point x="407.93333333333334" y="1213.6"/>
      <point x="400.9" y="1180.7666666666667" type="curve" smooth="yes"/>
      <point x="365.8" y="1034.1666666666665"/>
      <point x="191.5" y="382.5333333333333"/>
      <point x="146.8" y="228.5666666666667" type="curve" smooth="yes"/>
      <point x="133.66666666666666" y="183.53333333333333"/>
      <point x="122.33333333333333" y="170.33333333333331"/>
      <point x="95.5" y="159.5" type="curve" smooth="yes"/>
      <point x="49.53333333333333" y="145.20000000000002" type="line" smooth="yes"/>
      <point x="21.133333333333333" y="132.5"/>
      <point x="-4.533333333333333" y="105.86666666666666"/>
      <point x="-4.533333333333333" y="67.03333333333335" type="curve" smooth="yes"/>
      <point x="-4.533333333333333" y="28.46666666666667"/>
      <point x="10.933333333333335" y="0.0"/>
      <point x="70.2" y="0.0" type="curve" smooth="yes"/>
      <point x="601.3" y="0.0" type="line" smooth="yes"/>
      <point x="658.2" y="0.0"/>
      <point x="689.2333333333333" y="32.0"/>
      <point x="689.2333333333333" y="79.46666666666667" type="curve" smooth="yes"/>
      <point x="689.2333333333333" y="108.89999999999999"/>
      <point x="674.2666666666667" y="125.9"/>
      <point x="645.2" y="141.10000000000002" type="curve" smooth="yes"/>
      <point x="602.9333333333333" y="155.93333333333334" type="line" smooth="yes"/>
      <point x="579.3666666666666" y="166.2"/>
      <point x="569.0" y="182.6"/>
    </contour>
    <contour>
      <point x="527.4666666666667" y="737.5333333333333" type="line"/>
      <point x="488.6333333333333" y="590.4333333333334" type="line"/>
      <point x="1227.3" y="590.4333333333334" type="line"/>
      <point x="1264.5" y="737.5333333333333" type="line"/>
    </contour>
    <contour>
      <point x="1381.6333333333334" y="216.5666666666667" type="curve" smooth="yes"/>
      <point x="1401.6666666666667" y="302.16666666666663"/>
      <point x="1586.1" y="1019.9333333333333"/>
      <point x="1633.3333333333333" y="1170.9" type="curve" smooth="yes"/>
      <point x="1647.9333333333334" y="1217.6666666666665"/>
      <point x="1656.7333333333333" y="1229.1333333333332"/>
      <point x="1684.1333333333334" y="1240.5" type="curve" smooth="yes"/>
      <point x="1730.1" y="1254.8" type="line" smooth="yes"/>
      <point x="1758.7333333333331" y="1267.5"/>
      <point x="1784.1666666666667" y="1294.3666666666666"/>
      <point x="1784.1666666666667" y="1332.9666666666665" type="curve" smooth="yes"/>
      <point x="1784.1666666666667" y="1371.3"/>
      <point x="1768.9333333333334" y="1400.0"/>
      <point x="1709.4333333333334" y="1400.0" type="curve" smooth="yes"/>
      <point x="1181.0" y="1400.0" type="line" smooth="yes"/>
      <point x="1124.0333333333333" y="1400.0"/>
      <point x="1093.5333333333335" y="1368.0"/>
      <point x="1093.5333333333335" y="1320.7666666666667" type="curve" smooth="yes"/>
      <point x="1093.5333333333335" y="1291.8666666666666"/>
      <point x="1107.0" y="1274.1"/>
      <point x="1136.1333333333332" y="1259.1333333333334" type="curve" smooth="yes"/>
      <point x="1178.3666666666666" y="1244.3" type="line" smooth="yes"/>
      <point x="1206.1000000000001" y="1232.4333333333334"/>
      <point x="1212.4666666666667" y="1213.6"/>
      <point x="1205.4333333333334" y="1180.7666666666667" type="curve" smooth="yes"/>
      <point x="1170.0666666666668" y="1034.1666666666665"/>
      <point x="996.0333333333333" y="382.5333333333333"/>
      <point x="951.5999999999999" y="228.5666666666667" type="curve" smooth="yes"/>
      <point x="938.2" y="183.53333333333333"/>
      <point x="927.1333333333333" y="170.33333333333331"/>
      <point x="900.3000000000001" y="159.5" type="curve" smooth="yes"/>
      <point x="854.3333333333334" y="145.20000000000002" type="line" smooth="yes"/>
      <point x="825.9333333333333" y="132.5"/>
      <point x="800.2666666666667" y="105.86666666666666"/>
      <point x="800.2666666666667" y="67.03333333333335" type="curve" smooth="yes"/>
      <point x="800.2666666666667" y="28.46666666666667"/>
      <point x="815.7333333333333" y="0.0"/>
      <point x="875.0" y="0.0" type="curve" smooth="yes"/>
      <point x="1405.8333333333335" y="0.0" type="line" smooth="yes"/>
      <point x="1462.7333333333331" y="0.0"/>
      <point x="1493.7666666666667" y="32.0"/>
      <point x="1493.7666666666667" y="79.46666666666667" type="curve" smooth="yes"/>
      <point x="1493.7666666666667" y="108.89999999999999"/>
      <point x="1479.0666666666668" y="125.9"/>
      <point x="1449.7333333333331" y="141.10000000000002" type="curve" smooth="yes"/>
      <point x="1407.7333333333333" y="155.93333333333334" type="line" smooth="yes"/>
      <point x="1384.1666666666667" y="166.2"/>
      <point x="1373.8" y="182.6"/>
    </contour>
  </outline>
</glyph>
<glyph name="I" format="2">
  <advance width="852.1333333333333"/>
  <unicode hex="0049"/>
  <anchor x="707.1" y="1468.0" name="center"/>
  <outline>
    <contour>
      <point x="580.9000000000001" y="216.5666666666667" type="curve" smooth="yes"/>
      <point x="600.9333333333334" y="302.16666666666663"/>
      <point x="784.9333333333333" y="1019.9333333333333"/>
      <point x="831.6333333333333" y="1170.9" type="curve" smooth="yes"/>
      <point x="846.2333333333333" y="1217.6666666666665"/>
      <point x="855.0333333333334" y="1229.1333333333332"/>
      <point x="882.4333333333333" y="1240.5" type="curve" smooth="yes"/>
      <point x="928.4" y="1254.8" type="line" smooth="yes"/>
      <point x="957.0333333333333" y="1267.5"/>
      <point x="982.4666666666667" y="1294.3666666666666"/>
      <point x="982.4666666666667" y="1332.9666666666665" type="curve" smooth="yes"/>
      <point x="982.4666666666667" y="1371.3"/>
      <point x="967.2333333333333" y="1400.0"/>
      <point x="907.7333333333333" y="1400.0" type="curve" smooth="yes"/>
      <point x="379.3" y="1400.0" type="line" smooth="yes"/>
      <point x="322.33333333333337" y="1400.0"/>
      <point x="291.8333333333333" y="1368.0"/>
      <point x="291.8333333333333" y="1320.7666666666667" type="curve" smooth="yes"/>
      <point x="291.8333333333333" y="1291.8666666666666"/>
      <point x="305.3" y="1274.1"/>
      <point x="334.43333333333334" y="1259.1333333333334" type="curve" smooth="yes"/>
      <point x="376.66666666666663" y="1244.3" type="line" smooth="yes"/>
      <point x="404.4" y="1232.4333333333334"/>
      <point x="410.76666666666665" y="1213.6"/>
      <point x="403.73333333333335" y="1180.7666666666667" type="curve" smooth="yes"/>
      <point x="368.9" y="1034.1666666666665"/>
      <point x="195.29999999999998" y="382.5333333333333"/>
      <point x="150.6" y="228.5666666666667" type="curve" smooth="yes"/>
      <point x="137.46666666666664" y="183.53333333333333"/>
      <point x="126.4" y="170.33333333333331"/>
      <point x="99.56666666666666" y="159.5" type="curve" smooth="yes"/>
      <point x="53.60000000000001" y="145.20000000000002" type="line" smooth="yes"/>
      <point x="25.200000000000003" y="132.5"/>
      <point x="-0.46666666666666856" y="105.86666666666666"/>
      <point x="-0.46666666666666856" y="67.03333333333335" type="curve" smooth="yes"/>
      <point x="-0.46666666666666856" y="28.46666666666667"/>
      <point x="14.999999999999996" y="0.0"/>
      <point x="74.26666666666667" y="0.0" type="curve" smooth="yes"/>
      <point x="605.1" y="0.0" type="line" smooth="yes"/>
      <point x="662.0" y="0.0"/>
      <point x="693.0333333333333" y="32.0"/>
      <point x="693.0333333333333" y="79.46666666666667" type="curve" smooth="yes"/>
      <point x="693.0333333333333" y="108.89999999999999"/>
      <point x="678.3333333333334" y="125.9"/>
      <point x="649.0" y="141.10000000000002" type="curve" smooth="yes"/>
      <point x="607.0" y="155.93333333333334" type="line" smooth="yes"/>
      <point x="583.4333333333333" y="166.2"/>
      <point x="572.8" y="182.6"/>
    </contour>
  </outline>
</glyph>
<glyph name="J" format="2">
  <advance width="844.6999999999999"/>
  <unicode hex="004A"/>
  <anchor x="713.9333333333333" y="1468.4666666666667" name="center"/>
  <outline>
    <contour>
      <point x="812.5" y="1102.9666666666667" type="curve" smooth="yes"/>
      <point x="844.5" y="1213.9"/>
      <point x="852.0666666666667" y="1226.8666666666666"/>
      <point x="884.5" y="1240.5" type="curve" smooth="yes"/>
      <point x="930.2333333333333" y="1254.8" type="line" smooth="yes"/>
      <point x="958.8666666666666" y="1267.7333333333333"/>
      <point x="984.3" y="1294.3666666666666"/>
      <point x="984.3" y="1332.9666666666665" type="curve" smooth="yes"/>
      <point x="984.3" y="1371.3"/>
      <point x="969.3" y="1400.0"/>
      <point x="909.8000000000001" y="1400.0" type="curve" smooth="yes"/>
      <point x="380.2" y="1400.0" type="line" smooth="yes"/>
      <point x="322.5" y="1400.0"/>
      <point x="292.5" y="1367.2333333333333"/>
      <point x="292.5" y="1320.7666666666667" type="curve" smooth="yes"/>
      <point x="292.5" y="1291.8666666666666"/>
      <point x="305.9666666666667" y="1273.8666666666666"/>
      <point x="335.09999999999997" y="1259.1333333333334" type="curve" smooth="yes"/>
      <point x="377.3333333333333" y="1244.3" type="line" smooth="yes"/>
      <point x="411.8333333333333" y="1229.1666666666667"/>
      <point x="413.76666666666665" y="1213.1333333333334"/>
      <point x="394.3666666666667" y="1136.6000000000001" type="curve" smooth="yes"/>
      <point x="359.3683757062957" y="1001.7061525426645"/>
      <point x="194.92421269434172" y="387.63170421719883"/>
      <point x="158.3" y="245.23333333333335" type="curve" smooth="yes"/>
      <point x="111.78996045487533" y="66.54468108460335"/>
      <point x="310.1333333333333" y="-30.557057057057058"/>
      <point x="310.1333333333333" y="-123.8" type="curve" smooth="yes"/>
      <point x="310.1333333333333" y="-172.93333333333334"/>
      <point x="282.7666666666667" y="-199.53333333333333"/>
      <point x="235.9" y="-199.53333333333333" type="curve" smooth="yes"/>
      <point x="156.63928879045156" y="-199.53333333333333"/>
      <point x="57.976190476190474" y="-98.93333333333334"/>
      <point x="-35.5" y="-98.93333333333334" type="curve" smooth="yes"/>
      <point x="-130.23333333333335" y="-98.93333333333334"/>
      <point x="-188.5" y="-167.3"/>
      <point x="-188.5" y="-251.36666666666667" type="curve" smooth="yes"/>
      <point x="-188.5" y="-350.8333333333333"/>
      <point x="-114.1569301260023" y="-430.0"/>
      <point x="30.466666666666665" y="-430.0" type="curve" smooth="yes"/>
      <point x="273.3666666666667" y="-430.0"/>
      <point x="460.76666666666665" y="-279.26666666666665"/>
      <point x="528.2666666666667" y="9.899999999999999" type="curve" smooth="yes"/>
      <point x="584.6322737226557" y="238.39496684928113"/>
      <point x="775.9356876840473" y="979.6065921819991"/>
    </contour>
  </outline>
</glyph>
<glyph name="K" format="2">
  <advance width="1570.8999999999999"/>
  <unicode hex="004B"/>
  <anchor x="729.0333333333333" y="1485.6000000000001" name="center"/>
  <outline>
    <contour>
      <point x="563.2333333333333" y="209.63333333333333" type="curve" smooth="yes"/>
      <point x="582.4666666666666" y="295.76666666666665"/>
      <point x="774.0666666666667" y="1022.8666666666667"/>
      <point x="819.4333333333334" y="1174.1000000000001" type="curve" smooth="yes"/>
      <point x="832.0666666666667" y="1217.6666666666667"/>
      <point x="846.6333333333333" y="1231.4666666666667"/>
      <point x="869.6333333333334" y="1241.1666666666665" type="curve" smooth="yes"/>
      <point x="915.2333333333333" y="1255.9666666666667" type="line" smooth="yes"/>
      <point x="947.6" y="1272.1000000000001"/>
      <point x="972.5333333333333" y="1293.3999999999999"/>
      <point x="972.5333333333333" y="1332.8" type="curve" smooth="yes"/>
      <point x="972.5333333333333" y="1371.8666666666666"/>
      <point x="953.3333333333333" y="1400.0"/>
      <point x="902.8666666666667" y="1400.0" type="curve" smooth="yes"/>
      <point x="376.73333333333335" y="1400.0" type="line" smooth="yes"/>
      <point x="321.1" y="1400.0"/>
      <point x="289.8" y="1368.0"/>
      <point x="289.8" y="1321.3" type="curve" smooth="yes"/>
      <point x="289.8" y="1291.3666666666666"/>
      <point x="303.76666666666665" y="1274.1"/>
      <point x="332.4" y="1259.1333333333334" type="curve" smooth="yes"/>
      <point x="373.56666666666666" y="1245.3666666666666" type="line" smooth="yes"/>
      <point x="398.8666666666666" y="1235.1000000000001"/>
      <point x="408.7" y="1218.9333333333334"/>
      <point x="402.0" y="1187.5333333333333" type="curve" smooth="yes"/>
      <point x="367.43333333333334" y="1040.9333333333334"/>
      <point x="191.5" y="382.5333333333333"/>
      <point x="146.8" y="228.5666666666667" type="curve" smooth="yes"/>
      <point x="134.43333333333334" y="186.33333333333334"/>
      <point x="122.5" y="170.06666666666666"/>
      <point x="95.76666666666667" y="159.5" type="curve" smooth="yes"/>
      <point x="49.8" y="145.20000000000002" type="line" smooth="yes"/>
      <point x="21.4" y="132.5"/>
      <point x="-4.266666666666666" y="106.39999999999999"/>
      <point x="-4.266666666666666" y="67.03333333333335" type="curve" smooth="yes"/>
      <point x="-4.266666666666666" y="28.46666666666667"/>
      <point x="11.200000000000001" y="0.0"/>
      <point x="70.46666666666667" y="0.0" type="curve" smooth="yes"/>
      <point x="590.9" y="0.0" type="line" smooth="yes"/>
      <point x="647.8000000000001" y="0.0"/>
      <point x="677.5" y="30.666666666666668"/>
      <point x="677.5" y="77.86666666666666" type="curve" smooth="yes"/>
      <point x="677.5" y="111.0"/>
      <point x="657.5666666666667" y="128.8"/>
      <point x="631.8666666666667" y="144.83333333333334" type="curve" smooth="yes"/>
      <point x="592.5333333333333" y="159.93333333333334" type="line" smooth="yes"/>
      <point x="570.3" y="171.0"/>
      <point x="558.0666666666666" y="186.06666666666666"/>
    </contour>
    <contour>
      <point x="730.9" y="657.6" type="line"/>
      <point x="922.5333333333334" y="145.46666666666667" type="line" smooth="yes"/>
      <point x="968.7189689462085" y="23.466997092590667"/>
      <point x="1019.4516908212561" y="-29.76666666666667"/>
      <point x="1152.7333333333333" y="-29.76666666666667" type="curve" smooth="yes"/>
      <point x="1313.6399631675874" y="-29.76666666666667"/>
      <point x="1458.629070937302" y="69.92480854127086"/>
      <point x="1521.7666666666667" y="231.8" type="curve" smooth="yes"/>
      <point x="1542.3666666666668" y="288.6666666666667"/>
      <point x="1522.9666666666667" y="316.56666666666666"/>
      <point x="1496.8" y="323.4" type="curve" smooth="yes"/>
      <point x="1482.0666666666666" y="327.4333333333333"/>
      <point x="1460.4666666666667" y="321.6333333333333"/>
      <point x="1440.6666666666667" y="307.0333333333333" type="curve" smooth="yes"/>
      <point x="1415.2333333333333" y="280.1333333333333"/>
      <point x="1394.3" y="264.2"/>
      <point x="1367.3" y="264.2" type="curve" smooth="yes"/>
      <point x="1320.6999999999998" y="264.2"/>
      <point x="1299.8" y="306.3333333333333"/>
      <point x="1273.1" y="370.96666666666664" type="curve" smooth="yes"/>
      <point x="1051.2333333333333" y="954.4" type="line"/>
    </contour>
    <contour>
      <point x="557.5" y="377.8333333333333" type="line"/>
      <point x="1128.2333333333333" y="978.2333333333333" type="line" smooth="yes"/>
      <point x="1190.2" y="1044.5333333333333"/>
      <point x="1256.1666666666665" y="1074.0333333333333"/>
      <point x="1324.8666666666668" y="1074.0333333333333" type="curve" smooth="yes"/>
      <point x="1386.6333333333334" y="1074.0333333333333"/>
      <point x="1429.9333333333334" y="1051.4333333333334"/>
      <point x="1497.1666666666667" y="1051.4333333333334" type="curve" smooth="yes"/>
      <point x="1603.0" y="1051.4333333333334"/>
      <point x="1684.7333333333333" y="1109.0"/>
      <point x="1693.0" y="1242.4666666666667" type="curve" smooth="yes"/>
      <point x="1701.0" y="1353.0"/>
      <point x="1636.1000000000001" y="1433.1666666666667"/>
      <point x="1517.0333333333333" y="1433.1666666666667" type="curve" smooth="yes"/>
      <point x="1416.6" y="1433.1666666666667"/>
      <point x="1341.0666666666666" y="1388.2666666666667"/>
      <point x="1223.6666666666667" y="1263.4666666666667" type="curve" smooth="yes"/>
      <point x="513.6333333333333" y="503.4333333333334" type="line"/>
    </contour>
  </outline>
</glyph>
<glyph name="L" format="2">
  <advance width="1232.1000000000001"/>
  <unicode hex="004C"/>
  <anchor x="976.1802966694654" y="1243.0" name="right"/>
  <outline>
    <contour>
      <point x="700.4333333333334" y="0.0" type="line" smooth="yes"/>
      <point x="797.7666666666667" y="0.0"/>
      <point x="834.1666666666666" y="-30.666666666666668"/>
      <point x="896.3666666666666" y="-30.666666666666668" type="curve" smooth="yes"/>
      <point x="1072.8666666666666" y="-30.666666666666668"/>
      <point x="1175.3333333333333" y="139.5"/>
      <point x="1188.5666666666666" y="414.6" type="curve" smooth="yes"/>
      <point x="1189.0666666666666" y="470.8708994708995"/>
      <point x="1170.9600732600732" y="507.1333333333333"/>
      <point x="1124.2" y="507.1333333333333" type="curve" smooth="yes"/>
      <point x="1092.523558897243" y="507.1333333333333"/>
      <point x="1063.2333333333333" y="486.0333333333333"/>
      <point x="1030.1666666666667" y="421.70000000000005" type="curve" smooth="yes"/>
      <point x="905.3666666666667" y="202.86666666666667"/>
      <point x="832.9333333333333" y="135.4"/>
      <point x="718.1" y="135.4" type="curve" smooth="yes"/>
      <point x="673.3000000000001" y="135.4" type="line" smooth="yes"/>
      <point x="602.8" y="135.4"/>
      <point x="571.7333333333333" y="165.53333333333333"/>
      <point x="590.3" y="256.5" type="curve" smooth="yes"/>
      <point x="606.0333333333333" y="335.33333333333337"/>
      <point x="761.1333333333333" y="947.9000000000001"/>
      <point x="829.4666666666667" y="1170.4" type="curve" smooth="yes"/>
      <point x="843.6333333333333" y="1218.4666666666667"/>
      <point x="855.9999999999999" y="1230.9333333333334"/>
      <point x="880.5" y="1240.5" type="curve" smooth="yes"/>
      <point x="927.9999999999999" y="1255.3" type="line" smooth="yes"/>
      <point x="955.8666666666667" y="1268.2666666666667"/>
      <point x="980.5333333333333" y="1295.1333333333332"/>
      <point x="980.5333333333333" y="1332.9666666666665" type="curve" smooth="yes"/>
      <point x="980.5333333333333" y="1371.0333333333333"/>
      <point x="965.5666666666667" y="1400.0"/>
      <point x="905.8" y="1400.0" type="curve" smooth="yes"/>
      <point x="375.6666666666667" y="1400.0" type="line"/>
      <point x="319.0" y="1400.0"/>
      <point x="288.73333333333335" y="1367.4666666666667"/>
      <point x="288.73333333333335" y="1320.5333333333333" type="curve" smooth="yes"/>
      <point x="288.73333333333335" y="1291.0666666666666"/>
      <point x="305.3333333333333" y="1272.7666666666669"/>
      <point x="331.3333333333333" y="1259.1333333333334" type="curve" smooth="yes"/>
      <point x="373.8333333333333" y="1244.3" type="line" smooth="yes"/>
      <point x="398.3" y="1234.5666666666668"/>
      <point x="407.6333333333333" y="1216.0"/>
      <point x="400.7" y="1182.0666666666666" type="curve" smooth="yes"/>
      <point x="374.4" y="1063.5333333333333"/>
      <point x="185.9" y="364.3333333333333"/>
      <point x="148.9333333333333" y="236.56666666666666" type="curve" smooth="yes"/>
      <point x="134.7" y="188.46666666666667"/>
      <point x="125.16666666666666" y="171.4"/>
      <point x="95.5" y="159.5" type="curve" smooth="yes"/>
      <point x="49.53333333333333" y="145.20000000000002" type="line" smooth="yes"/>
      <point x="19.266666666666666" y="131.43333333333334"/>
      <point x="-4.533333333333333" y="104.0"/>
      <point x="-4.533333333333333" y="67.03333333333335" type="curve" smooth="yes"/>
      <point x="-4.533333333333333" y="28.46666666666667"/>
      <point x="10.933333333333335" y="0.0"/>
      <point x="70.2" y="0.0" type="curve"/>
    </contour>
  </outline>
</glyph>
<glyph name="M" format="2">
  <advance width="1846.1"/>
  <unicode hex="004D"/>
  <anchor x="745.2333333333333" y="1462.2" name="center"/>
  <outline>
    <contour>
      <point x="982.5333333333334" y="484.7" type="line"/>
      <point x="934.081258482397" y="766.8237652076132"/>
      <point x="889.1918282707794" y="1055.5462213434037"/>
      <point x="856.8666666666667" y="1254.0666666666666" type="curve" smooth="yes"/>
      <point x="836.0333333333333" y="1362.6333333333334"/>
      <point x="787.8333333333333" y="1400.0"/>
      <point x="708.0333333333334" y="1400.0" type="curve" smooth="yes"/>
      <point x="375.0333333333333" y="1400.0" type="line" smooth="yes"/>
      <point x="321.1333333333333" y="1400.0"/>
      <point x="287.8333333333333" y="1370.5333333333333"/>
      <point x="287.8333333333333" y="1321.5333333333333" type="curve" smooth="yes"/>
      <point x="287.8333333333333" y="1291.8666666666666"/>
      <point x="301.3" y="1273.8666666666666"/>
      <point x="330.43333333333334" y="1259.1333333333334" type="curve" smooth="yes"/>
      <point x="372.6666666666667" y="1244.0666666666666" type="line" smooth="yes"/>
      <point x="402.7" y="1231.1666666666667"/>
      <point x="411.96666666666664" y="1212.9333333333334"/>
      <point x="395.76666666666665" y="1155.1666666666667" type="curve" smooth="yes"/>
      <point x="192.0" y="401.3" type="line" smooth="yes"/>
      <point x="137.26666666666665" y="206.9333333333333"/>
      <point x="101.93333333333332" y="177.03333333333336"/>
      <point x="53.16666666666666" y="157.79999999999998" type="curve" smooth="yes"/>
      <point x="25.96666666666666" y="145.4333333333333" type="line" smooth="yes"/>
      <point x="-2.6666666666666643" y="131.76666666666665"/>
      <point x="-27.866666666666667" y="105.86666666666666"/>
      <point x="-27.866666666666667" y="67.26666666666667" type="curve" smooth="yes"/>
      <point x="-27.866666666666667" y="28.7"/>
      <point x="-12.13333333333333" y="0.0"/>
      <point x="46.86666666666666" y="0.0" type="curve" smooth="yes"/>
      <point x="344.73333333333335" y="0.0" type="line" smooth="yes"/>
      <point x="400.66666666666663" y="0.0"/>
      <point x="431.93333333333334" y="32.0"/>
      <point x="431.93333333333334" y="79.46666666666667" type="curve" smooth="yes"/>
      <point x="431.93333333333334" y="107.1"/>
      <point x="419.26666666666665" y="124.6"/>
      <point x="389.33333333333337" y="141.1" type="curve" smooth="yes"/>
      <point x="362.73333333333335" y="154.46666666666664" type="line" smooth="yes"/>
      <point x="313.8" y="173.4"/>
      <point x="295.7" y="216.60000000000002"/>
      <point x="316.8666666666667" y="296.53333333333336" type="curve" smooth="yes"/>
      <point x="524.6333333333333" y="1063.7333333333333" type="line"/>
      <point x="490.16666666666663" y="1056.3" type="line"/>
      <point x="538.4552950577266" y="729.0662396220753"/>
      <point x="585.4333333333333" y="409.8666666666667"/>
      <point x="613.0333333333333" y="219.06666666666666" type="curve" smooth="yes"/>
      <point x="628.5666666666667" y="132.03333333333333"/>
      <point x="672.1666666666667" y="90.16666666666666"/>
      <point x="722.3000000000001" y="90.16666666666666" type="curve" smooth="yes"/>
      <point x="783.7666666666667" y="90.16666666666666"/>
      <point x="815.4388909999419" y="114.90184640858087"/>
      <point x="866.5" y="196.8" type="curve" smooth="yes"/>
      <point x="1382.8999999999999" y="1050.1" type="line"/>
      <point x="1355.4" y="1051.5" type="line"/>
      <point x="1302.1666666666667" y="767.5666666666667"/>
      <point x="1239.4666666666667" y="459.43333333333334"/>
      <point x="1196.5333333333333" y="256.06666666666666" type="curve" smooth="yes"/>
      <point x="1184.6333333333334" y="194.46666666666664"/>
      <point x="1172.1666666666667" y="171.9"/>
      <point x="1141.2333333333333" y="159.5" type="curve" smooth="yes"/>
      <point x="1095.2666666666667" y="145.20000000000002" type="line" smooth="yes"/>
      <point x="1066.1000000000001" y="131.73333333333332"/>
      <point x="1041.1999999999998" y="105.83333333333333"/>
      <point x="1041.1999999999998" y="67.76666666666667" type="curve" smooth="yes"/>
      <point x="1041.1999999999998" y="25.633333333333333"/>
      <point x="1059.4666666666665" y="0.0"/>
      <point x="1116.4333333333332" y="0.0" type="curve" smooth="yes"/>
      <point x="1641.3333333333335" y="0.0" type="line" smooth="yes"/>
      <point x="1698.2333333333331" y="0.0"/>
      <point x="1729.5" y="32.0"/>
      <point x="1729.5" y="79.46666666666667" type="curve" smooth="yes"/>
      <point x="1729.5" y="109.13333333333333"/>
      <point x="1713.5666666666666" y="126.4"/>
      <point x="1685.4666666666667" y="141.10000000000002" type="curve" smooth="yes"/>
      <point x="1640.3333333333333" y="156.16666666666666" type="line" smooth="yes"/>
      <point x="1613.8000000000002" y="167.79999999999998"/>
      <point x="1605.0333333333333" y="198.06666666666666"/>
      <point x="1612.6000000000001" y="243.03333333333336" type="curve" smooth="yes"/>
      <point x="1629.9333333333334" y="350.9"/>
      <point x="1771.1666666666667" y="1046.1333333333334"/>
      <point x="1795.5666666666666" y="1164.3" type="curve" smooth="yes"/>
      <point x="1804.3666666666666" y="1207.3"/>
      <point x="1818.1" y="1230.3666666666668"/>
      <point x="1843.2333333333333" y="1240.5" type="curve" smooth="yes"/>
      <point x="1893.6" y="1255.3" type="line" smooth="yes"/>
      <point x="1921.7333333333333" y="1267.7333333333333"/>
      <point x="1947.1666666666667" y="1294.1333333333332"/>
      <point x="1947.1666666666667" y="1332.9666666666665" type="curve" smooth="yes"/>
      <point x="1947.1666666666667" y="1376.4"/>
      <point x="1927.3333333333333" y="1400.0"/>
      <point x="1872.4333333333334" y="1400.0" type="curve" smooth="yes"/>
      <point x="1523.2333333333333" y="1400.0" type="line" smooth="yes"/>
      <point x="1464.7666666666667" y="1400.0"/>
      <point x="1407.8666666666666" y="1372.4333333333334"/>
      <point x="1352.6000000000001" y="1282.1333333333332" type="curve" smooth="yes"/>
      <point x="814.8" y="402.03333333333336" type="line"/>
    </contour>
  </outline>
</glyph>
<glyph name="N" format="2">
  <advance width="1438.6000000000001"/>
  <unicode hex="004E"/>
  <anchor x="1048.5333333333333" y="1497.0" name="center"/>
  <outline>
    <contour>
      <point x="337.3666666666667" y="351.23333333333335" type="line" smooth="yes"/>
      <point x="313.7666666666667" y="256.26666666666665"/>
      <point x="317.3333333333333" y="183.36666666666667"/>
      <point x="394.23333333333335" y="147.86666666666665" type="curve" smooth="yes"/>
      <point x="417.5333333333333" y="136.53333333333333" type="line" smooth="yes"/>
      <point x="441.8333333333333" y="123.1"/>
      <point x="460.6333333333333" y="101.23333333333332"/>
      <point x="460.6333333333333" y="70.06666666666668" type="curve" smooth="yes"/>
      <point x="460.6333333333333" y="24.633333333333336"/>
      <point x="430.6333333333333" y="0.0"/>
      <point x="387.46666666666664" y="0.0" type="curve" smooth="yes"/>
      <point x="49.99999999999999" y="0.0" type="line" smooth="yes"/>
      <point x="-4.666666666666664" y="0.0"/>
      <point x="-24.733333333333334" y="28.46666666666667"/>
      <point x="-24.733333333333334" y="67.03333333333335" type="curve" smooth="yes"/>
      <point x="-24.733333333333334" y="98.99999999999999"/>
      <point x="-6.666666666666664" y="127.69999999999999"/>
      <point x="28.33333333333333" y="144.70000000000002" type="curve" smooth="yes"/>
      <point x="63.7" y="161.63333333333335" type="line" smooth="yes"/>
      <point x="114.06666666666665" y="181.83333333333334"/>
      <point x="159.86666666666667" y="254.56666666666666"/>
      <point x="188.76666666666668" y="367.2" type="curve" smooth="yes"/>
      <point x="347.16666666666663" y="988.1333333333333" type="line" smooth="yes"/>
      <point x="366.2" y="1056.3999999999999"/>
      <point x="361.8" y="1121.6"/>
      <point x="327.0" y="1164.2" type="curve" smooth="yes"/>
      <point x="283.2" y="1253.8666666666668" type="line" smooth="yes"/>
      <point x="230.26666666666668" y="1313.8999999999999"/>
      <point x="248.83333333333334" y="1400.0"/>
      <point x="338.06666666666666" y="1400.0" type="curve" smooth="yes"/>
      <point x="613.3666666666667" y="1400.0" type="line" smooth="yes"/>
      <point x="703.5999999999999" y="1400.0"/>
      <point x="743.0666666666666" y="1359.8333333333335"/>
      <point x="779.6999999999999" y="1284.1" type="curve" smooth="yes"/>
      <point x="918.3666666666667" y="933.8000000000001"/>
      <point x="1037.6666666666667" y="657.8"/>
      <point x="1162.0666666666666" y="369.0" type="curve"/>
      <point x="1023.2000000000002" y="300.46666666666664" type="line"/>
      <point x="1234.5666666666666" y="1185.3" type="line" smooth="yes"/>
      <point x="1279.2333333333333" y="1366.3999999999999"/>
      <point x="1364.1068075117373" y="1455.6"/>
      <point x="1484.4333333333334" y="1455.6" type="curve" smooth="yes"/>
      <point x="1575.4166666666667" y="1455.6"/>
      <point x="1645.8000022589247" y="1399.800137794407"/>
      <point x="1644.5333333333333" y="1296.7" type="curve" smooth="yes"/>
      <point x="1643.0" y="1203.2666666666667"/>
      <point x="1592.9666666666667" y="1129.8666666666666"/>
      <point x="1480.8666666666666" y="1060.0" type="curve" smooth="yes"/>
      <point x="1370.7054639156793" y="990.4935984280071"/>
      <point x="1325.8094379507277" y="933.6729733574001"/>
      <point x="1293.5" y="800.9" type="curve" smooth="yes"/>
      <point x="1208.6666666666665" y="429.4666666666667" type="line" smooth="yes"/>
      <point x="1194.7333333333333" y="372.46666666666664"/>
      <point x="1194.0333333333333" y="338.6333333333333"/>
      <point x="1215.1000000000001" y="288.06666666666666" type="curve" smooth="yes"/>
      <point x="1272.3" y="129.33333333333331" type="line" smooth="yes"/>
      <point x="1299.5" y="65.0"/>
      <point x="1272.2666666666667" y="0.0"/>
      <point x="1208.5333333333335" y="0.0" type="curve" smooth="yes"/>
      <point x="859.6333333333333" y="0.0" type="line" smooth="yes"/>
      <point x="800.3" y="0.0"/>
      <point x="769.1" y="35.666666666666664"/>
      <point x="770.3333333333334" y="102.43333333333332" type="curve" smooth="yes"/>
      <point x="772.3333333333334" y="167.86666666666665"/>
      <point x="760.6333333333333" y="223.6"/>
      <point x="731.3666666666667" y="282.1333333333333" type="curve" smooth="yes"/>
      <point x="674.6333333333333" y="426.90000000000003"/>
      <point x="540.0" y="761.4"/>
      <point x="398.76666666666665" y="1090.9333333333334" type="curve"/>
      <point x="529.5" y="1100.8333333333335" type="line"/>
    </contour>
  </outline>
</glyph>
<glyph name="O" format="2">
  <advance width="1522.3999999999999"/>
  <unicode hex="004F"/>
  <anchor x="1041.1333333333334" y="1546.0" name="center"/>
  <outline>
    <contour>
      <point x="991.0333333333334" y="1425.7333333333333" type="curve" smooth="yes"/>
      <point x="519.9" y="1428.6666666666665"/>
      <point x="186.16666666666666" y="1094.6"/>
      <point x="114.0" y="675.0" type="curve" smooth="yes"/>
      <point x="29.96666666666667" y="252.26666666666668"/>
      <point x="229.86666666666667" y="-19.53333333333333"/>
      <point x="633.6333333333333" y="-23.799999999999997" type="curve" smooth="yes"/>
      <point x="1068.6999999999998" y="-28.333333333333336"/>
      <point x="1441.7" y="261.8"/>
      <point x="1522.5" y="747.7333333333332" type="curve" smooth="yes"/>
      <point x="1592.3" y="1138.9333333333334"/>
      <point x="1386.2666666666667" y="1423.0666666666668"/>
    </contour>
    <contour>
      <point x="670.8333333333333" y="117.9" type="curve" smooth="yes"/>
      <point x="589.3" y="119.5"/>
      <point x="544.0999999999999" y="171.93333333333334"/>
      <point x="544.3333333333334" y="317.40000000000003" type="curve" smooth="yes"/>
      <point x="544.8333333333334" y="408.2333333333333"/>
      <point x="563.9666666666666" y="536.1333333333333"/>
      <point x="607.2666666666667" y="714.1" type="curve" smooth="yes"/>
      <point x="713.9666666666667" y="1156.7666666666667"/>
      <point x="840.3" y="1291.1"/>
      <point x="961.7" y="1284.4333333333334" type="curve" smooth="yes"/>
      <point x="1039.3666666666666" y="1280.9666666666667"/>
      <point x="1083.3" y="1223.8333333333333"/>
      <point x="1083.6" y="1079.4666666666667" type="curve" smooth="yes"/>
      <point x="1084.1333333333332" y="991.2666666666667"/>
      <point x="1067.4666666666667" y="870.8666666666667"/>
      <point x="1028.9" y="708.6333333333333" type="curve" smooth="yes"/>
      <point x="916.7666666666667" y="238.96666666666667"/>
      <point x="785.5666666666667" y="115.23333333333332"/>
    </contour>
  </outline>
</glyph>
<glyph name="P" format="2">
  <advance width="1425.0"/>
  <unicode hex="0050"/>
  <outline>
    <contour>
      <point x="1485.0333333333335" y="934.5666666666667" type="curve" smooth="yes"/>
      <point x="1527.9666666666667" y="1223.2333333333333"/>
      <point x="1330.5333333333333" y="1400.0"/>
      <point x="1012.3666666666667" y="1400.0" type="curve" smooth="yes"/>
      <point x="374.6" y="1400.0" type="line" smooth="yes"/>
      <point x="317.9" y="1400.0"/>
      <point x="287.40000000000003" y="1368.0"/>
      <point x="287.40000000000003" y="1320.7666666666667" type="curve" smooth="yes"/>
      <point x="287.40000000000003" y="1291.3333333333333"/>
      <point x="301.4" y="1274.1"/>
      <point x="329.73333333333335" y="1259.1333333333334" type="curve" smooth="yes"/>
      <point x="372.23333333333335" y="1244.3" type="line" smooth="yes"/>
      <point x="395.96666666666664" y="1234.5666666666668"/>
      <point x="406.56666666666666" y="1219.4666666666667"/>
      <point x="399.8666666666666" y="1185.4" type="curve" smooth="yes"/>
      <point x="377.83333333333337" y="1083.1333333333332"/>
      <point x="189.36666666666665" y="383.8666666666667"/>
      <point x="144.4" y="225.90000000000003" type="curve" smooth="yes"/>
      <point x="133.36666666666667" y="187.13333333333333"/>
      <point x="122.23333333333332" y="170.86666666666665"/>
      <point x="94.16666666666667" y="159.5" type="curve" smooth="yes"/>
      <point x="48.199999999999996" y="145.20000000000002" type="line" smooth="yes"/>
      <point x="19.8" y="132.5"/>
      <point x="-5.866666666666666" y="105.86666666666666"/>
      <point x="-5.866666666666666" y="67.56666666666668" type="curve" smooth="yes"/>
      <point x="-5.866666666666666" y="28.733333333333334"/>
      <point x="8.533333333333331" y="0.0"/>
      <point x="68.86666666666667" y="0.0" type="curve" smooth="yes"/>
      <point x="643.3333333333333" y="0.0" type="line" smooth="yes"/>
      <point x="700.0" y="0.0"/>
      <point x="731.2666666666667" y="32.0"/>
      <point x="731.2666666666667" y="79.43333333333334" type="curve" smooth="yes"/>
      <point x="731.2666666666667" y="110.13333333333333"/>
      <point x="718.6333333333333" y="133.26666666666668"/>
      <point x="687.2333333333333" y="141.13333333333335" type="curve" smooth="yes"/>
      <point x="600.3333333333333" y="156.66666666666669" type="line" smooth="yes"/>
      <point x="576.0999999999999" y="162.46666666666667"/>
      <point x="567.8" y="182.2"/>
      <point x="581.5" y="234.33333333333331" type="curve" smooth="yes"/>
      <point x="623.8333333333333" y="402.9333333333333"/>
      <point x="799.0" y="1072.2"/>
      <point x="811.8333333333333" y="1121.5666666666666" type="curve" smooth="yes"/>
      <point x="838.450484455365" y="1213.7488972046665"/>
      <point x="874.2333333333333" y="1255.0"/>
      <point x="943.0" y="1255.0" type="curve" smooth="yes"/>
      <point x="1027.5" y="1255.0"/>
      <point x="1101.4" y="1176.4820512820513"/>
      <point x="1066.2" y="959.7" type="curve" smooth="yes"/>
      <point x="1030.2" y="713.6644822006473"/>
      <point x="908.8000000000001" y="577.3333333333333"/>
      <point x="747.7" y="577.3333333333333" type="curve" smooth="yes"/>
      <point x="681.0333333333333" y="577.3333333333333"/>
      <point x="625.8" y="594.1"/>
      <point x="567.1666666666666" y="633.9333333333333" type="curve"/>
      <point x="521.3666666666667" y="499.8" type="line"/>
      <point x="615.0" y="455.20000000000005"/>
      <point x="689.0333333333333" y="437.8333333333333"/>
      <point x="821.6666666666667" y="437.8333333333333" type="curve" smooth="yes"/>
      <point x="1155.6999999999998" y="437.8333333333333"/>
      <point x="1442.7666666666669" y="615.4839462930531"/>
    </contour>
  </outline>
</glyph>
<glyph name="Q" format="2">
  <advance width="1522.1333333333332"/>
  <unicode hex="0051"/>
  <outline>
    <contour>
      <point x="689.2666666666667" y="373.1333333333333" type="curve" smooth="yes"/>
      <point x="570.2345492866983" y="-121.10679024027034"/>
      <point x="688.0666666666666" y="-364.43333333333334"/>
      <point x="950.6" y="-384.9666666666667" type="curve" smooth="yes"/>
      <point x="1076.403448275862" y="-395.06666666666666"/>
      <point x="1127.5719095385068" y="-363.522698724668"/>
      <point x="1166.1333333333334" y="-312.26666666666665" type="curve" smooth="yes"/>
      <point x="1269.3" y="-169.29999999999998" type="line" smooth="yes"/>
      <point x="1290.5333333333333" y="-141.5"/>
      <point x="1283.5" y="-109.03333333333333"/>
      <point x="1263.9666666666665" y="-104.4" type="curve" smooth="yes"/>
      <point x="1233.7666666666667" y="-95.73333333333333"/>
      <point x="1173.6333333333332" y="-150.06666666666666"/>
      <point x="1017.0333333333333" y="-131.23333333333335" type="curve" smooth="yes"/>
      <point x="806.0333333333333" y="-107.86666666666666"/>
      <point x="702.2069893905507" y="11.994372521447804"/>
      <point x="782.2333333333333" y="365.5" type="curve" smooth="yes"/>
      <point x="791.2666666666667" y="402.2666666666667"/>
      <point x="783.7666666666668" y="428.83333333333337"/>
      <point x="751.3000000000001" y="434.40000000000003" type="curve" smooth="yes"/>
      <point x="720.4" y="439.7"/>
      <point x="700.1333333333333" y="416.56666666666666"/>
    </contour>
    <contour>
      <point x="991.0333333333334" y="1425.7333333333333" type="curve" smooth="yes"/>
      <point x="519.9" y="1428.6666666666665"/>
      <point x="186.16666666666666" y="1094.6"/>
      <point x="114.0" y="675.0" type="curve" smooth="yes"/>
      <point x="29.96666666666667" y="248.76666666666668"/>
      <point x="231.96666666666667" y="-20.0"/>
      <point x="632.9333333333334" y="-24.266666666666666" type="curve" smooth="yes"/>
      <point x="1061.0" y="-28.799999999999997"/>
      <point x="1441.7" y="251.53333333333336"/>
      <point x="1522.5" y="747.7333333333332" type="curve" smooth="yes"/>
      <point x="1592.3" y="1138.9333333333334"/>
      <point x="1386.2666666666667" y="1423.0666666666668"/>
    </contour>
    <contour>
      <point x="670.8333333333333" y="116.26666666666667" type="curve" smooth="yes"/>
      <point x="593.5" y="117.86666666666666"/>
      <point x="544.0999999999999" y="164.93333333333334"/>
      <point x="544.3333333333334" y="314.3666666666667" type="curve" smooth="yes"/>
      <point x="544.8333333333334" y="405.2"/>
      <point x="563.5" y="534.0333333333333"/>
      <point x="607.2666666666667" y="714.1" type="curve" smooth="yes"/>
      <point x="713.7333333333332" y="1157.4666666666667"/>
      <point x="840.3" y="1292.2666666666667"/>
      <point x="961.7" y="1285.6" type="curve" smooth="yes"/>
      <point x="1039.3666666666666" y="1282.1333333333332"/>
      <point x="1083.3" y="1225.0"/>
      <point x="1083.6" y="1080.1666666666667" type="curve" smooth="yes"/>
      <point x="1084.1333333333332" y="991.7333333333333"/>
      <point x="1067.7" y="871.1"/>
      <point x="1028.9" y="708.6333333333333" type="curve" smooth="yes"/>
      <point x="914.6666666666666" y="233.6"/>
      <point x="784.1666666666666" y="113.60000000000001"/>
    </contour>
  </outline>
</glyph>
<glyph name="R" format="2">
  <advance width="1505.2333333333333"/>
  <unicode hex="0052"/>
  <anchor x="995.5333333333333" y="1485.0" name="center"/>
  <outline>
    <contour>
      <point x="477.73333333333335" y="582.8" type="line"/>
      <point x="561.0" y="536.6333333333333"/>
      <point x="651.8" y="506.8666666666667"/>
      <point x="805.7666666666667" y="508.73333333333335" type="curve" smooth="yes"/>
      <point x="1197.6333333333332" y="512.2"/>
      <point x="1467.1666666666667" y="687.2"/>
      <point x="1504.7333333333333" y="954.5666666666666" type="curve" smooth="yes"/>
      <point x="1548.5666666666668" y="1228.2333333333333"/>
      <point x="1349.0666666666666" y="1400.0"/>
      <point x="986.9000000000001" y="1400.0" type="curve" smooth="yes"/>
      <point x="376.73333333333335" y="1400.0" type="line" smooth="yes"/>
      <point x="320.8666666666667" y="1400.0"/>
      <point x="289.56666666666666" y="1368.0"/>
      <point x="289.8" y="1321.3" type="curve" smooth="yes"/>
      <point x="289.56666666666666" y="1291.0666666666666"/>
      <point x="304.6333333333334" y="1273.3000000000002"/>
      <point x="332.4" y="1259.1333333333334" type="curve" smooth="yes"/>
      <point x="373.56666666666666" y="1245.3666666666666" type="line" smooth="yes"/>
      <point x="408.2666666666667" y="1229.2333333333333"/>
      <point x="406.3333333333333" y="1210.9333333333334"/>
      <point x="395.06666666666666" y="1159.5333333333333" type="curve" smooth="yes"/>
      <point x="367.2" y="1042.8666666666668"/>
      <point x="178.46666666666667" y="340.1333333333333"/>
      <point x="146.53333333333333" y="227.23333333333332" type="curve" smooth="yes"/>
      <point x="134.73333333333332" y="187.93333333333334"/>
      <point x="123.33333333333333" y="170.33333333333331"/>
      <point x="95.76666666666667" y="159.5" type="curve" smooth="yes"/>
      <point x="49.8" y="145.20000000000002" type="line" smooth="yes"/>
      <point x="21.166666666666664" y="132.5"/>
      <point x="-4.5" y="106.39999999999999"/>
      <point x="-4.266666666666666" y="67.03333333333335" type="curve" smooth="yes"/>
      <point x="-4.5" y="27.93333333333333"/>
      <point x="11.499999999999998" y="0.0"/>
      <point x="70.69999999999999" y="0.0" type="curve" smooth="yes"/>
      <point x="593.8000000000001" y="0.0" type="line" smooth="yes"/>
      <point x="651.2333333333333" y="0.0"/>
      <point x="679.7" y="30.733333333333338"/>
      <point x="679.7" y="77.16666666666667" type="curve" smooth="yes"/>
      <point x="679.7" y="110.39999999999999"/>
      <point x="661.6666666666666" y="128.63333333333333"/>
      <point x="633.6333333333333" y="146.70000000000002" type="curve" smooth="yes"/>
      <point x="595.6999999999999" y="161.33333333333334" type="line" smooth="yes"/>
      <point x="573.2333333333333" y="173.03333333333333"/>
      <point x="560.5666666666667" y="179.0"/>
      <point x="572.4333333333333" y="230.56666666666666" type="curve" smooth="yes"/>
      <point x="601.7333333333332" y="359.53333333333336"/>
      <point x="782.1" y="1039.5333333333333"/>
      <point x="816.9333333333333" y="1154.4666666666667" type="curve" smooth="yes"/>
      <point x="837.9573976358969" y="1221.6424622121435"/>
      <point x="867.9333333333334" y="1263.8000000000002"/>
      <point x="945.2" y="1263.8000000000002" type="curve" smooth="yes"/>
      <point x="1040.5666666666666" y="1263.8000000000002"/>
      <point x="1115.0333333333333" y="1186.4329588014982"/>
      <point x="1091.2333333333333" y="999.2666666666667" type="curve" smooth="yes"/>
      <point x="1064.7333333333333" y="783.8510638297872"/>
      <point x="951.7333333333333" y="641.8333333333334"/>
      <point x="780.2333333333333" y="641.8333333333334" type="curve" smooth="yes"/>
      <point x="702.5999999999999" y="641.8333333333334"/>
      <point x="637.9333333333333" y="654.9"/>
      <point x="580.6333333333333" y="692.1999999999999" type="curve"/>
    </contour>
    <contour>
      <point x="754.1333333333333" y="529.0" type="line"/>
      <point x="846.8333333333334" y="135.76666666666668" type="line" smooth="yes"/>
      <point x="874.5333333333333" y="17.733333333333334"/>
      <point x="940.9333333333334" y="-29.76666666666667"/>
      <point x="1060.1666666666667" y="-29.76666666666667" type="curve" smooth="yes"/>
      <point x="1231.1333333333332" y="-29.76666666666667"/>
      <point x="1385.0333333333333" y="67.76666666666667"/>
      <point x="1452.4333333333332" y="231.03333333333333" type="curve" smooth="yes"/>
      <point x="1470.2333333333333" y="277.46666666666664"/>
      <point x="1462.6666666666667" y="312.3666666666667"/>
      <point x="1433.5666666666668" y="323.09999999999997" type="curve" smooth="yes"/>
      <point x="1415.1666666666665" y="330.1666666666667"/>
      <point x="1392.8333333333333" y="321.1333333333333"/>
      <point x="1378.3333333333333" y="309.26666666666665" type="curve" smooth="yes"/>
      <point x="1350.3333333333335" y="280.43333333333334"/>
      <point x="1325.0333333333333" y="264.2"/>
      <point x="1296.5333333333333" y="264.2" type="curve" smooth="yes"/>
      <point x="1258.5666666666666" y="264.2"/>
      <point x="1234.3" y="298.7"/>
      <point x="1220.0666666666666" y="351.73333333333335" type="curve" smooth="yes"/>
      <point x="1148.3666666666668" y="599.0333333333333" type="line"/>
    </contour>
  </outline>
</glyph>
<glyph name="S" format="2">
  <advance width="1230.2666666666667"/>
  <unicode hex="0053"/>
  <anchor x="879.7333333333333" y="1528.0" name="center"/>
  <outline>
    <contour>
      <point x="619.3" y="-24.266666666666666" type="curve" smooth="yes"/>
      <point x="909.9666666666666" y="-24.266666666666666"/>
      <point x="1108.5" y="136.33333333333334"/>
      <point x="1128.5333333333333" y="350.66666666666663" type="curve" smooth="yes"/>
      <point x="1147.0666666666666" y="531.3666666666667"/>
      <point x="1079.1967182854173" y="662.2208474343744"/>
      <point x="817.2" y="835.6666666666666" type="curve" smooth="yes"/>
      <point x="665.1487194360822" y="935.4865808327264"/>
      <point x="612.3666666666667" y="1019.0666666666666"/>
      <point x="624.5" y="1121.1333333333334" type="curve" smooth="yes"/>
      <point x="635.4666666666667" y="1217.9"/>
      <point x="700.5666666666666" y="1291.1000000000001"/>
      <point x="803.0666666666667" y="1291.1000000000001" type="curve" smooth="yes"/>
      <point x="888.1999999999999" y="1291.1000000000001"/>
      <point x="946.6" y="1236.1"/>
      <point x="979.6666666666667" y="1122.5666666666666" type="curve" smooth="yes"/>
      <point x="1004.4666666666667" y="1035.4" type="line" smooth="yes"/>
      <point x="1038.6333333333334" y="932.1666666666667"/>
      <point x="1082.4333333333334" y="893.7333333333333"/>
      <point x="1156.8" y="893.7333333333333" type="curve" smooth="yes"/>
      <point x="1253.4333333333334" y="893.7333333333333"/>
      <point x="1308.2" y="970.9666666666666"/>
      <point x="1311.9666666666667" y="1070.9333333333334" type="curve" smooth="yes"/>
      <point x="1319.3000000000002" y="1248.4666666666665"/>
      <point x="1152.5333333333333" y="1427.8666666666666"/>
      <point x="824.8333333333334" y="1427.8666666666666" type="curve" smooth="yes"/>
      <point x="452.56666666666666" y="1427.8666666666666"/>
      <point x="244.7" y="1219.0"/>
      <point x="224.43333333333334" y="969.5" type="curve" smooth="yes"/>
      <point x="208.73333333333335" y="785.4666666666667"/>
      <point x="291.26576051430794" y="658.9333368448503"/>
      <point x="487.66666666666663" y="539.4" type="curve" smooth="yes"/>
      <point x="654.3115984739014" y="438.5291285410058"/>
      <point x="706.5333333333333" y="352.29999999999995"/>
      <point x="690.8333333333334" y="255.1" type="curve" smooth="yes"/>
      <point x="679.5819368414847" y="175.19035165455267"/>
      <point x="624.9819277108434" y="127.73333333333332"/>
      <point x="534.1" y="127.73333333333332" type="curve" smooth="yes"/>
      <point x="421.83056994818656" y="127.73333333333332"/>
      <point x="329.41773269196847" y="192.3744379064156"/>
      <point x="291.8333333333333" y="314.8666666666667" type="curve" smooth="yes"/>
      <point x="260.26666666666665" y="436.0" type="line" smooth="yes"/>
      <point x="234.83333333333334" y="502.3666666666667"/>
      <point x="215.19324618736385" y="531.0666666666666"/>
      <point x="171.33333333333334" y="531.0666666666666" type="curve" smooth="yes"/>
      <point x="126.1941475826972" y="531.0666666666666"/>
      <point x="98.85205691845533" y="494.03513433429663"/>
      <point x="92.73333333333333" y="429.0333333333333" type="curve" smooth="yes"/>
      <point x="37.266666666666666" y="75.66666666666666" type="line" smooth="yes"/>
      <point x="30.7" y="9.966666666666667"/>
      <point x="58.93333333333333" y="-17.633333333333333"/>
      <point x="108.76666666666668" y="-17.633333333333333" type="curve" smooth="yes"/>
      <point x="171.19512195121953" y="-17.633333333333333"/>
      <point x="248.73333333333332" y="81.43333333333332"/>
      <point x="289.6" y="81.43333333333332" type="curve" smooth="yes"/>
      <point x="331.54587458745874" y="81.43333333333332"/>
      <point x="392.1586803854319" y="-24.266666666666666"/>
    </contour>
  </outline>
</glyph>
<glyph name="T" format="2">
  <advance width="1297.3999999999999"/>
  <unicode hex="0054"/>
  <anchor x="510.6333333333333" y="1523.0" name="center"/>
  <outline>
    <contour>
      <point x="528.3000000000001" y="1425.9" type="curve" smooth="yes"/>
      <point x="292.90000000000003" y="1425.9"/>
      <point x="156.64845268050317" y="1277.078867279247"/>
      <point x="153.10000000000002" y="1096.8666666666666" type="curve" smooth="yes"/>
      <point x="150.33333333333334" y="971.2666666666667"/>
      <point x="218.96666666666667" y="898.6333333333334"/>
      <point x="322.3666666666667" y="898.6333333333334" type="curve" smooth="yes"/>
      <point x="413.9" y="898.6333333333334"/>
      <point x="468.8666666666667" y="959.6"/>
      <point x="469.3666666666667" y="1041.9333333333334" type="curve" smooth="yes"/>
      <point x="469.83333333333337" y="1096.1333333333332"/>
      <point x="452.06666666666666" y="1125.3000000000002"/>
      <point x="453.06666666666666" y="1172.9" type="curve" smooth="yes"/>
      <point x="454.06666666666666" y="1248.6666666666667"/>
      <point x="488.76666666666665" y="1287.3333333333333"/>
      <point x="553.4" y="1287.3333333333333" type="curve" smooth="yes"/>
      <point x="711.1348773841962" y="1287.3333333333333"/>
      <point x="1108.557824933687" y="1138.1333333333334"/>
      <point x="1275.4" y="1138.1333333333334" type="curve" smooth="yes"/>
      <point x="1439.6666666666665" y="1138.1333333333334"/>
      <point x="1543.3666666666666" y="1239.3666666666668"/>
      <point x="1546.3666666666666" y="1402.4" type="curve" smooth="yes"/>
      <point x="1547.6333333333332" y="1516.0666666666666"/>
      <point x="1487.6666666666665" y="1578.8333333333333"/>
      <point x="1401.1333333333332" y="1578.8333333333333" type="curve" smooth="yes"/>
      <point x="1310.6" y="1578.8333333333333"/>
      <point x="1264.1666666666667" y="1525.1333333333334"/>
      <point x="1249.6333333333334" y="1440.9" type="curve" smooth="yes"/>
      <point x="1246.1000000000001" y="1404.8"/>
      <point x="1250.3" y="1380.2"/>
      <point x="1246.5" y="1356.7" type="curve" smooth="yes"/>
      <point x="1238.3666666666666" y="1321.2333333333333"/>
      <point x="1219.0666666666666" y="1303.8"/>
      <point x="1184.7333333333333" y="1303.8" type="curve" smooth="yes"/>
      <point x="1065.3882466281311" y="1303.8"/>
      <point x="764.9916666666667" y="1425.9"/>
    </contour>
    <contour>
      <point x="822.5333333333334" y="230.7" type="curve" smooth="yes"/>
      <point x="855.4666666666667" y="345.3333333333333"/>
      <point x="1032.3333333333333" y="1007.9"/>
      <point x="1108.9333333333334" y="1263.4333333333334" type="curve"/>
      <point x="704.0333333333333" y="1341.3666666666668" type="line"/>
      <point x="663.6333333333333" y="1200.4333333333332"/>
      <point x="442.8854857653066" y="406.8919018914436"/>
      <point x="396.46666666666664" y="256.6" type="curve" smooth="yes"/>
      <point x="378.2333333333333" y="197.6"/>
      <point x="362.7" y="170.63333333333333"/>
      <point x="341.1" y="161.53333333333336" type="curve" smooth="yes"/>
      <point x="291.79999999999995" y="144.70000000000002" type="line" smooth="yes"/>
      <point x="258.83333333333337" y="128.4333333333333"/>
      <point x="237.23333333333335" y="103.79999999999998"/>
      <point x="237.23333333333335" y="64.19999999999999" type="curve" smooth="yes"/>
      <point x="237.23333333333335" y="26.133333333333333"/>
      <point x="258.56666666666666" y="0.0"/>
      <point x="311.96666666666664" y="0.0" type="curve" smooth="yes"/>
      <point x="843.7333333333333" y="0.0" type="line" smooth="yes"/>
      <point x="895.3" y="0.0"/>
      <point x="931.9" y="25.366666666666664"/>
      <point x="931.9" y="75.9" type="curve" smooth="yes"/>
      <point x="931.9" y="103.79999999999998"/>
      <point x="919.2666666666667" y="122.53333333333332"/>
      <point x="887.8666666666667" y="139.83333333333334" type="curve" smooth="yes"/>
      <point x="840.2666666666667" y="158.23333333333335" type="line" smooth="yes"/>
      <point x="817.8333333333334" y="167.93333333333334"/>
      <point x="809.2" y="184.53333333333333"/>
    </contour>
  </outline>
</glyph>
<glyph name="U" format="2">
  <advance width="1431.5"/>
  <unicode hex="0055"/>
  <anchor x="1048.6666666666667" y="1476.8999999999999" name="center"/>
  <outline>
    <contour>
      <point x="1081.5333333333333" y="469.53333333333336" type="line" smooth="yes"/>
      <point x="1014.6333333333333" y="233.06666666666666"/>
      <point x="907.9" y="154.66666666666666"/>
      <point x="774.9000000000001" y="154.66666666666666" type="curve" smooth="yes"/>
      <point x="667.5" y="154.66666666666666"/>
      <point x="601.2666666666667" y="218.83333333333334"/>
      <point x="602.8" y="350.0" type="curve" smooth="yes"/>
      <point x="603.5666666666666" y="414.3333333333333"/>
      <point x="618.2666666666667" y="495.40000000000003"/>
      <point x="656.5" y="636.9666666666667" type="curve" smooth="yes"/>
      <point x="783.8" y="1115.3333333333333" type="line" smooth="yes"/>
      <point x="804.7333333333333" y="1191.7"/>
      <point x="816.9999999999999" y="1226.8999999999999"/>
      <point x="856.5666666666667" y="1242.8" type="curve" smooth="yes"/>
      <point x="893.1" y="1252.0" type="line" smooth="yes"/>
      <point x="930.2333333333333" y="1267.8666666666666"/>
      <point x="946.9333333333333" y="1305.1000000000001"/>
      <point x="947.6999999999999" y="1338.6333333333334" type="curve" smooth="yes"/>
      <point x="948.1999999999999" y="1379.2"/>
      <point x="924.3000000000001" y="1400.0"/>
      <point x="875.7666666666668" y="1400.0" type="curve" smooth="yes"/>
      <point x="319.76666666666665" y="1400.0" type="line" smooth="yes"/>
      <point x="280.6666666666667" y="1400.0"/>
      <point x="256.0333333333333" y="1370.0333333333333"/>
      <point x="255.26666666666665" y="1335.2666666666667" type="curve" smooth="yes"/>
      <point x="254.5" y="1299.5333333333333"/>
      <point x="266.40000000000003" y="1285.8333333333333"/>
      <point x="298.3666666666667" y="1260.1666666666667" type="curve" smooth="yes"/>
      <point x="330.6666666666667" y="1248.9" type="line" smooth="yes"/>
      <point x="355.40000000000003" y="1233.4666666666667"/>
      <point x="363.3333333333333" y="1178.0"/>
      <point x="347.3666666666667" y="1119.1666666666665" type="curve" smooth="yes"/>
      <point x="219.76666666666668" y="635.0333333333333" type="line" smooth="yes"/>
      <point x="196.46666666666667" y="549.3"/>
      <point x="163.70000000000002" y="422.9666666666667"/>
      <point x="162.43333333333334" y="337.73333333333335" type="curve" smooth="yes"/>
      <point x="160.63333333333333" y="138.23333333333332"/>
      <point x="308.56666666666666" y="-24.266666666666666"/>
      <point x="620.8666666666667" y="-24.266666666666666" type="curve"/>
      <point x="935.6333333333333" y="-24.266666666666666"/>
      <point x="1140.6666666666667" y="110.03333333333333"/>
      <point x="1237.4" y="456.1333333333333" type="curve" smooth="yes"/>
      <point x="1390.8333333333333" y="1006.6999999999999" type="line" smooth="yes"/>
      <point x="1427.8" y="1141.6333333333334"/>
      <point x="1471.0333333333333" y="1205.9666666666667"/>
      <point x="1544.6666666666667" y="1238.3666666666668" type="curve" smooth="yes"/>
      <point x="1563.2" y="1246.6666666666667" type="line" smooth="yes"/>
      <point x="1605.3333333333335" y="1267.7"/>
      <point x="1631.0666666666666" y="1288.5333333333333"/>
      <point x="1631.0666666666666" y="1335.5" type="curve" smooth="yes"/>
      <point x="1631.0666666666666" y="1373.0666666666668"/>
      <point x="1608.7" y="1400.0"/>
      <point x="1561.6666666666667" y="1400.0" type="curve" smooth="yes"/>
      <point x="1189.0" y="1400.0" type="line" smooth="yes"/>
      <point x="1134.8666666666666" y="1400.0"/>
      <point x="1106.9" y="1368.0"/>
      <point x="1106.4" y="1329.1666666666665" type="curve" smooth="yes"/>
      <point x="1105.6333333333334" y="1292.8999999999999"/>
      <point x="1119.0666666666666" y="1273.8666666666666"/>
      <point x="1165.5666666666668" y="1248.4666666666667" type="curve" smooth="yes"/>
      <point x="1187.1666666666667" y="1240.1666666666667" type="line" smooth="yes"/>
      <point x="1257.4666666666667" y="1211.9666666666667"/>
      <point x="1271.1999999999998" y="1141.2"/>
      <point x="1237.5333333333333" y="1019.1333333333333" type="curve" smooth="yes"/>
    </contour>
  </outline>
</glyph>
<glyph name="V" format="2">
  <advance width="1391.9333333333332"/>
  <unicode hex="0056"/>
  <outline>
    <contour>
      <point x="1074.8666666666666" y="1326.5666666666666" type="curve" smooth="yes"/>
      <point x="1074.8666666666666" y="1296.4333333333334"/>
      <point x="1090.6666666666667" y="1272.8"/>
      <point x="1119.2333333333333" y="1254.9666666666667" type="curve" smooth="yes"/>
      <point x="1145.4333333333334" y="1241.0333333333335" type="line" smooth="yes"/>
      <point x="1217.7666666666667" y="1204.5333333333335"/>
      <point x="1234.8333333333333" y="1137.1666666666667"/>
      <point x="1152.9333333333334" y="1003.1666666666667" type="curve" smooth="yes"/>
      <point x="623.3333333333334" y="136.43333333333334" type="line"/>
      <point x="758.7333333333333" y="186.6" type="line"/>
      <point x="760.4333333333333" y="543.3333333333334"/>
      <point x="748.2333333333333" y="988.8"/>
      <point x="749.4" y="1105.3" type="curve" smooth="yes"/>
      <point x="748.1" y="1198.9"/>
      <point x="767.5333333333333" y="1229.5333333333335"/>
      <point x="810.4666666666666" y="1242.2666666666667" type="curve" smooth="yes"/>
      <point x="849.8666666666666" y="1252.2" type="line" smooth="yes"/>
      <point x="885.5666666666666" y="1264.3"/>
      <point x="905.5666666666667" y="1289.2666666666667"/>
      <point x="905.5666666666667" y="1334.4666666666667" type="curve" smooth="yes"/>
      <point x="905.5666666666667" y="1376.6333333333334"/>
      <point x="879.4666666666666" y="1400.0"/>
      <point x="838.7" y="1400.0" type="curve" smooth="yes"/>
      <point x="303.3" y="1400.0" type="line" smooth="yes"/>
      <point x="254.5" y="1400.0"/>
      <point x="216.13333333333333" y="1367.3666666666666"/>
      <point x="216.13333333333333" y="1325.7666666666667" type="curve" smooth="yes"/>
      <point x="216.13333333333333" y="1291.2190476190476"/>
      <point x="233.4899722664518" y="1267.7002939556808"/>
      <point x="258.1" y="1254.2666666666667" type="curve" smooth="yes"/>
      <point x="281.8666666666667" y="1245.1" type="line" smooth="yes"/>
      <point x="311.2448295675682" y="1230.8016271966962"/>
      <point x="321.3" y="1205.3333333333333"/>
      <point x="321.8666666666667" y="1156.3666666666668" type="curve" smooth="yes"/>
      <point x="327.0" y="972.3"/>
      <point x="338.8666666666667" y="423.83333333333337"/>
      <point x="340.7" y="330.4" type="curve" smooth="yes"/>
      <point x="342.23333333333335" y="298.26666666666665"/>
      <point x="348.8666666666667" y="237.93333333333334"/>
      <point x="339.26666666666665" y="201.39999999999998" type="curve" smooth="yes"/>
      <point x="314.8333333333333" y="108.06666666666666" type="line" smooth="yes"/>
      <point x="297.9333333333333" y="45.06666666666667"/>
      <point x="324.1666666666667" y="0.0"/>
      <point x="377.5" y="0.0" type="curve" smooth="yes"/>
      <point x="707.1333333333333" y="0.0" type="line" smooth="yes"/>
      <point x="766.7333333333333" y="0.0"/>
      <point x="791.3" y="41.733333333333334"/>
      <point x="804.6666666666667" y="90.3" type="curve" smooth="yes"/>
      <point x="824.3333333333333" y="160.29999999999998" type="line" smooth="yes"/>
      <point x="835.3333333333333" y="199.06666666666666"/>
      <point x="847.0999999999999" y="227.39999999999998"/>
      <point x="870.0333333333333" y="263.59999999999997" type="curve" smooth="yes"/>
      <point x="1309.3333333333333" y="965.7333333333333" type="line" smooth="yes"/>
      <point x="1400.6078485763817" y="1110.6166145826362"/>
      <point x="1455.8999170406385" y="1198.2832918536526"/>
      <point x="1524.9" y="1232.6333333333332" type="curve" smooth="yes"/>
      <point x="1548.8333333333333" y="1244.4333333333334" type="line" smooth="yes"/>
      <point x="1586.240134227758" y="1263.1867337805456"/>
      <point x="1603.9333333333334" y="1287.2"/>
      <point x="1603.9333333333334" y="1331.1666666666665" type="curve" smooth="yes"/>
      <point x="1603.9333333333334" y="1371.5333333333333"/>
      <point x="1578.3666666666666" y="1400.0"/>
      <point x="1526.5666666666666" y="1400.0" type="curve" smooth="yes"/>
      <point x="1142.6666666666667" y="1400.0" type="line" smooth="yes"/>
      <point x="1101.1" y="1400.0"/>
      <point x="1074.8666666666666" y="1370.2666666666667"/>
    </contour>
  </outline>
</glyph>
<glyph name="W" format="2">
  <advance width="2089.2666666666664"/>
  <unicode hex="0057"/>
  <anchor x="1399.3" y="1487.8" name="center"/>
  <outline>
    <contour>
      <point x="1161.6666666666667" y="1129.6333333333332" type="line"/>
      <point x="609.0" y="225.13333333333333" type="line"/>
      <point x="721.9333333333334" y="239.03333333333333" type="line"/>
      <point x="721.0" y="578.3333333333334"/>
      <point x="733.0333333333334" y="997.8333333333334"/>
      <point x="736.8000000000001" y="1137.2666666666667" type="curve" smooth="yes"/>
      <point x="738.7666666666667" y="1197.7666666666667"/>
      <point x="753.9000000000001" y="1227.4"/>
      <point x="793.6666666666667" y="1242.0333333333333" type="curve" smooth="yes"/>
      <point x="832.8333333333334" y="1254.0333333333333" type="line" smooth="yes"/>
      <point x="867.3333333333334" y="1270.5333333333333"/>
      <point x="887.9333333333333" y="1298.1999999999998"/>
      <point x="887.9333333333333" y="1334.2333333333331" type="curve" smooth="yes"/>
      <point x="887.9333333333333" y="1374.1000000000001"/>
      <point x="869.3666666666667" y="1400.0"/>
      <point x="809.8666666666667" y="1400.0" type="curve" smooth="yes"/>
      <point x="304.0333333333333" y="1400.0" type="line" smooth="yes"/>
      <point x="246.60000000000002" y="1400.0"/>
      <point x="215.86666666666667" y="1371.0333333333333"/>
      <point x="215.86666666666667" y="1327.8999999999999" type="curve" smooth="yes"/>
      <point x="215.86666666666667" y="1292.1333333333332"/>
      <point x="232.6" y="1271.8666666666666"/>
      <point x="264.26666666666665" y="1255.1333333333332" type="curve" smooth="yes"/>
      <point x="290.1333333333334" y="1245.3999999999999" type="line" smooth="yes"/>
      <point x="318.6666666666667" y="1232.8"/>
      <point x="318.53333333333336" y="1200.5333333333333"/>
      <point x="318.8" y="1163.0333333333333" type="curve" smooth="yes"/>
      <point x="325.46666666666664" y="938.2333333333333"/>
      <point x="321.4" y="422.76666666666665"/>
      <point x="324.23333333333335" y="292.5" type="curve" smooth="yes"/>
      <point x="325.76666666666665" y="246.46666666666664"/>
      <point x="320.7333333333333" y="214.36666666666665"/>
      <point x="312.66666666666663" y="184.86666666666665" type="curve" smooth="yes"/>
      <point x="288.0" y="91.03333333333333" type="line" smooth="yes"/>
      <point x="270.8333333333333" y="29.299999999999997"/>
      <point x="302.90000000000003" y="0.0"/>
      <point x="371.73333333333335" y="0.0" type="curve" smooth="yes"/>
      <point x="612.5666666666666" y="0.0" type="line" smooth="yes"/>
      <point x="687.1999999999999" y="0.0"/>
      <point x="715.3666666666667" y="29.266666666666666"/>
      <point x="732.8" y="83.43333333333332" type="curve" smooth="yes"/>
      <point x="753.5666666666667" y="147.89999999999998" type="line" smooth="yes"/>
      <point x="769.6" y="196.96666666666667"/>
      <point x="782.8333333333334" y="225.13333333333333"/>
      <point x="806.8333333333334" y="265.0" type="curve" smooth="yes"/>
      <point x="1247.7666666666667" y="996.2" type="line"/>
    </contour>
    <contour>
      <point x="1775.9" y="1322.5666666666666" type="curve" smooth="yes"/>
      <point x="1775.9" y="1295.1666666666665"/>
      <point x="1787.8333333333333" y="1277.1666666666665"/>
      <point x="1810.3333333333333" y="1264.2333333333333" type="curve" smooth="yes"/>
      <point x="1844.6666666666667" y="1246.6" type="line" smooth="yes"/>
      <point x="1930.3666666666666" y="1205.4"/>
      <point x="1924.4333333333334" y="1120.9333333333334"/>
      <point x="1870.0666666666668" y="1023.2666666666665" type="curve" smooth="yes"/>
      <point x="1431.6666666666667" y="250.3" type="line"/>
      <point x="1541.2333333333333" y="237.79999999999998" type="line"/>
      <point x="1525.5" y="480.46666666666664"/>
      <point x="1514.3999999999999" y="981.0666666666667"/>
      <point x="1510.2666666666667" y="1112.1000000000001" type="curve" smooth="yes"/>
      <point x="1507.9666666666667" y="1185.3000000000002"/>
      <point x="1520.3999999999999" y="1221.3333333333335"/>
      <point x="1560.7" y="1238.7333333333333" type="curve" smooth="yes"/>
      <point x="1595.1333333333334" y="1252.0" type="line" smooth="yes"/>
      <point x="1631.6999999999998" y="1270.5333333333333"/>
      <point x="1655.3333333333335" y="1295.8999999999999"/>
      <point x="1655.3333333333335" y="1332.1999999999998" type="curve" smooth="yes"/>
      <point x="1655.3333333333335" y="1378.1666666666667"/>
      <point x="1627.1" y="1400.0"/>
      <point x="1580.6000000000001" y="1400.0" type="curve" smooth="yes"/>
      <point x="1109.0666666666668" y="1400.0" type="line" smooth="yes"/>
      <point x="1051.9" y="1400.0"/>
      <point x="1019.8666666666668" y="1371.0333333333333"/>
      <point x="1019.8666666666668" y="1320.7666666666667" type="curve" smooth="yes"/>
      <point x="1019.8666666666668" y="1295.9333333333334"/>
      <point x="1035.3666666666668" y="1274.1333333333332"/>
      <point x="1059.4" y="1260.9333333333334" type="curve" smooth="yes"/>
      <point x="1083.1333333333332" y="1248.0" type="line" smooth="yes"/>
      <point x="1108.6666666666665" y="1236.9666666666667"/>
      <point x="1111.8" y="1215.5"/>
      <point x="1116.3999999999999" y="1163.5333333333333" type="curve" smooth="yes"/>
      <point x="1137.3000000000002" y="949.4666666666667"/>
      <point x="1141.7666666666667" y="442.96666666666664"/>
      <point x="1151.7" y="254.13333333333333" type="curve" smooth="yes"/>
      <point x="1153.2333333333333" y="226.36666666666665"/>
      <point x="1145.4333333333334" y="197.6"/>
      <point x="1137.9333333333334" y="170.13333333333333" type="curve" smooth="yes"/>
      <point x="1120.4666666666667" y="103.39999999999999" type="line" smooth="yes"/>
      <point x="1105.1000000000001" y="45.300000000000004"/>
      <point x="1137.1666666666667" y="0.0"/>
      <point x="1191.3666666666668" y="0.0" type="curve" smooth="yes"/>
      <point x="1455.7666666666667" y="0.0" type="line" smooth="yes"/>
      <point x="1508.8333333333333" y="0.0"/>
      <point x="1548.9333333333332" y="31.833333333333332"/>
      <point x="1559.6999999999998" y="88.26666666666667" type="curve" smooth="yes"/>
      <point x="1575.0" y="153.83333333333331" type="line" smooth="yes"/>
      <point x="1586.8999999999999" y="207.9333333333333"/>
      <point x="1594.4333333333334" y="240.16666666666666"/>
      <point x="1618.5" y="280.5333333333333" type="curve" smooth="yes"/>
      <point x="2028.6333333333332" y="1002.3666666666667" type="line" smooth="yes"/>
      <point x="2092.6333333333337" y="1115.0333333333333"/>
      <point x="2155.5333333333333" y="1208.1666666666667"/>
      <point x="2215.8333333333335" y="1237.8666666666668" type="curve" smooth="yes"/>
      <point x="2250.4666666666667" y="1255.3" type="line" smooth="yes"/>
      <point x="2284.9666666666667" y="1272.5333333333333"/>
      <point x="2304.0333333333333" y="1301.2333333333333"/>
      <point x="2304.0333333333333" y="1332.1999999999998" type="curve" smooth="yes"/>
      <point x="2304.0333333333333" y="1372.5333333333333"/>
      <point x="2285.2999999999997" y="1400.0"/>
      <point x="2229.3" y="1400.0" type="curve" smooth="yes"/>
      <point x="1863.6" y="1400.0" type="line" smooth="yes"/>
      <point x="1807.1666666666665" y="1400.0"/>
      <point x="1775.9" y="1368.0"/>
    </contour>
  </outline>
</glyph>
<glyph name="X" format="2">
  <advance width="1401.4333333333334"/>
  <unicode hex="0058"/>
  <outline>
    <contour>
      <point x="590.1" y="729.4000000000001" type="line"/>
      <point x="204.5" y="286.09999999999997" type="line" smooth="yes"/>
      <point x="151.43333333333334" y="223.1"/>
      <point x="70.0" y="176.4"/>
      <point x="31.833333333333325" y="157.0" type="curve" smooth="yes"/>
      <point x="-20.03333333333333" y="131.5"/>
      <point x="-37.23333333333333" y="106.6"/>
      <point x="-37.23333333333333" y="67.56666666666668" type="curve" smooth="yes"/>
      <point x="-37.23333333333333" y="25.133333333333333"/>
      <point x="-14.366666666666667" y="0.0"/>
      <point x="37.266666666666666" y="0.0" type="curve" smooth="yes"/>
      <point x="382.56666666666666" y="0.0" type="line" smooth="yes"/>
      <point x="428.56666666666666" y="0.0"/>
      <point x="464.93333333333334" y="31.500000000000004"/>
      <point x="464.93333333333334" y="76.16666666666667" type="curve" smooth="yes"/>
      <point x="464.93333333333334" y="107.1"/>
      <point x="448.43333333333334" y="126.39999999999999"/>
      <point x="427.43333333333334" y="138.29999999999998" type="curve" smooth="yes"/>
      <point x="405.33333333333337" y="148.10000000000002" type="line" smooth="yes"/>
      <point x="356.26666666666665" y="167.86666666666667"/>
      <point x="345.1666666666667" y="219.5666666666667"/>
      <point x="419.8333333333333" y="306.1" type="curve" smooth="yes"/>
      <point x="686.9" y="620.1333333333333" type="line"/>
    </contour>
    <contour>
      <point x="813.0666666666666" y="1156.6" type="curve" smooth="yes"/>
      <point x="798.3333333333334" y="1200.5"/>
      <point x="806.5666666666667" y="1228.4"/>
      <point x="839.3666666666667" y="1239.7333333333333" type="curve" smooth="yes"/>
      <point x="877.5333333333333" y="1251.0" type="line" smooth="yes"/>
      <point x="916.4" y="1270.0666666666666"/>
      <point x="937.5666666666666" y="1295.9333333333334"/>
      <point x="937.5666666666666" y="1335.2666666666667" type="curve" smooth="yes"/>
      <point x="937.5666666666666" y="1375.9"/>
      <point x="914.9666666666667" y="1400.0"/>
      <point x="861.0666666666666" y="1400.0" type="curve" smooth="yes"/>
      <point x="287.53333333333336" y="1400.0" type="line" smooth="yes"/>
      <point x="234.66666666666669" y="1400.0"/>
      <point x="200.5666666666667" y="1371.0666666666668"/>
      <point x="200.5666666666667" y="1328.6666666666665" type="curve" smooth="yes"/>
      <point x="200.5666666666667" y="1296.4333333333334"/>
      <point x="216.33333333333334" y="1276.4333333333334"/>
      <point x="255.93333333333334" y="1255.1" type="curve" smooth="yes"/>
      <point x="312.6" y="1233.2"/>
      <point x="333.26666666666665" y="1218.7"/>
      <point x="355.96666666666664" y="1162.6" type="curve" smooth="yes"/>
      <point x="438.4297097542092" y="976.2072471582483"/>
      <point x="675.1504440732826" y="364.6762903833444"/>
      <point x="708.9333333333334" y="263.7333333333333" type="curve" smooth="yes"/>
      <point x="731.3333333333334" y="198.26666666666665"/>
      <point x="736.6333333333333" y="169.46666666666667"/>
      <point x="695.9" y="153.13333333333335" type="curve" smooth="yes"/>
      <point x="665.9" y="145.93333333333334" type="line" smooth="yes"/>
      <point x="626.6333333333333" y="126.36666666666666"/>
      <point x="610.6333333333333" y="100.99999999999999"/>
      <point x="610.6333333333333" y="67.76666666666668" type="curve" smooth="yes"/>
      <point x="610.6333333333333" y="29.46666666666667"/>
      <point x="628.1333333333333" y="0.0"/>
      <point x="686.3333333333333" y="0.0" type="curve" smooth="yes"/>
      <point x="1240.5333333333335" y="0.0" type="line" smooth="yes"/>
      <point x="1290.8666666666666" y="0.0"/>
      <point x="1321.9" y="31.500000000000004"/>
      <point x="1321.9" y="74.13333333333334" type="curve" smooth="yes"/>
      <point x="1321.9" y="106.86666666666666"/>
      <point x="1304.3666666666666" y="128.4333333333333"/>
      <point x="1267.8333333333333" y="147.23333333333335" type="curve" smooth="yes"/>
      <point x="1211.2666666666667" y="165.60000000000002"/>
      <point x="1189.5333333333333" y="185.36666666666667"/>
      <point x="1165.3" y="252.70000000000002" type="curve" smooth="yes"/>
      <point x="1077.1762748522335" y="473.81817850531843"/>
      <point x="861.7482334924191" y="1023.6792060671304"/>
    </contour>
    <contour>
      <point x="889.4000000000001" y="698.9333333333334" type="line"/>
      <point x="1073.2" y="932.4333333333334" type="line" smooth="yes"/>
      <point x="1149.5364097982804" y="1029.509300305432"/>
      <point x="1199.8638946771014" y="1060.949993576607"/>
      <point x="1278.4333333333334" y="1073.4333333333334" type="curve" smooth="yes"/>
      <point x="1315.3794025007996" y="1082.7521911418862"/>
      <point x="1338.713043478261" y="1085.1666666666667"/>
      <point x="1381.0" y="1092.0" type="curve" smooth="yes"/>
      <point x="1490.3443653375193" y="1105.7693266553179"/>
      <point x="1561.1000000000001" y="1181.2375022668195"/>
      <point x="1561.1000000000001" y="1295.2333333333333" type="curve" smooth="yes"/>
      <point x="1561.1000000000001" y="1380.7661082024433"/>
      <point x="1510.627373068433" y="1445.8666666666666"/>
      <point x="1415.2" y="1445.8666666666666" type="curve" smooth="yes"/>
      <point x="1317.6527771836006" y="1445.8666666666666"/>
      <point x="1254.0341673793519" y="1394.3271859080166"/>
      <point x="1150.3" y="1260.8000000000002" type="curve" smooth="yes"/>
      <point x="783.7666666666667" y="783.3666666666667" type="line"/>
    </contour>
  </outline>
</glyph>
<glyph name="Y" format="2">
  <advance width="1251.7"/>
  <unicode hex="0059"/>
  <anchor x="915.8666666666667" y="1501.2666666666667" name="center"/>
  <outline>
    <contour>
      <point x="705.9666666666667" y="538.5999999999999" type="line"/>
      <point x="816.8000000000001" y="536.8" type="line"/>
      <point x="794.5" y="643.4"/>
      <point x="721.0" y="1212.5666666666666"/>
      <point x="703.9666666666667" y="1312.8" type="curve" smooth="yes"/>
      <point x="694.0666666666666" y="1373.3333333333333"/>
      <point x="661.2" y="1400.0"/>
      <point x="591.9000000000001" y="1400.0" type="curve" smooth="yes"/>
      <point x="280.8666666666667" y="1400.0" type="line" smooth="yes"/>
      <point x="224.66666666666666" y="1400.0"/>
      <point x="193.4" y="1368.4666666666665"/>
      <point x="193.4" y="1322.9666666666667" type="curve" smooth="yes"/>
      <point x="193.4" y="1291.0666666666666"/>
      <point x="210.4" y="1270.5333333333333"/>
      <point x="240.0" y="1257.1333333333332" type="curve" smooth="yes"/>
      <point x="282.3333333333333" y="1245.1666666666665"/>
      <point x="296.06666666666666" y="1229.2666666666667"/>
      <point x="306.1333333333333" y="1190.2666666666667" type="curve" smooth="yes"/>
      <point x="325.93333333333334" y="1116.9333333333332"/>
      <point x="377.1333333333333" y="659.6"/>
      <point x="389.06666666666666" y="584.0" type="curve" smooth="yes"/>
      <point x="398.3666666666667" y="527.6333333333333"/>
      <point x="408.43333333333334" y="481.40000000000003"/>
      <point x="394.2" y="431.33333333333337" type="curve" smooth="yes"/>
      <point x="338.56666666666666" y="228.5666666666667" type="line" smooth="yes"/>
      <point x="326.4666666666667" y="186.8"/>
      <point x="318.26666666666665" y="171.33333333333331"/>
      <point x="287.53333333333336" y="159.5" type="curve" smooth="yes"/>
      <point x="241.56666666666666" y="145.20000000000002" type="line" smooth="yes"/>
      <point x="206.8" y="128.9333333333333"/>
      <point x="187.49999999999997" y="99.99999999999999"/>
      <point x="187.49999999999997" y="67.03333333333335" type="curve" smooth="yes"/>
      <point x="187.49999999999997" y="25.66666666666667"/>
      <point x="205.76666666666668" y="0.0"/>
      <point x="262.23333333333335" y="0.0" type="curve" smooth="yes"/>
      <point x="794.0" y="0.0" type="line" smooth="yes"/>
      <point x="846.8333333333333" y="0.0"/>
      <point x="881.9333333333333" y="27.933333333333337"/>
      <point x="881.9333333333333" y="79.46666666666667" type="curve" smooth="yes"/>
      <point x="881.9333333333333" y="102.76666666666665"/>
      <point x="873.1027667356395" y="122.807573522786"/>
      <point x="837.9" y="141.10000000000002" type="curve" smooth="yes"/>
      <point x="795.9" y="155.93333333333334" type="line" smooth="yes"/>
      <point x="771.9333333333334" y="166.5"/>
      <point x="761.6333333333333" y="182.33333333333334"/>
      <point x="770.2666666666667" y="216.0666666666667" type="curve" smooth="yes"/>
      <point x="816.5333333333333" y="407.3666666666667" type="line" smooth="yes"/>
      <point x="825.8602643036506" y="445.9347625515335"/>
      <point x="838.4" y="486.53333333333336"/>
      <point x="866.4666666666667" y="539.7333333333333" type="curve" smooth="yes"/>
      <point x="1033.0333333333333" y="868.7666666666667" type="line" smooth="yes"/>
      <point x="1095.3999999999999" y="989.5"/>
      <point x="1158.8333333333333" y="1026.5666666666666"/>
      <point x="1269.0333333333333" y="1062.0333333333333" type="curve" smooth="yes"/>
      <point x="1410.1333333333332" y="1107.1666666666665"/>
      <point x="1487.4333333333334" y="1179.6666666666665"/>
      <point x="1487.4333333333334" y="1288.9333333333334" type="curve" smooth="yes"/>
      <point x="1487.4333333333334" y="1379.8666666666668"/>
      <point x="1428.3666666666668" y="1445.1666666666667"/>
      <point x="1324.0666666666666" y="1445.1666666666667" type="curve" smooth="yes"/>
      <point x="1209.159574468085" y="1445.1666666666667"/>
      <point x="1128.3999999999999" y="1377.5333333333333"/>
      <point x="1026.7666666666667" y="1176.9" type="curve" smooth="yes"/>
    </contour>
  </outline>
</glyph>
<glyph name="Z" format="2">
  <advance width="1305.1000000000001"/>
  <unicode hex="005A"/>
  <anchor x="943.5333333333333" y="1504.0" name="center"/>
  <outline>
    <contour>
      <point x="710.2666666666667" y="0.0" type="line" smooth="yes"/>
      <point x="822.8" y="0.0"/>
      <point x="850.8000000000001" y="-30.666666666666668"/>
      <point x="926.0" y="-30.666666666666668" type="curve" smooth="yes"/>
      <point x="1105.6999999999998" y="-30.666666666666668"/>
      <point x="1203.0" y="136.53333333333333"/>
      <point x="1213.8333333333333" y="403.43333333333334" type="curve" smooth="yes"/>
      <point x="1214.0666666666666" y="461.76666666666665"/>
      <point x="1194.2333333333333" y="497.0"/>
      <point x="1147.6666666666667" y="497.0" type="curve" smooth="yes"/>
      <point x="1114.0" y="497.0"/>
      <point x="1090.1999999999998" y="476.46666666666664"/>
      <point x="1056.7" y="413.8333333333333" type="curve" smooth="yes"/>
      <point x="919.9" y="170.76666666666668"/>
      <point x="811.2333333333333" y="134.06666666666666"/>
      <point x="642.8" y="134.06666666666666" type="curve" smooth="yes"/>
      <point x="464.16666666666663" y="134.06666666666666" type="line"/>
      <point x="502.4666666666667" y="111.33333333333331" type="line"/>
      <point x="713.8666666666667" y="362.5"/>
      <point x="1192.3" y="979.1333333333333"/>
      <point x="1342.5" y="1177.0666666666666" type="curve" smooth="yes"/>
      <point x="1392.6000000000001" y="1232.9333333333334"/>
      <point x="1430.2666666666667" y="1282.1333333333334"/>
      <point x="1430.2666666666667" y="1327.4666666666667" type="curve" smooth="yes"/>
      <point x="1430.2666666666667" y="1380.1666666666665"/>
      <point x="1401.0666666666668" y="1400.0"/>
      <point x="1333.2666666666667" y="1400.0" type="curve" smooth="yes"/>
      <point x="588.3333333333333" y="1400.0" type="line" smooth="yes"/>
      <point x="508.6" y="1400.0"/>
      <point x="479.8666666666667" y="1436.3666666666666"/>
      <point x="437.7" y="1436.3666666666666" type="curve" smooth="yes"/>
      <point x="389.90000000000003" y="1436.3666666666666"/>
      <point x="370.6333333333333" y="1417.8333333333335"/>
      <point x="338.5" y="1342.8999999999999" type="curve" smooth="yes"/>
      <point x="240.33333333333334" y="1080.8666666666666" type="line" smooth="yes"/>
      <point x="213.60000000000002" y="1020.6"/>
      <point x="218.76666666666668" y="980.0"/>
      <point x="258.96666666666664" y="962.8" type="curve" smooth="yes"/>
      <point x="299.40000000000003" y="945.3333333333333"/>
      <point x="338.3666666666667" y="951.5666666666667"/>
      <point x="384.06666666666666" y="1018.0" type="curve" smooth="yes"/>
      <point x="504.7666666666667" y="1192.9666666666667"/>
      <point x="613.3666666666667" y="1270.7333333333333"/>
      <point x="766.7333333333333" y="1270.7333333333333" type="curve" smooth="yes"/>
      <point x="992.7333333333333" y="1270.7333333333333" type="line"/>
      <point x="954.1666666666666" y="1333.7" type="line"/>
      <point x="836.0333333333333" y="1192.2333333333333"/>
      <point x="223.8" y="409.06666666666666"/>
      <point x="78.1" y="236.1" type="curve" smooth="yes"/>
      <point x="36.2" y="188.3"/>
      <point x="1.1000000000000014" y="134.0"/>
      <point x="1.1000000000000014" y="88.13333333333333" type="curve" smooth="yes"/>
      <point x="1.1000000000000014" y="30.0"/>
      <point x="31.333333333333336" y="0.0"/>
      <point x="94.33333333333331" y="0.0" type="curve" smooth="yes"/>
    </contour>
  </outline>
</glyph>
<glyph name="bracketleft" format="2">
  <advance width="757.8"/>
  <unicode hex="005B"/>
  <outline>
    <contour>
      <point x="707.9666666666667" y="1269.7" type="line" smooth="yes"/>
      <point x="723.4333333333333" y="1327.5333333333333"/>
      <point x="749.8" y="1347.8"/>
      <point x="807.1" y="1347.8" type="curve" smooth="yes"/>
      <point x="916.8" y="1347.8" type="line" smooth="yes"/>
      <point x="967.9666666666667" y="1347.8"/>
      <point x="996.2" y="1369.9666666666667"/>
      <point x="1008.1666666666666" y="1412.1" type="curve" smooth="yes"/>
      <point x="1017.8333333333333" y="1448.9"/>
      <point x="1001.9000000000001" y="1478.0"/>
      <point x="950.5000000000001" y="1478.0" type="curve" smooth="yes"/>
      <point x="545.0666666666667" y="1478.0" type="line" smooth="yes"/>
      <point x="480.0333333333333" y="1478.0"/>
      <point x="448.7666666666667" y="1447.3666666666666"/>
      <point x="428.9666666666667" y="1376.9333333333332" type="curve" smooth="yes"/>
      <point x="21.4" y="-147.26666666666665" type="line" smooth="yes"/>
      <point x="2.3999999999999995" y="-217.4333333333333"/>
      <point x="17.83333333333333" y="-249.26666666666668"/>
      <point x="82.86666666666666" y="-249.26666666666668" type="curve" smooth="yes"/>
      <point x="496.4666666666667" y="-249.26666666666668" type="line" smooth="yes"/>
      <point x="547.8666666666667" y="-249.26666666666668"/>
      <point x="576.5" y="-221.83333333333334"/>
      <point x="586.6666666666667" y="-185.03333333333333" type="curve" smooth="yes"/>
      <point x="597.7985404783681" y="-142.9732345140103"/>
      <point x="580.4666666666666" y="-119.06666666666668"/>
      <point x="529.3" y="-119.06666666666668" type="curve" smooth="yes"/>
      <point x="416.59999999999997" y="-119.06666666666668" type="line" smooth="yes"/>
      <point x="358.8" y="-119.06666666666668"/>
      <point x="342.90000000000003" y="-98.53333333333333"/>
      <point x="359.16666666666663" y="-41.0" type="curve" smooth="yes"/>
    </contour>
  </outline>
</glyph>
<glyph name="asciicircum" format="2">
  <advance width="882.2666666666667"/>
  <unicode hex="005E"/>
  <outline>
    <contour>
      <point x="722.4333333333333" y="1254.6000000000001" type="line"/>
      <point x="350.4" y="819.4333333333333" type="line" smooth="yes"/>
      <point x="285.71962730742723" y="752.6312521970652"/>
      <point x="223.60666666666668" y="727.6"/>
      <point x="179.46666666666667" y="727.6" type="curve" smooth="yes"/>
      <point x="118.16666666666666" y="727.6"/>
      <point x="127.60000000000001" y="799.1666666666666"/>
      <point x="194.23333333333332" y="880.1" type="curve" smooth="yes"/>
      <point x="523.6" y="1314.1" type="line" smooth="yes"/>
      <point x="604.6666666666666" y="1413.2"/>
      <point x="648.9" y="1433.2333333333333"/>
      <point x="707.1" y="1433.2333333333333" type="curve" smooth="yes"/>
      <point x="765.8" y="1433.2333333333333"/>
      <point x="798.5999999999999" y="1413.2"/>
      <point x="826.3" y="1314.1" type="curve" smooth="yes"/>
      <point x="922.6333333333333" y="877.6666666666667" type="line" smooth="yes"/>
      <point x="946.3333333333333" y="791.6333333333333"/>
      <point x="916.3333333333334" y="726.6333333333333"/>
      <point x="853.7333333333333" y="726.6333333333333" type="curve" smooth="yes"/>
      <point x="810.448717948718" y="726.6333333333333"/>
      <point x="779.3215136325189" y="752.2595341684097"/>
      <point x="751.1666666666666" y="818.0" type="curve" smooth="yes"/>
      <point x="613.7333333333333" y="1254.6000000000001" type="line"/>
    </contour>
  </outline>
</glyph>
<glyph name="underscore" format="2">
  <advance width="916.4333333333333"/>
  <unicode hex="005F"/>
  <outline>
    <contour>
      <point x="-112.93333333333334" y="-281.8333333333333" type="curve" smooth="yes"/>
      <point x="-127.96666666666665" y="-335.8666666666667"/>
      <point x="-118.0" y="-370.93333333333334"/>
      <point x="-73.86666666666666" y="-370.93333333333334" type="curve" smooth="yes"/>
      <point x="766.8333333333333" y="-370.93333333333334" type="line" smooth="yes"/>
      <point x="810.9333333333333" y="-370.93333333333334"/>
      <point x="839.0000000000001" y="-335.8666666666667"/>
      <point x="853.7666666666667" y="-282.56666666666666" type="curve" smooth="yes"/>
      <point x="868.0" y="-228.29999999999998"/>
      <point x="857.8333333333334" y="-193.46666666666667"/>
      <point x="814.2333333333333" y="-193.46666666666667" type="curve" smooth="yes"/>
      <point x="-26.46666666666667" y="-193.46666666666667" type="line" smooth="yes"/>
      <point x="-70.83333333333334" y="-193.46666666666667"/>
      <point x="-98.7" y="-227.79999999999998"/>
    </contour>
  </outline>
</glyph>
<glyph name="a" format="2">
  <advance width="1190.3"/>
  <unicode hex="0061"/>
  <anchor x="779.8" y="1010.0" name="center"/>
  <outline>
    <contour>
      <point x="987.7666666666667" y="356.8" type="curve" smooth="yes"/>
      <point x="1072.9" y="672.7333333333333" type="line" smooth="yes"/>
      <point x="1092.2333333333333" y="743.5333333333333"/>
      <point x="1157.0" y="738.1333333333333"/>
      <point x="1165.2" y="805.6333333333333" type="curve" smooth="yes"/>
      <point x="1174.8993540893296" y="885.2282157334083"/>
      <point x="1046.9345309381238" y="946.9333333333333"/>
      <point x="770.6999999999999" y="946.9333333333333" type="curve" smooth="yes"/>
      <point x="307.60397940074904" y="946.9333333333333"/>
      <point x="49.06666666666666" y="601.7666666666668"/>
      <point x="28.266666666666666" y="293.8666666666667" type="curve" smooth="yes"/>
      <point x="11.733333333333333" y="82.60000000000001"/>
      <point x="112.0607594936709" y="-24.8"/>
      <point x="276.7" y="-24.8" type="curve" smooth="yes"/>
      <point x="459.52132963988913" y="-24.8"/>
      <point x="587.0291926398727" y="73.65187215753642"/>
      <point x="671.5666666666666" y="265.6" type="curve"/>
      <point x="650.0" y="346.2333333333333" type="line"/>
      <point x="636.5" y="282.03333333333336"/>
      <point x="624.7333333333333" y="206.20000000000002"/>
      <point x="624.7333333333333" y="139.93333333333334" type="curve" smooth="yes"/>
      <point x="624.7333333333333" y="38.1"/>
      <point x="672.8" y="-24.8"/>
      <point x="781.4666666666667" y="-24.8" type="curve" smooth="yes"/>
      <point x="936.2" y="-24.8"/>
      <point x="1065.4666666666667" y="59.0"/>
      <point x="1116.8333333333335" y="185.39999999999998" type="curve" smooth="yes"/>
      <point x="1140.3666666666666" y="246.26666666666668"/>
      <point x="1132.9666666666665" y="278.0"/>
      <point x="1108.3999999999999" y="285.2" type="curve" smooth="yes"/>
      <point x="1095.8" y="290.26666666666665"/>
      <point x="1082.8" y="288.3"/>
      <point x="1064.6333333333332" y="273.6" type="curve" smooth="yes"/>
      <point x="1039.6333333333334" y="250.23333333333335"/>
      <point x="1025.8666666666668" y="239.93333333333337"/>
      <point x="1005.9000000000001" y="239.93333333333337" type="curve" smooth="yes"/>
      <point x="976.0999999999999" y="239.93333333333337"/>
      <point x="965.1" y="272.53333333333336"/>
    </contour>
    <contour>
      <point x="426.43333333333334" y="308.06666666666666" type="curve" smooth="yes"/>
      <point x="442.7" y="515.0666666666667"/>
      <point x="567.4764227642276" y="796.1333333333333"/>
      <point x="676.1666666666666" y="796.1333333333333" type="curve" smooth="yes"/>
      <point x="717.925" y="796.1333333333333"/>
      <point x="730.0" y="752.1999999999999"/>
      <point x="716.2666666666667" y="673.0" type="curve" smooth="yes"/>
      <point x="671.4" y="407.3"/>
      <point x="556.1" y="191.43333333333334"/>
      <point x="468.49999999999994" y="191.43333333333334" type="curve" smooth="yes"/>
      <point x="440.6333333333333" y="191.43333333333334"/>
      <point x="418.16666666666663" y="220.33333333333334"/>
    </contour>
  </outline>
</glyph>
